<svg width="335" height="97" viewBox="0 0 335 97" fill="none" xmlns="http://www.w3.org/2000/svg">
<g clip-path="url(#clip0_963_845)">
<path d="M53.2953 35.456C54.8843 33.351 54.1297 28.3338 51.3164 23.4134C48.2984 18.1347 43.9983 14.8674 41.4311 15.7908C40.4209 13.35 35.7404 11.5 30.1136 11.5C24.0776 11.5 19.1286 13.6276 18.6362 16.3332C16.037 15.9942 12.1111 19.1646 9.30089 24.085C6.27969 29.3701 5.63069 34.7618 7.70557 36.544C6.11664 38.649 6.87114 43.6662 9.68453 48.5866C12.7025 53.8653 17.0026 57.1326 19.5698 56.2092C20.58 58.65 25.2605 60.5 30.8873 60.5C36.9233 60.5 41.8723 58.3724 42.3647 55.6668C44.9638 56.0058 48.8898 52.8354 51.7 47.915C54.718 42.6363 55.3702 37.2446 53.2953 35.4592V35.456Z" fill="#EAEBE2"/>
<path d="M34.4544 31.9545C34.8938 31.5152 35.6061 31.5152 36.0454 31.9545C36.4794 32.3885 36.4847 33.0887 36.0614 33.5292L30.0731 41.0146C30.0645 41.0254 30.0552 41.0357 30.0454 41.0455C29.6061 41.4848 28.8938 41.4848 28.4544 41.0455L24.4848 37.0758C24.0454 36.6365 24.0454 35.9242 24.4848 35.4848C24.9241 35.0455 25.6364 35.0455 26.0758 35.4848L29.216 38.6251L34.4246 31.9882C34.4339 31.9764 34.4438 31.9651 34.4544 31.9545Z" fill="#ACB18B"/>
</g>
<path d="M6.042 72.778L6.686 72.092L7.876 73.1C7.778 73.226 7.596 73.31 7.288 73.352C7.176 78.392 6.924 80.968 6.252 81.738C5.846 82.172 5.272 82.382 4.614 82.382C4.614 82.032 4.572 81.738 4.376 81.57C4.166 81.374 3.676 81.22 3.13 81.122L3.144 80.884C3.69 80.94 4.572 81.024 4.866 81.024C5.132 81.024 5.244 80.982 5.384 80.842C5.888 80.366 6.084 77.678 6.196 73.184H4.362C4.222 76.488 3.662 79.988 0.96 82.606L0.736 82.41C2.71 79.708 3.144 76.418 3.242 73.184H1.198L1.086 72.778H3.256C3.284 71.756 3.27 70.762 3.27 69.782L4.936 69.95C4.894 70.146 4.782 70.286 4.432 70.342C4.418 71.126 4.418 71.952 4.376 72.778H6.042ZM9.682 80.45H12.02V72.512H9.682V80.45ZM12.468 71.406L13.77 72.428C13.672 72.554 13.448 72.68 13.154 72.736V81.696C13.126 81.808 12.594 82.116 12.188 82.116H12.02V80.856H9.682V81.906C9.682 82.046 9.276 82.312 8.772 82.312H8.576V71.574L9.738 72.12H11.866L12.468 71.406ZM21.988 70.958L22.59 69.992L24.256 71.21C24.018 71.49 23.486 71.644 22.73 71.714V72.344C23.192 76.684 25.362 79.834 29.338 81.472L29.282 81.64C28.708 81.682 28.344 82.032 28.106 82.648C25.894 81.416 23.528 78.728 22.884 75.34C21.946 78.7 19.664 81.234 16.486 82.634L16.346 82.438C19.44 80.758 21.876 77.174 22.296 72.358V71.364H19.09L18.992 70.958H21.988ZM36.814 80.156H39.586V77.944H36.814V80.156ZM40.608 78.056V80.94C40.594 81.024 40.076 81.22 39.754 81.22H39.586V80.576H36.814V81.15C36.814 81.248 36.366 81.472 35.946 81.472H35.792V77.048L36.884 77.524H39.46L39.978 76.992L41.084 77.818C41.014 77.916 40.832 78.014 40.608 78.056ZM41.84 76.082L41.882 76.096C41.98 76.124 42.064 76.152 42.12 76.18V74.346H39.95V74.514V75.956C39.964 76.096 39.992 76.138 40.216 76.138H40.776H41.294C41.35 76.138 41.42 76.138 41.476 76.124C41.532 76.124 41.644 76.096 41.714 76.082H41.84ZM34.28 74.346V77.258C36.156 76.446 36.394 75.466 36.436 74.346H34.28ZM41.98 73.926L42.54 73.282L43.828 74.262C43.744 74.374 43.52 74.5 43.226 74.542V81.178C43.226 82.004 43.044 82.508 41.602 82.648C41.56 82.312 41.49 82.032 41.308 81.878C41.098 81.696 40.762 81.556 40.104 81.472V81.262C40.104 81.262 41.49 81.36 41.798 81.36C42.064 81.36 42.12 81.276 42.12 81.066V76.712C41.924 76.852 41.504 76.908 40.678 76.894H39.964C39.208 76.894 39.096 76.684 39.096 76.138V74.346H37.528C37.388 75.69 36.926 76.81 34.28 77.566V82.242C34.28 82.382 33.832 82.648 33.37 82.648H33.188V73.408L34.378 73.926H39.32C39.558 73.324 39.852 72.498 40.02 71.896L41.672 72.274C41.616 72.442 41.448 72.568 41.14 72.568C40.79 72.974 40.3 73.492 39.796 73.926H41.98ZM34.994 72.008L35.134 71.91C37.906 72.568 36.898 74.5 35.89 73.744C35.792 73.156 35.372 72.442 34.994 72.008ZM42.176 71.406L42.96 70.44C42.96 70.44 43.842 71.112 44.402 71.602C44.36 71.756 44.234 71.826 44.024 71.826H32.11L31.984 71.406H38.368C38.27 71.378 38.172 71.336 38.074 71.266C37.948 70.734 37.486 70.09 37.122 69.698L37.248 69.614C39.474 69.95 39.334 71.224 38.69 71.406H42.176ZM56.008 71.014H51.234V74.248H56.008V71.014ZM51.234 74.668V75.424C51.234 75.522 50.758 75.788 50.282 75.788H50.114V70.09L51.318 70.608H55.868L56.456 69.95L57.716 70.93C57.632 71.042 57.408 71.154 57.128 71.21V75.354C57.114 75.452 56.568 75.704 56.19 75.704H56.008V74.668H51.234ZM48.966 80.842H51.668V77.146H48.966V80.842ZM51.528 76.74L52.102 76.11L53.348 77.062C53.25 77.174 53.04 77.286 52.774 77.342V81.934C52.76 82.032 52.214 82.284 51.836 82.284H51.668V81.248H48.966V82.172C48.966 82.284 48.518 82.536 48.056 82.536H47.888V76.25L49.036 76.74H51.528ZM55.476 80.842H58.276V77.146H55.476V80.842ZM58.71 76.11L59.97 77.062C59.872 77.174 59.676 77.286 59.382 77.356V82.06C59.368 82.144 58.808 82.368 58.458 82.368H58.276V81.248H55.476V82.2C55.476 82.312 55.014 82.564 54.552 82.564H54.384V76.25L55.546 76.74H58.136L58.71 76.11Z" fill="#A3A3A3"/>
<path d="M87.3333 38L82.3333 35.1132V40.8868L87.3333 38ZM65 38V38.5H82.8333V38V37.5H65V38Z" fill="#ACB18B"/>
<g clip-path="url(#clip1_963_845)">
<path d="M144.629 35.456C146.218 33.351 145.463 28.3338 142.65 23.4134C139.632 18.1347 135.332 14.8674 132.764 15.7908C131.754 13.35 127.074 11.5 121.447 11.5C115.411 11.5 110.462 13.6276 109.969 16.3332C107.37 15.9942 103.444 19.1646 100.634 24.085C97.6129 29.3701 96.9639 34.7618 99.0388 36.544C97.4499 38.649 98.2044 43.6662 101.018 48.5866C104.036 53.8653 108.336 57.1326 110.903 56.2092C111.913 58.65 116.594 60.5 122.221 60.5C128.257 60.5 133.206 58.3724 133.698 55.6668C136.297 56.0058 140.223 52.8354 143.033 47.915C146.051 42.6363 146.703 37.2446 144.629 35.4592V35.456Z" fill="#979D6E"/>
<path d="M112.697 38.06C112.697 43.52 113.977 44.94 115.377 44.94C116.717 44.94 117.977 43.5 117.977 38.06C117.977 32.8 116.717 31.42 115.377 31.42C113.977 31.42 112.697 32.8 112.697 38.06ZM115.377 30.54C117.677 30.54 119.937 32.58 119.937 38.06C119.937 43.72 117.677 45.78 115.377 45.78C113.017 45.78 110.757 43.72 110.757 38.06C110.757 32.58 113.017 30.54 115.377 30.54ZM125.313 43.8H132.913V45.5H123.913V44.14C125.113 42.8 126.273 41.48 127.233 40.38C129.373 37.94 130.373 36.28 130.373 34.52C130.373 32.64 129.333 31.4 127.693 31.4C127.373 31.4 126.973 31.44 126.513 31.54L126.073 33.14C125.813 34.16 125.433 34.52 124.873 34.52C124.413 34.52 124.033 34.26 123.813 33.84C124.113 31.64 126.033 30.54 128.213 30.54C131.033 30.54 132.293 32.14 132.293 34.42C132.293 36.32 131.173 37.72 127.893 41.14C127.313 41.74 126.333 42.76 125.313 43.8Z" fill="white"/>
</g>
<path d="M97.1093 77.72L97.1793 77.888C96.3113 78.448 95.0373 79.232 93.2733 80.198C93.2313 80.38 93.1193 80.52 92.9793 80.576L92.2233 79.204C92.6153 79.106 93.2453 78.924 93.9873 78.7V74.122H92.3773L92.2653 73.716H93.9873V70.034L95.5973 70.188C95.5553 70.384 95.4433 70.524 95.0793 70.58V73.716H95.5273L96.1153 72.834C96.1153 72.834 96.8293 73.464 97.2073 73.898C97.1793 74.052 97.0393 74.122 96.8573 74.122H95.0793V78.378C95.7233 78.168 96.4233 77.944 97.1093 77.72ZM95.1633 82.69L95.0793 82.494C96.4373 81.808 97.9773 80.604 98.6913 79.764L100.175 80.52C100.077 80.674 99.8673 80.73 99.4893 80.66C98.5093 81.388 96.8013 82.214 95.1633 82.69ZM101.337 80.128L101.435 79.932C106.923 81.136 105.033 83.348 104.095 82.368C103.633 81.682 102.695 80.842 101.337 80.128ZM98.7193 77.986V79.19H102.723V77.986H98.7193ZM102.723 73.31H98.7193V74.5H102.723V73.31ZM98.7193 76.432V77.58H102.723V76.432H98.7193ZM102.723 76.026V74.92H98.7193V76.026H102.723ZM103.815 78.994L104.277 78.378C104.277 78.378 104.949 78.952 105.369 79.372C105.327 79.526 105.201 79.596 105.005 79.596H95.7233L95.6113 79.19H97.6553V72.386L98.8733 72.904H100.007C100.035 72.554 100.063 72.148 100.105 71.714H96.5353L96.4233 71.308H100.133C100.161 70.776 100.189 70.216 100.217 69.726L101.841 69.866C101.813 70.076 101.631 70.23 101.337 70.258C101.309 70.566 101.253 70.93 101.211 71.308H103.255L103.969 70.398C103.969 70.398 104.781 71.028 105.285 71.49C105.257 71.644 105.103 71.714 104.907 71.714H101.141C101.085 72.134 101.029 72.54 100.959 72.904H102.569L103.115 72.204L104.459 73.184C104.361 73.338 104.179 73.408 103.815 73.45V78.994ZM110.381 79.106L110.619 79.12C110.955 80.576 110.381 81.528 109.821 81.892C109.471 82.13 108.953 82.144 108.785 81.794C108.659 81.472 108.855 81.178 109.177 80.996C109.709 80.716 110.325 79.96 110.381 79.106ZM111.655 79.092L111.851 79.036C113.881 80.716 112.663 82.452 111.907 81.5C112.033 80.73 111.865 79.75 111.655 79.092ZM113.433 78.952L113.601 78.868C116.205 80.044 115.295 81.948 114.385 81.178C114.315 80.464 113.825 79.54 113.433 78.952ZM115.183 78.756L115.323 78.616C118.473 79.05 118.025 80.996 116.989 80.52C116.681 79.918 115.841 79.162 115.183 78.756ZM107.749 79.974L107.637 79.792C109.443 79.008 111.095 77.65 111.879 76.544L113.517 76.964C113.475 77.118 113.279 77.188 112.873 77.188C112.663 77.384 112.453 77.566 112.215 77.762H118.501L119.103 77.16L120.237 78.112C120.139 78.21 119.971 78.28 119.677 78.322C119.523 80.52 119.159 81.794 118.557 82.228C118.193 82.508 117.717 82.648 117.129 82.648C117.143 82.34 117.087 82.06 116.905 81.906C116.737 81.738 116.289 81.612 115.813 81.528V81.304C116.317 81.346 117.129 81.416 117.409 81.416C117.633 81.416 117.759 81.388 117.885 81.29C118.193 81.024 118.459 79.932 118.613 78.168H111.655C110.591 78.896 109.233 79.582 107.749 79.974ZM119.495 70.566L120.643 71.672C120.545 71.784 120.391 71.812 120.125 71.826C119.817 72.218 119.257 72.764 118.823 73.1L118.893 73.156C118.809 73.268 118.585 73.38 118.319 73.436V76.6C118.305 76.684 117.759 76.922 117.395 76.922H117.227V76.544H110.941V76.726C110.913 76.796 110.591 77.062 110.031 77.062H109.863V72.54L111.095 72.904C111.781 72.526 112.481 72.064 112.887 71.756L114.105 72.652C113.979 72.792 113.755 72.806 113.419 72.708C112.817 72.932 111.851 73.226 110.941 73.408V74.528H112.327L112.873 73.856C112.873 73.856 113.503 74.332 113.909 74.71C113.881 74.864 113.741 74.934 113.545 74.934H110.941V76.124H117.227V74.92H114.749L114.623 74.5H117.227V73.254H114.497L114.371 72.834H117.087L117.661 72.232L118.627 72.946C118.739 72.568 118.865 72.05 118.949 71.616H109.555C109.597 72.442 109.261 73.016 108.855 73.268C108.505 73.492 108.001 73.478 107.833 73.1C107.707 72.764 107.931 72.47 108.239 72.288C108.729 72.05 109.163 71.336 109.093 70.594H109.331C109.415 70.804 109.471 71.014 109.499 71.21H114.119C113.993 71.182 113.867 71.126 113.741 71.014C113.783 70.552 113.545 69.992 113.251 69.684L113.377 69.6C115.351 69.838 115.071 71.07 114.371 71.21H118.865L119.495 70.566ZM125.137 69.824L125.277 69.726C128.245 70.384 127.237 72.652 126.145 71.854C126.075 71.14 125.585 70.314 125.137 69.824ZM127.475 75.886L128.119 75.074C128.119 75.074 128.847 75.634 129.295 76.068C129.253 76.222 129.113 76.292 128.931 76.292H123.863L123.751 75.886H127.475ZM127.475 74.08L128.119 73.282C128.119 73.282 128.847 73.842 129.295 74.262C129.253 74.416 129.113 74.486 128.931 74.486H123.863L123.751 74.08H127.475ZM125.067 80.828H127.727V78.154H125.067V80.828ZM127.587 77.734L128.147 77.146L129.365 78.056C129.267 78.168 129.057 78.28 128.777 78.336V81.654C128.763 81.738 128.245 81.976 127.895 81.976H127.727V81.248H125.067V82.088C125.067 82.2 124.619 82.438 124.199 82.438H124.045V77.272L125.137 77.734H127.587ZM128.105 72.288L128.777 71.434C128.777 71.434 129.561 72.036 130.023 72.47C129.995 72.624 129.841 72.694 129.659 72.694H123.163L123.051 72.288H128.105ZM133.999 71.084L134.741 70.104C134.741 70.104 135.595 70.776 136.099 71.266C136.057 71.42 135.917 71.49 135.721 71.49H133.579V81.01C133.579 81.836 133.369 82.466 131.857 82.592C131.829 82.242 131.745 81.934 131.535 81.766C131.283 81.57 130.919 81.43 130.191 81.332V81.15C130.191 81.15 131.787 81.262 132.123 81.262C132.389 81.262 132.473 81.164 132.473 80.954V71.49H129.505L129.393 71.084H133.999ZM149.021 70.874H146.683V72.484H149.021V70.874ZM146.683 72.89V73.142C146.683 73.24 146.193 73.478 145.745 73.478H145.605V69.978L146.739 70.468H148.881L149.441 69.852L150.673 70.79C150.589 70.888 150.365 71.014 150.099 71.056V73.086C150.085 73.184 149.553 73.408 149.203 73.408H149.021V72.89H146.683ZM141.601 77.846H144.331V76.32H141.601V77.846ZM144.331 74.416H141.601V75.914H144.331V74.416ZM148.237 74.416H145.493V75.914H148.237V74.416ZM145.493 77.846H148.237V76.32H145.493V77.846ZM143.239 70.874H140.901V72.484H143.239V70.874ZM149.273 79.652L150.043 78.686C150.043 78.686 150.953 79.358 151.485 79.834C151.443 79.988 151.303 80.058 151.121 80.058H145.493V82.312C145.493 82.382 145.115 82.634 144.527 82.634H144.331V80.058H138.535L138.423 79.652H144.331V78.238H141.601V78.63C141.601 78.742 141.125 78.994 140.663 78.994H140.481V73.534C140.327 73.576 140.159 73.618 139.991 73.618H139.837V69.978L140.957 70.468H143.099L143.645 69.866L144.863 70.79C144.779 70.888 144.555 71 144.289 71.042V73.044C144.275 73.142 143.757 73.366 143.407 73.366H143.239V72.89H140.901V73.282C140.901 73.324 140.747 73.436 140.523 73.506L141.699 74.01H148.097L148.671 73.38L149.931 74.332C149.833 74.444 149.637 74.556 149.371 74.612V78.448C149.357 78.546 148.797 78.812 148.405 78.812H148.237V78.238H145.493V79.652H149.273Z" fill="black"/>
<path d="M178.667 38L173.667 35.1132V40.8868L178.667 38ZM156.333 38V38.5H174.167V38V37.5H156.333V38Z" fill="#ACB18B"/>
<g clip-path="url(#clip2_963_845)">
<path d="M212.78 12C215.543 12 218.058 12.4551 219.991 13.1973C221.95 13.9494 223.21 14.9553 223.635 15.9824L223.818 16.4229L224.267 16.2617C225.296 15.8916 226.823 16.3342 228.567 17.6729C230.277 18.9859 232.066 21.0675 233.549 23.6611C234.93 26.0779 235.799 28.5059 236.13 30.5693C236.465 32.6609 236.232 34.268 235.563 35.1543L235.462 35.2881V35.6885L235.635 35.8379C236.471 36.557 236.854 38.12 236.578 40.3145C236.324 42.3333 235.525 44.7493 234.204 47.1807L233.932 47.667C232.552 50.0837 230.906 52.0566 229.302 53.377C227.677 54.7158 226.186 55.3128 225.096 55.1709L224.625 55.1094L224.54 55.5771C224.341 56.6684 223.193 57.7831 221.177 58.6377C219.197 59.4767 216.519 60 213.554 60C210.792 60 208.277 59.5449 206.344 58.8027C204.384 58.0506 203.124 57.0447 202.699 56.0176L202.516 55.5771L202.067 55.7383C201.038 56.1084 199.511 55.6658 197.767 54.3271C196.057 53.0141 194.268 50.9327 192.785 48.3389C191.403 45.9221 190.535 43.4941 190.205 41.4307C189.87 39.3391 190.102 37.732 190.771 36.8457L191.054 36.4707L190.698 36.165C189.863 35.4475 189.479 33.8855 189.755 31.6904C190.008 29.6713 190.808 27.2545 192.131 24.8203L192.402 24.333C193.782 21.9163 195.429 19.9434 197.032 18.623C198.658 17.2841 200.149 16.6872 201.238 16.8291L201.71 16.8906L201.795 16.4229C201.993 15.3316 203.141 14.2169 205.158 13.3623C207.138 12.5233 209.815 12 212.78 12Z" stroke="#979D6E"/>
<path d="M204.03 38.06C204.03 43.52 205.31 44.94 206.71 44.94C208.05 44.94 209.31 43.5 209.31 38.06C209.31 32.8 208.05 31.42 206.71 31.42C205.31 31.42 204.03 32.8 204.03 38.06ZM206.71 30.54C209.01 30.54 211.27 32.58 211.27 38.06C211.27 43.72 209.01 45.78 206.71 45.78C204.35 45.78 202.09 43.72 202.09 38.06C202.09 32.58 204.35 30.54 206.71 30.54ZM218.147 31.52L217.787 32.8C217.547 33.7 217.247 34.12 216.547 34.12C216.087 34.12 215.727 33.92 215.527 33.36C215.927 31.46 217.607 30.54 219.627 30.54C222.167 30.54 223.767 31.98 223.767 34.12C223.767 35.8 222.667 37.14 220.667 37.76C223.107 38.2 224.227 39.66 224.227 41.62C224.227 44.02 222.247 45.78 219.327 45.78C217.147 45.78 215.527 44.86 215.127 42.74C215.367 42.26 215.727 42.04 216.187 42.04C216.867 42.04 217.127 42.48 217.387 43.48L217.747 44.78C218.187 44.9 218.607 44.94 219.007 44.94C221.107 44.94 222.307 43.56 222.307 41.58C222.307 39.54 221.167 38.26 218.907 38.26H217.867V37.28H218.727C220.687 37.28 221.927 36.18 221.927 34.22C221.927 32.4 220.927 31.4 219.207 31.4C218.907 31.4 218.547 31.42 218.147 31.52Z" fill="#979D6E"/>
</g>
<path d="M185.643 80.1H187.183V75.69H185.643V80.1ZM187.589 74.682L188.751 75.592C188.667 75.69 188.457 75.802 188.177 75.858V81.108C188.163 81.192 187.673 81.402 187.337 81.402H187.183V80.506H185.643V81.752C185.643 81.836 185.321 82.088 184.831 82.088H184.663V76.88C184.355 77.398 184.033 77.902 183.669 78.378L183.459 78.21C184.439 76.334 185.083 73.842 185.405 71.518H183.739L183.627 71.112H187.085L187.757 70.258C187.757 70.258 188.541 70.86 189.017 71.294C188.975 71.448 188.835 71.518 188.653 71.518H186.539C186.329 72.792 185.979 74.01 185.503 75.144L185.811 75.27H187.057L187.589 74.682ZM192.545 75.004H190.683V76.796H192.545V75.004ZM192.545 79.008V77.216H190.683V79.008H192.545ZM192.545 81.374V79.414H190.683V81.374H192.545ZM194.813 73.562L194.603 73.464C194.729 73.114 194.897 72.512 195.023 72.036H192.097C191.747 72.862 191.341 73.73 190.823 74.57L190.865 74.584H194.547L195.163 73.856C195.163 73.856 195.835 74.374 196.269 74.78C196.227 74.934 196.101 75.004 195.905 75.004H193.539V76.796H194.407L194.981 76.054C194.981 76.054 195.639 76.6 196.031 76.992C196.003 77.146 195.863 77.216 195.667 77.216H193.539V79.008H194.505L195.079 78.252C195.079 78.252 195.737 78.798 196.143 79.19C196.101 79.344 195.975 79.414 195.793 79.414H193.539V81.374H194.813L195.443 80.562C195.443 80.562 196.157 81.136 196.591 81.556C196.549 81.71 196.409 81.78 196.213 81.78H190.683V82.27C190.683 82.368 190.361 82.62 189.857 82.62H189.689V76.208C189.297 76.684 188.891 77.132 188.443 77.538L188.261 77.384C189.437 75.886 190.375 73.898 190.991 72.036H189.885C189.899 72.736 189.703 73.282 189.451 73.576C189.199 73.842 188.709 73.898 188.499 73.59C188.345 73.31 188.513 72.988 188.807 72.764C189.129 72.47 189.507 71.7 189.521 71.07H189.759C189.801 71.252 189.843 71.434 189.857 71.616H191.131C191.355 70.944 191.523 70.3 191.649 69.712L193.245 70.188C193.189 70.37 193.063 70.454 192.713 70.44C192.587 70.818 192.447 71.196 192.279 71.616H194.981L195.555 71.042L196.619 72.05C196.521 72.162 196.353 72.19 196.087 72.204C195.765 72.582 195.191 73.212 194.813 73.562ZM192.111 72.61L192.279 72.512C194.519 73.478 193.553 75.06 192.797 74.346C192.783 73.772 192.447 73.044 192.111 72.61ZM207.077 71.112H204.641L204.515 70.706H209.933L210.507 70.09L211.627 71.028C211.529 71.14 211.361 71.21 211.081 71.252C210.997 74.206 210.773 75.634 210.255 76.11C209.905 76.418 209.429 76.558 208.883 76.558C208.883 76.264 208.841 76.012 208.659 75.872C208.491 75.704 208.057 75.578 207.637 75.522V75.284C208.085 75.326 208.841 75.382 209.093 75.382C209.317 75.382 209.415 75.354 209.513 75.242C209.821 74.962 209.989 73.604 210.059 71.112H208.225C207.917 73.884 207.203 75.9 204.221 77.034L204.109 76.81C205.355 76.082 206.083 75.2 206.489 74.108C206.335 74.206 206.111 74.206 205.873 74.038C205.677 73.422 205.047 72.568 204.585 72.078L204.725 71.98C206.083 72.428 206.601 73.072 206.685 73.534C206.895 72.82 207.007 72.008 207.077 71.112ZM207.189 76.544L207.357 76.46C210.353 77.874 209.387 80.072 208.407 79.218C208.351 78.35 207.749 77.244 207.189 76.544ZM200.357 69.978L200.497 69.894C203.437 70.482 202.499 72.582 201.435 71.854C201.295 71.224 200.777 70.44 200.357 69.978ZM202.625 72.372L203.283 71.56C203.283 71.56 203.997 72.134 204.445 72.554C204.403 72.708 204.263 72.778 204.067 72.778H199.083L198.971 72.372H202.625ZM199.545 74.15H202.219L202.807 73.408C202.807 73.408 203.493 73.926 203.899 74.332C203.857 74.486 203.731 74.556 203.549 74.556H199.657L199.545 74.15ZM202.219 75.942L202.807 75.2C202.807 75.2 203.479 75.718 203.899 76.124C203.857 76.278 203.731 76.348 203.535 76.348H199.657L199.545 75.942H202.219ZM200.679 80.926H202.499V78.154H200.679V80.926ZM202.891 77.16L204.053 78.056C203.969 78.154 203.759 78.266 203.493 78.322V81.682C203.479 81.78 202.989 81.99 202.653 81.99H202.499V81.346H200.679V82.172C200.679 82.27 200.245 82.494 199.839 82.494H199.699V77.272L200.735 77.734H202.359L202.891 77.16ZM204.725 78.084L204.963 78.098C205.383 79.554 205.187 80.688 204.851 81.22C204.613 81.584 204.067 81.738 203.829 81.416C203.633 81.136 203.759 80.786 204.025 80.534C204.389 80.114 204.781 79.022 204.725 78.084ZM210.199 79.638L210.241 81.248C210.549 81.36 210.619 81.486 210.619 81.682C210.619 82.102 210.185 82.298 208.295 82.298H207.063C206.027 82.298 205.831 82.074 205.831 81.36V77.594L207.231 77.734C207.217 77.916 207.091 78.042 206.811 78.084V81.136C206.811 81.318 206.867 81.36 207.287 81.36H208.351H209.359C209.499 81.346 209.555 81.318 209.611 81.192C209.709 80.982 209.877 80.338 210.031 79.638H210.199ZM209.891 77.888L210.059 77.804C213.013 79.568 211.949 81.934 210.955 80.982C210.983 79.96 210.423 78.7 209.891 77.888ZM216.471 69.824L216.611 69.726C219.579 70.384 218.571 72.652 217.479 71.854C217.409 71.14 216.919 70.314 216.471 69.824ZM218.809 75.886L219.453 75.074C219.453 75.074 220.181 75.634 220.629 76.068C220.587 76.222 220.447 76.292 220.265 76.292H215.197L215.085 75.886H218.809ZM218.809 74.08L219.453 73.282C219.453 73.282 220.181 73.842 220.629 74.262C220.587 74.416 220.447 74.486 220.265 74.486H215.197L215.085 74.08H218.809ZM216.401 80.828H219.061V78.154H216.401V80.828ZM218.921 77.734L219.481 77.146L220.699 78.056C220.601 78.168 220.391 78.28 220.111 78.336V81.654C220.097 81.738 219.579 81.976 219.229 81.976H219.061V81.248H216.401V82.088C216.401 82.2 215.953 82.438 215.533 82.438H215.379V77.272L216.471 77.734H218.921ZM219.439 72.288L220.111 71.434C220.111 71.434 220.895 72.036 221.357 72.47C221.329 72.624 221.175 72.694 220.993 72.694H214.497L214.385 72.288H219.439ZM225.333 71.084L226.075 70.104C226.075 70.104 226.929 70.776 227.433 71.266C227.391 71.42 227.251 71.49 227.055 71.49H224.913V81.01C224.913 81.836 224.703 82.466 223.191 82.592C223.163 82.242 223.079 81.934 222.869 81.766C222.617 81.57 222.253 81.43 221.525 81.332V81.15C221.525 81.15 223.121 81.262 223.457 81.262C223.723 81.262 223.807 81.164 223.807 80.954V71.49H220.839L220.727 71.084H225.333ZM240.355 70.874H238.017V72.484H240.355V70.874ZM238.017 72.89V73.142C238.017 73.24 237.527 73.478 237.079 73.478H236.939V69.978L238.073 70.468H240.215L240.775 69.852L242.007 70.79C241.923 70.888 241.699 71.014 241.433 71.056V73.086C241.419 73.184 240.887 73.408 240.537 73.408H240.355V72.89H238.017ZM232.935 77.846H235.665V76.32H232.935V77.846ZM235.665 74.416H232.935V75.914H235.665V74.416ZM239.571 74.416H236.827V75.914H239.571V74.416ZM236.827 77.846H239.571V76.32H236.827V77.846ZM234.573 70.874H232.235V72.484H234.573V70.874ZM240.607 79.652L241.377 78.686C241.377 78.686 242.287 79.358 242.819 79.834C242.777 79.988 242.637 80.058 242.455 80.058H236.827V82.312C236.827 82.382 236.449 82.634 235.861 82.634H235.665V80.058H229.869L229.757 79.652H235.665V78.238H232.935V78.63C232.935 78.742 232.459 78.994 231.997 78.994H231.815V73.534C231.661 73.576 231.493 73.618 231.325 73.618H231.171V69.978L232.291 70.468H234.433L234.979 69.866L236.197 70.79C236.113 70.888 235.889 71 235.623 71.042V73.044C235.609 73.142 235.091 73.366 234.741 73.366H234.573V72.89H232.235V73.282C232.235 73.324 232.081 73.436 231.857 73.506L233.033 74.01H239.431L240.005 73.38L241.265 74.332C241.167 74.444 240.971 74.556 240.705 74.612V78.448C240.691 78.546 240.131 78.812 239.739 78.812H239.571V78.238H236.827V79.652H240.607Z" fill="#525252"/>
<path d="M270 38L265 35.1132V40.8868L270 38ZM247.667 38V38.5H265.5V38V37.5H247.667V38Z" fill="#ACB18B"/>
<g clip-path="url(#clip3_963_845)">
<path d="M304.113 12C306.876 12 309.391 12.4551 311.324 13.1973C313.284 13.9494 314.544 14.9553 314.969 15.9824L315.151 16.4229L315.601 16.2617C316.63 15.8916 318.157 16.3342 319.9 17.6729C321.611 18.9859 323.399 21.0675 324.882 23.6611C326.264 26.0779 327.132 28.5059 327.463 30.5693C327.798 32.6609 327.565 34.268 326.896 35.1543L326.795 35.2881V35.6885L326.969 35.8379C327.804 36.557 328.187 38.12 327.911 40.3145C327.657 42.3333 326.858 44.7493 325.537 47.1807L325.266 47.667C323.885 50.0837 322.239 52.0566 320.636 53.377C319.01 54.7158 317.519 55.3128 316.43 55.1709L315.958 55.1094L315.873 55.5771C315.674 56.6684 314.527 57.7831 312.51 58.6377C310.53 59.4767 307.852 60 304.888 60C302.125 60 299.61 59.5449 297.677 58.8027C295.717 58.0506 294.457 57.0447 294.032 56.0176L293.85 55.5771L293.4 55.7383C292.371 56.1084 290.844 55.6658 289.101 54.3271C287.39 53.0141 285.601 50.9327 284.118 48.3389C282.736 45.9221 281.869 43.4941 281.538 41.4307C281.203 39.3391 281.436 37.732 282.104 36.8457L282.388 36.4707L282.031 36.165C281.196 35.4475 280.812 33.8855 281.088 31.6904C281.342 29.6713 282.142 27.2545 283.464 24.8203L283.735 24.333C285.116 21.9163 286.762 19.9434 288.365 18.623C289.991 17.2841 291.482 16.6872 292.571 16.8291L293.043 16.8906L293.128 16.4229C293.327 15.3316 294.474 14.2169 296.491 13.3623C298.471 12.5233 301.149 12 304.113 12Z" stroke="#979D6E"/>
<path d="M295.363 38.06C295.363 43.52 296.643 44.94 298.043 44.94C299.383 44.94 300.643 43.5 300.643 38.06C300.643 32.8 299.383 31.42 298.043 31.42C296.643 31.42 295.363 32.8 295.363 38.06ZM298.043 30.54C300.343 30.54 302.603 32.58 302.603 38.06C302.603 43.72 300.343 45.78 298.043 45.78C295.683 45.78 293.423 43.72 293.423 38.06C293.423 32.58 295.683 30.54 298.043 30.54ZM307.2 39.66H312.04V32.68L307.2 39.66ZM316.12 39.66V40.94H313.8V45.5H312.04V40.94H306.1V39.88L312.58 30.62H313.8V39.66H316.12Z" fill="#979D6E"/>
</g>
<path d="M280.294 69.824L280.42 69.726C283.556 70.174 282.478 72.554 281.316 71.686C281.26 71.028 280.784 70.244 280.294 69.824ZM285.992 72.386H277.004C277.046 73.338 276.682 73.968 276.234 74.248C275.842 74.528 275.24 74.472 275.044 74.052C274.918 73.674 275.156 73.324 275.52 73.128C276.052 72.834 276.612 72.078 276.542 71.238L276.78 71.224C276.864 71.49 276.934 71.742 276.962 71.98H285.95L286.636 71.294L287.868 72.47C287.77 72.568 287.616 72.596 287.322 72.61C286.888 73.114 286.132 73.772 285.516 74.164L285.362 74.052C285.572 73.618 285.824 72.932 285.992 72.386ZM277.452 74.276H283.346L284.046 73.436C284.046 73.436 284.844 74.024 285.334 74.472C285.32 74.626 285.166 74.696 284.97 74.696H277.564L277.452 74.276ZM287.504 79.148L287.532 81.08C287.882 81.206 287.98 81.346 287.98 81.57C287.98 82.046 287.49 82.256 285.194 82.256H283.668C282.436 82.256 282.184 82.018 282.184 81.192V77.02H280.336C280.056 79.512 279.44 81.486 275.044 82.662L274.904 82.466C278.376 81.01 278.922 79.134 279.076 77.02H275.646L275.534 76.614H285.404L286.146 75.732C286.146 75.732 286.972 76.348 287.504 76.796C287.462 76.95 287.322 77.02 287.126 77.02H283.304V77.16V80.94C283.304 81.164 283.36 81.22 283.878 81.22H285.264C285.838 81.22 286.328 81.22 286.538 81.206C286.692 81.192 286.748 81.15 286.818 81.01C286.944 80.758 287.126 80.016 287.322 79.148H287.504ZM299.124 70.202L299.236 70.062C302.358 70.174 301.896 72.274 300.818 71.77C300.524 71.196 299.754 70.538 299.124 70.202ZM303.1 79.106L302.848 81.262C303.296 81.864 303.338 82.13 303.198 82.284C302.806 82.76 301.84 82.34 301.182 81.85C300.356 81.276 299.684 80.548 299.152 79.694C298.074 80.856 296.674 81.864 294.896 82.55L294.77 82.368C296.422 81.486 297.724 80.268 298.704 78.896C297.864 77.23 297.444 75.2 297.248 72.96H292.852V75.242H295.036L295.624 74.64L296.772 75.578C296.674 75.69 296.506 75.76 296.226 75.788C296.142 78.644 295.946 79.89 295.414 80.352C295.092 80.646 294.644 80.758 294.112 80.758C294.112 80.478 294.07 80.198 293.902 80.03C293.762 79.876 293.384 79.75 293.006 79.68L293.02 79.456C293.384 79.484 294.042 79.54 294.294 79.54C294.49 79.54 294.602 79.512 294.7 79.414C294.952 79.176 295.106 78 295.162 75.648H292.852C292.852 77.832 292.642 80.758 290.388 82.69L290.206 82.55C291.592 80.492 291.732 77.93 291.732 75.578V72.036L293.048 72.554H297.22C297.15 71.644 297.122 70.706 297.122 69.74L298.76 69.922C298.732 70.104 298.606 70.272 298.256 70.314C298.242 71.07 298.256 71.812 298.312 72.554H301.14L301.868 71.63C301.868 71.63 302.722 72.288 303.226 72.736C303.184 72.89 303.044 72.96 302.862 72.96H298.34C298.466 74.724 298.774 76.404 299.39 77.804C300.034 76.656 300.496 75.438 300.776 74.22L302.442 74.752C302.386 74.934 302.26 75.018 301.882 75.004C301.448 76.306 300.804 77.622 299.908 78.812C300.384 79.61 301 80.268 301.77 80.758C302.022 80.954 302.12 80.954 302.26 80.702C302.442 80.352 302.75 79.638 302.946 79.064L303.1 79.106ZM307.804 69.824L307.944 69.726C310.912 70.384 309.904 72.652 308.812 71.854C308.742 71.14 308.252 70.314 307.804 69.824ZM310.142 75.886L310.786 75.074C310.786 75.074 311.514 75.634 311.962 76.068C311.92 76.222 311.78 76.292 311.598 76.292H306.53L306.418 75.886H310.142ZM310.142 74.08L310.786 73.282C310.786 73.282 311.514 73.842 311.962 74.262C311.92 74.416 311.78 74.486 311.598 74.486H306.53L306.418 74.08H310.142ZM307.734 80.828H310.394V78.154H307.734V80.828ZM310.254 77.734L310.814 77.146L312.032 78.056C311.934 78.168 311.724 78.28 311.444 78.336V81.654C311.43 81.738 310.912 81.976 310.562 81.976H310.394V81.248H307.734V82.088C307.734 82.2 307.286 82.438 306.866 82.438H306.712V77.272L307.804 77.734H310.254ZM310.772 72.288L311.444 71.434C311.444 71.434 312.228 72.036 312.69 72.47C312.662 72.624 312.508 72.694 312.326 72.694H305.83L305.718 72.288H310.772ZM316.666 71.084L317.408 70.104C317.408 70.104 318.262 70.776 318.766 71.266C318.724 71.42 318.584 71.49 318.388 71.49H316.246V81.01C316.246 81.836 316.036 82.466 314.524 82.592C314.496 82.242 314.412 81.934 314.202 81.766C313.95 81.57 313.586 81.43 312.858 81.332V81.15C312.858 81.15 314.454 81.262 314.79 81.262C315.056 81.262 315.14 81.164 315.14 80.954V71.49H312.172L312.06 71.084H316.666ZM324.436 71.028H322.826V73.1H324.436V71.028ZM322.826 75.62H324.436V73.506H322.826V75.62ZM322.826 78.224H324.436V76.04H322.826V78.224ZM322.826 78.63V79.162C322.826 79.19 322.798 79.232 322.728 79.274L324.016 79.834C323.946 79.974 323.834 80.044 323.498 80.016C323.036 80.856 322.238 81.948 321.23 82.62L321.076 82.438C321.79 81.598 322.35 80.296 322.602 79.344C322.462 79.4 322.252 79.456 322 79.456H321.832V70.132L322.98 70.622H324.38L324.912 69.978L326.046 70.874C325.934 70.986 325.766 71.07 325.486 71.112V78.98C325.486 79.05 325.094 79.302 324.604 79.302H324.436V78.63H322.826ZM323.834 79.358L324.002 79.288C326.746 80.562 325.738 82.578 324.8 81.766C324.758 80.982 324.268 79.974 323.834 79.358ZM330.176 79.47H331.772V78H330.176V79.47ZM327.628 78V79.47H329.182V78H327.628ZM329.182 76.194H327.628V77.608H329.182V76.194ZM331.772 76.194H330.176V77.608H331.772V76.194ZM328.748 73.184V74.374H330.568V73.184H328.748ZM328.748 71.672V72.778H330.568V71.672H328.748ZM332.794 79.428L333.312 78.7C333.312 78.7 333.928 79.274 334.278 79.666C334.25 79.82 334.124 79.89 333.928 79.89H332.794V81.234C332.794 82.018 332.626 82.48 331.296 82.606C331.268 82.298 331.184 82.046 331.03 81.878C330.834 81.71 330.526 81.598 329.924 81.514V81.29C329.924 81.29 331.198 81.388 331.464 81.388C331.702 81.388 331.772 81.304 331.772 81.108V79.89H327.628V82.284C327.628 82.396 327.222 82.634 326.802 82.634H326.648V79.89H325.696L325.584 79.47H326.648V75.298L327.698 75.788H329.182V74.794H325.794L325.682 74.374H327.74V73.184H326.242L326.13 72.778H327.74V71.672H326.018L325.906 71.266H327.74V69.81L329.196 69.964C329.168 70.132 329.056 70.258 328.748 70.314V71.266H330.568V69.81L332.01 69.964C331.982 70.146 331.87 70.258 331.576 70.314V71.266H332.08L332.696 70.454C332.696 70.454 333.41 71.042 333.844 71.448C333.816 71.602 333.676 71.672 333.494 71.672H331.576V72.778H332.052L332.584 72.092C332.584 72.092 333.214 72.582 333.592 72.96C333.55 73.114 333.424 73.184 333.228 73.184H331.576V74.374H332.346L332.948 73.59C332.948 73.59 333.676 74.15 334.082 74.57C334.054 74.724 333.914 74.794 333.732 74.794H330.176V75.788H331.632L332.136 75.186L333.368 76.096C333.284 76.208 333.06 76.32 332.794 76.376V79.428Z" fill="#525252"/>
<defs>
<clipPath id="clip0_963_845">
<rect width="48" height="49" fill="white" transform="translate(6.5 11.5)"/>
</clipPath>
<clipPath id="clip1_963_845">
<rect width="48" height="49" fill="white" transform="translate(97.8333 11.5)"/>
</clipPath>
<clipPath id="clip2_963_845">
<rect width="48" height="49" fill="white" transform="translate(189.167 11.5)"/>
</clipPath>
<clipPath id="clip3_963_845">
<rect width="48" height="49" fill="white" transform="translate(280.5 11.5)"/>
</clipPath>
</defs>
</svg>
