<svg width="35" height="24" viewBox="0 0 35 24" fill="none" xmlns="http://www.w3.org/2000/svg">
<mask id="path-1-inside-1_959_3884" fill="white">
<path d="M0 4C0 1.79086 1.79086 0 4 0H31C33.2091 0 35 1.79086 35 4V20C35 22.2091 33.2091 24 31 24H4C1.79086 24 0 22.2091 0 20V4Z"/>
</mask>
<path d="M0 4C0 1.79086 1.79086 0 4 0H31C33.2091 0 35 1.79086 35 4V20C35 22.2091 33.2091 24 31 24H4C1.79086 24 0 22.2091 0 20V4Z" fill="white"/>
<path d="M4 0V1H31V0V-1H4V0ZM35 4H34V20H35H36V4H35ZM31 24V23H4V24V25H31V24ZM0 20H1V4H0H-1V20H0ZM4 24V23C2.34315 23 1 21.6569 1 20H0H-1C-1 22.7614 1.23858 25 4 25V24ZM35 20H34C34 21.6569 32.6569 23 31 23V24V25C33.7614 25 36 22.7614 36 20H35ZM31 0V1C32.6569 1 34 2.34315 34 4H35H36C36 1.23858 33.7614 -1 31 -1V0ZM4 0V-1C1.23858 -1 -1 1.23858 -1 4H0H1C1 2.34315 2.34315 1 4 1V0Z" fill="#E4E4E7" mask="url(#path-1-inside-1_959_3884)"/>
<path d="M22.3182 12.2873C22.8319 12.2985 23.3485 12.2646 23.8601 12.3049C24.3782 12.4016 24.5031 13.186 24.0428 13.4428C23.7287 13.6121 23.3556 13.5059 23.0151 13.5357H22.3182V12.2873ZM24.1571 10.8743C24.2712 11.2771 23.8829 11.6388 23.4949 11.5834H22.3182C22.3264 11.2035 22.302 10.7911 22.3301 10.4313C22.8015 10.4445 23.2773 10.4042 23.746 10.4524C23.9473 10.503 24.1159 10.6685 24.1571 10.8743ZM26.989 4.90048C27.0109 5.66978 26.9922 6.47974 26.9985 7.26465C26.997 10.4558 27.0016 13.6469 26.996 16.8382C26.9753 18.0341 25.9154 19.0733 24.7277 19.0972C23.5389 19.102 22.3499 19.0979 21.1609 19.0993V14.2749C22.4564 14.2682 23.7525 14.2885 25.0474 14.2648C25.6482 14.2271 26.3062 13.8307 26.3341 13.1696C26.4049 12.5057 25.7789 12.0465 25.1846 11.974C24.9561 11.968 24.9628 11.9074 25.1846 11.8809C25.7514 11.7584 26.1965 11.1717 26.0298 10.5842C25.8877 9.96624 25.2046 9.72707 24.6365 9.72825C23.4782 9.72038 22.3196 9.72715 21.1612 9.72487C21.1686 8.82422 21.1456 7.92261 21.1736 7.02262C21.2654 5.84825 22.352 4.87978 23.523 4.90079C24.6785 4.90061 25.8338 4.90061 26.989 4.90057V4.90048Z" fill="url(#paint0_linear_959_3884)"/>
<path d="M8.07061 7.14447C8.10019 5.95041 9.16462 4.91973 10.3508 4.90228C11.5352 4.89863 12.7198 4.90175 13.9043 4.9007C13.901 8.89578 13.9107 12.8913 13.8994 16.8862C13.8538 18.0657 12.8009 19.0768 11.6277 19.0976C10.441 19.1019 9.25421 19.0983 8.06749 19.0994V14.1125C9.22019 14.3848 10.429 14.5007 11.6049 14.3201C12.3079 14.207 13.0769 13.8618 13.3149 13.1325C13.49 12.5087 13.3915 11.8522 13.4175 11.212V9.72509H11.3824C11.3733 10.7085 11.4011 11.6936 11.3677 12.6757C11.3128 13.2795 10.715 13.663 10.1456 13.6425C9.43945 13.65 8.04014 13.1308 8.04014 13.1308C8.03663 11.2884 8.06063 8.98097 8.07061 7.14465V7.14447Z" fill="url(#paint1_linear_959_3884)"/>
<path d="M14.6632 10.3246C14.5561 10.3473 14.6417 9.95972 14.6143 9.81268C14.6216 8.88298 14.599 7.95227 14.6267 7.02322C14.7183 5.84388 15.8132 4.87299 16.9889 4.9006H20.4513C20.4481 8.89568 20.4577 12.8912 20.4465 16.8861C20.4008 18.0656 19.3479 19.0766 18.1746 19.0975C16.9879 19.102 15.8011 19.0982 14.6143 19.0994V13.6355C15.4248 14.3005 16.5264 14.404 17.5362 14.4058C18.2974 14.4055 19.0542 14.2882 19.7935 14.1126V13.1116C18.9604 13.5268 17.981 13.7906 17.0575 13.552C16.4133 13.3917 15.9456 12.7691 15.956 12.1042C15.8814 11.4128 16.2867 10.6828 16.9661 10.4773C17.8097 10.2132 18.7291 10.4152 19.5198 10.7585C19.6893 10.8472 19.8612 10.9573 19.7935 10.6741V9.88728C18.471 9.57263 17.0636 9.45685 15.7349 9.79914C15.3503 9.90763 14.9756 10.0722 14.6632 10.3247V10.3246Z" fill="url(#paint2_linear_959_3884)"/>
<defs>
<linearGradient id="paint0_linear_959_3884" x1="21.1211" y1="11.6963" x2="26.9617" y2="11.6963" gradientUnits="userSpaceOnUse">
<stop stop-color="#58B03A"/>
<stop offset="1" stop-color="#55B330"/>
</linearGradient>
<linearGradient id="paint1_linear_959_3884" x1="7.9433" y1="12.136" x2="13.8086" y2="12.136" gradientUnits="userSpaceOnUse">
<stop stop-color="#0F6EB6"/>
<stop offset="1" stop-color="#006DBA"/>
</linearGradient>
<linearGradient id="paint2_linear_959_3884" x1="14.6057" y1="11.834" x2="20.4503" y2="11.834" gradientUnits="userSpaceOnUse">
<stop stop-color="#DE0D3D"/>
<stop offset="1" stop-color="#E30138"/>
</linearGradient>
</defs>
</svg>
