<svg width="35" height="24" viewBox="0 0 35 24" fill="none" xmlns="http://www.w3.org/2000/svg">
<mask id="path-1-inside-1_959_3885" fill="white">
<path d="M0 4C0 1.79086 1.79086 0 4 0H31C33.2091 0 35 1.79086 35 4V20C35 22.2091 33.2091 24 31 24H4C1.79086 24 0 22.2091 0 20V4Z"/>
</mask>
<path d="M0 4C0 1.79086 1.79086 0 4 0H31C33.2091 0 35 1.79086 35 4V20C35 22.2091 33.2091 24 31 24H4C1.79086 24 0 22.2091 0 20V4Z" fill="white"/>
<path d="M4 0V1H31V0V-1H4V0ZM35 4H34V20H35H36V4H35ZM31 24V23H4V24V25H31V24ZM0 20H1V4H0H-1V20H0ZM4 24V23C2.34315 23 1 21.6569 1 20H0H-1C-1 22.7614 1.23858 25 4 25V24ZM35 20H34C34 21.6569 32.6569 23 31 23V24V25C33.7614 25 36 22.7614 36 20H35ZM31 0V1C32.6569 1 34 2.34315 34 4H35H36C36 1.23858 33.7614 -1 31 -1V0ZM4 0V-1C1.23858 -1 -1 1.23858 -1 4H0H1C1 2.34315 2.34315 1 4 1V0Z" fill="#E4E4E7" mask="url(#path-1-inside-1_959_3885)"/>
<path d="M22.1758 5C25.9444 5 29 8.09091 29 11.9033C28.9998 15.7156 25.9443 18.8057 22.1758 18.8057C20.4864 18.8056 18.9416 18.1832 17.75 17.1543C16.5584 18.1832 15.0137 18.8056 13.3242 18.8057C9.55566 18.8057 6.50018 15.7156 6.5 11.9033C6.5 8.09091 9.55555 5 13.3242 5C15.0134 5.00011 16.5584 5.62186 17.75 6.65039C18.9416 5.62185 20.4866 5.00011 22.1758 5Z" fill="#ED0006"/>
<path d="M22.1758 5C25.9444 5 29 8.09091 29 11.9033C28.9998 15.7156 25.9443 18.8057 22.1758 18.8057C20.4863 18.8056 18.9416 18.1832 17.75 17.1543C19.2164 15.8882 20.1474 14.0064 20.1475 11.9033C20.1475 9.79982 19.2168 7.91652 17.75 6.65039C18.9416 5.62185 20.4866 5.00011 22.1758 5Z" fill="#F9A000"/>
<path d="M17.75 6.651C19.2166 7.91712 20.1475 9.79961 20.1475 11.903C20.1475 14.0061 19.2163 15.8878 17.75 17.1539C16.2837 15.8878 15.3525 14.006 15.3525 11.903C15.3525 9.79964 16.2834 7.91712 17.75 6.651Z" fill="#FF5E00"/>
</svg>
