<svg width="32" height="32" viewBox="0 0 32 32" fill="none" xmlns="http://www.w3.org/2000/svg">
<path d="M31.1969 15.6447C32.2562 14.27 31.7532 10.9935 29.8776 7.78019C27.8656 4.33287 24.9989 2.19912 23.2874 2.80213C22.6139 1.20814 19.4936 0 15.7424 0C11.7184 0 8.41906 1.38947 8.09083 3.15636C6.35803 2.93497 3.74072 5.00547 1.86726 8.21875C-0.146875 11.6703 -0.57954 15.1914 0.803711 16.3553C-0.255574 17.73 0.247427 21.0065 2.12302 24.2198C4.13502 27.6671 7.0017 29.8009 8.71318 29.1979C9.38669 30.7919 12.507 32 16.2582 32C20.2822 32 23.5815 30.6105 23.9098 28.8436C25.6426 29.065 28.2599 26.9945 30.1333 23.7812C32.1453 20.3339 32.5801 16.8128 31.1969 15.6468V15.6447Z" fill="#F2F3EF"/>
</svg>
