<svg width="64" height="65" viewBox="0 0 64 65" fill="none" xmlns="http://www.w3.org/2000/svg">
<g clip-path="url(#clip0_771_3400)">
<path d="M62.3938 31.7784C64.5123 28.986 63.5063 22.3305 59.7551 15.8035C55.7311 8.80115 49.9978 4.46696 46.5748 5.69184C45.2278 2.45404 38.9872 0 31.4848 0C23.4368 0 16.8381 2.82236 16.1817 6.41135C12.7161 5.96165 7.48145 10.1674 3.73452 16.6943C-0.293749 23.7053 -1.15908 30.8575 1.60742 33.2217C-0.511148 36.014 0.494853 42.6695 4.24604 49.1965C8.27005 56.1989 14.0034 60.533 17.4264 59.3082C18.7734 62.546 25.014 65 32.5164 65C40.5644 65 47.1631 62.1776 47.8195 58.5887C51.2851 59.0383 56.5197 54.8326 60.2667 48.3057C64.2907 41.3033 65.1603 34.151 62.3938 31.7826V31.7784Z" fill="#979D6E"/>
</g>
<defs>
<clipPath id="clip0_771_3400">
<rect width="64" height="65" fill="white"/>
</clipPath>
</defs>
</svg>
