<svg width="146" height="117" viewBox="0 0 146 117" fill="none" xmlns="http://www.w3.org/2000/svg">
<g clip-path="url(#clip0_223_2824)">
<path d="M114.618 67.7822C112.273 66.5775 110.062 65.6532 107.583 64.7444C106.191 64.2355 103.552 63.1606 102.248 62.875C101.532 62.7192 100.264 62.9685 100.656 63.8461C100.733 64.0226 102.171 65.4039 102.449 65.6584C104.954 67.964 107.691 69.1687 110.206 71.1264C112.005 72.5285 112.835 73.619 111.474 75.8571C108.691 80.4424 102.006 77.28 98.9396 74.6887C98.2902 74.1435 97.3419 72.6428 96.5585 73.1101C95.8782 73.5151 96.7492 76.3193 96.9863 76.9788C97.7387 79.0871 99.6869 80.8267 100.321 82.8C101.017 84.9602 99.3004 85.9936 97.3316 85.7703C92.6621 85.2406 91.1675 79.6323 90.0955 75.8156C89.209 75.6183 87.4155 74.481 86.5908 74.7978C84.9828 75.4157 86.2197 77.6954 86.4414 78.8534C89.6471 95.6055 60.3368 105.659 49.4621 96.4208C46.5192 93.923 45.8955 90.3971 44.4988 86.9698C42.8599 86.7777 41.2313 87.1308 39.5923 87.0373C27.2435 86.3259 23.61 69.9321 28.6763 60.4759C31.7274 54.7742 42.3239 46.7305 48.5601 45.4582C51.0701 44.9441 53.2141 45.6971 55.4664 45.479C57.0538 45.3284 56.6054 44.2898 56.9868 43.1266C59.038 36.9212 68.2481 33.8314 74.1338 34.8077C76.7726 35.2491 78.9837 36.4746 81.3287 37.0043C83.1686 37.4249 83.5706 36.5629 85.2457 36.1007C90.1109 34.7609 96.7853 36.0436 100.651 39.2787C104.727 38.9256 112.541 37.6118 115.685 40.9924C116.88 42.275 117.54 45.0532 116.216 46.4708C115.061 47.7119 113.505 47.5665 112.087 47.93C111.355 48.1169 105.619 49.5554 105.825 50.3654C107.557 51.5338 109.763 51.4715 111.711 51.9389C118.066 53.4604 130.445 57.3187 124.013 66.24C122.787 67.938 119.947 69.984 117.782 69.5063C116.849 69.2986 115.489 68.2184 114.618 67.7667V67.7822ZM64.0167 40.5146C62.1355 41.2572 60.3626 43.2097 59.4606 44.9649L59.708 45.2297C63.2694 43.0539 66.738 41.6778 70.9436 41.4909C73.3814 41.3818 75.5305 41.5324 77.7055 42.6593C81.6276 44.6897 84.8024 48.0235 87.7865 51.2223C88.7967 51.7831 89.3636 50.838 88.9513 49.8669C88.003 47.6392 83.0346 43.3343 80.9267 41.953C75.747 38.5569 69.7736 38.235 64.0167 40.5094V40.5146ZM49.1013 49.7838C40.6849 52.7074 26.3571 64.7548 32.918 74.7614C39.0512 84.1189 55.8271 75.2496 60.9553 68.2963C64.63 63.3164 66.7328 55.013 60.6976 50.8743C58.9195 49.654 57.9454 50.2772 56.4147 49.6333C55.889 49.4152 55.3324 48.7037 54.8273 48.6051C53.7192 48.3922 50.2609 49.3788 49.1064 49.7787L49.1013 49.7838ZM100.207 46.1956C101.269 46.6629 102.346 45.5569 101.48 44.3106C100.573 42.9968 96.9553 41.1222 95.4092 40.6029C93.7135 40.0317 92.1674 39.9071 90.3841 39.9798C89.5286 40.0109 85.6683 40.0109 86.4568 41.4493C87.3536 43.0903 89.0132 42.2958 90.482 42.2698C92.8734 42.2283 95.3576 42.7839 97.4037 44.0561C98.1923 44.5495 99.5478 45.9048 100.213 46.1956H100.207ZM64.9496 47.1251C64.8156 47.2082 64.7331 47.3432 64.6815 47.4938C64.7949 48.4493 65.5938 48.7141 66.47 48.631C68.8871 48.4077 71.0673 48.065 73.5154 48.631C74.6698 48.9011 78.4064 50.9055 79.128 50.5991C80.535 49.9916 78.2466 48.4337 77.6849 48.0702C74.7368 46.154 71.3765 45.7542 67.9388 46.3046C67.3771 46.3929 65.3567 46.881 64.9599 47.1251H64.9496ZM94.9969 48.0183C94.8474 48.2831 94.935 49.2023 95.0226 49.5242C95.2906 50.4953 96.4348 52.8269 96.9553 53.772C99.9085 59.1102 105.258 58.539 110.283 60.2422C111.891 60.7875 113.86 61.717 115.437 62.4284C116.473 62.8958 118.375 64.4952 119.225 63.2074C120.132 61.8312 117.138 60.7407 116.164 60.2682C111.933 58.2118 108.464 57.6977 104.135 56.4411C99.6148 55.1273 98.7128 51.6896 96.5946 47.9144C96.2544 47.4419 95.2597 47.5613 94.9969 48.0131V48.0183ZM96.543 65.7882C95.8988 65.3987 94.4454 65.3987 93.6672 65.1079C91.9561 64.4692 90.4305 61.9247 89.1162 60.533C85.5755 56.789 81.3442 54.0835 76.015 54.3276C74.9842 54.3743 69.9025 55.1688 69.5984 55.927L69.3974 61.7274L69.619 62.3505C74.5461 65.9855 80.8751 71.4951 87.3484 71.2095C89.8429 71.1005 94.8525 69.9996 96.5533 68.0886C97.1924 67.372 97.5171 66.375 96.543 65.783V65.7882ZM49.8331 85.251C49.2198 86.2947 51.4721 88.9794 52.3328 89.613C57.4403 93.3726 66.3514 91.6641 71.562 88.9223C79.8804 84.5396 85.7456 74.6368 74.4688 69.3141C72.6959 68.4781 69.5778 67.9692 67.7327 68.7533C67.0833 69.0285 66.7637 70.7318 66.4339 71.4796C63.9188 77.1242 59.1875 81.1538 53.6316 83.6516C52.9564 83.958 50.0702 84.8511 49.8331 85.251Z" fill="#C1C4A8"/>
<path d="M57.4867 30.0043L62.1304 28.6957C68.2171 27.2521 74.4173 26.3693 80.6071 25.5125C82.5605 25.2425 84.5705 24.5258 86.5754 25.3775C87.936 25.9539 88.4102 27.3248 87.0598 28.2387C85.7095 29.1527 84.7767 28.8048 83.3232 29.0384C63.7745 32.1489 46.1842 36.9887 29.2742 47.6756C16.9821 55.444 1.01013 70.9914 6.44235 87.1931C9.89547 97.4957 22.672 101.837 32.2171 103.691C46.514 106.464 57.6774 106.23 71.964 102.959C91.2345 98.5499 110.928 91.4097 126.24 78.5211C133.842 72.1235 139.954 64.0901 139.723 53.7096C139.439 41.0651 122.689 32.2061 112.128 29.5214C110.752 29.1734 108.098 29.3864 108.021 27.3975C107.959 25.7721 110.309 25.4606 111.5 25.4761C116.88 25.5592 129.636 31.5622 134.069 34.8285C141.042 39.9642 146.433 49.0672 145.959 57.9885C145.67 63.441 145.309 66.7956 142.671 71.6925C126.467 101.78 88.3225 117.187 55.5952 117C41.3446 116.917 21.935 111.921 10.5191 103.109C0.891592 95.6626 -2.60791 82.0678 2.03061 70.8045C10.4882 50.2668 37.3143 36.1267 57.4867 30.0043ZM59.4916 112.68C59.7699 112.197 59.3988 111.335 58.8628 111.085C58.1876 110.769 54.013 111.039 52.8791 111.023C49.3384 110.961 45.9007 110.81 42.3857 110.332C40.2829 110.042 36.4484 108.951 34.5312 109.06C32.7221 109.164 32.9695 110.743 34.3302 111.2C41.4271 112.337 48.7199 113.661 55.9405 113.277C56.6105 113.24 59.2081 113.168 59.4864 112.685L59.4916 112.68Z" fill="#C1C4A8"/>
<path d="M100.733 20.2469C100.96 20.1639 100.908 19.9561 100.924 19.7796C101.022 18.7306 100.852 17.6038 100.996 16.4665C101.929 9.20176 109.015 3.09497 115.406 0.457009C117.298 -0.321918 119.591 -0.32711 119.349 2.36278C119.256 3.38058 118.638 3.67138 118.2 4.40357C116.607 7.06231 117.045 10.6038 115.566 13.7143C113.082 18.9383 108.593 21.0726 105.186 25.2321C104.496 26.0785 104.176 27.2417 103.027 27.6571C103.027 27.9324 103.346 27.6467 103.403 27.8077C103.511 28.1297 103.356 30.5028 103.222 30.9286C102.877 32.0399 101.578 33.5977 100.46 32.4657C99.0942 31.0844 100.238 28.9086 99.3416 27.9324C98.6974 27.2261 96.0586 26.738 94.9917 26.3537C92.1313 25.3255 90.0955 24.0637 87.9412 21.8931C86.3228 20.2625 82.2873 13.9272 81.4369 11.7774C81.1225 10.9777 81.0555 9.9703 80.7257 9.21214C80.2412 8.10607 79.2671 7.83085 79.6846 6.2678C79.9371 5.3279 80.3288 4.90208 81.3545 4.98517C82.1482 5.05268 84.7509 6.07047 85.6631 6.40801C88.7091 7.54524 92.9404 9.29523 95.2906 11.5178C97.8521 13.9428 99.3313 17.0533 100.733 20.2469ZM88.6678 14.1921C88.5029 14.2959 88.472 14.4413 88.5081 14.6283C88.6112 15.1943 91.2654 17.0741 91.8942 17.6713C93.2239 18.928 94.2444 20.6728 95.4246 21.7944C95.8833 22.2306 96.4193 22.376 96.2029 21.5763C95.7287 19.8107 91.7808 15.3605 90.1728 14.4206C89.678 14.1298 89.2451 13.8909 88.673 14.1921H88.6678ZM104.985 19.7536L105.485 19.468C106.145 18.1386 106.619 16.6743 107.304 15.3657C107.696 14.6179 109.799 11.767 109.737 11.3516C109.536 10.0118 107.722 12.1721 107.407 12.5875C106.042 14.3842 104.609 17.4843 104.985 19.7588V19.7536Z" fill="#C1C4A8"/>
<path d="M19.5024 69.2259C19.8374 69.418 20.0848 69.9425 20.1054 70.3319C20.1311 70.9759 18.2397 74.5174 17.7397 75.0315C16.6677 76.1375 15.1473 75.5144 15.2504 73.9721C15.9256 72.9907 17.1161 69.7711 18.0593 69.2778C18.4252 69.0857 19.1571 69.0233 19.5075 69.2259H19.5024Z" fill="#C1C4A8"/>
<path d="M18.4664 89.7895C19.6673 89.0573 22.2752 90.1063 23.2802 90.906C24.6511 91.9913 24.146 93.653 22.4349 93.7257C21.9041 93.7465 18.5747 91.768 18.3015 91.3214C18.0283 90.8748 17.9562 90.1011 18.4613 89.7947L18.4664 89.7895Z" fill="#C1C4A8"/>
<path d="M55.5076 19.5615C55.8735 19.3694 56.1827 19.3174 56.5951 19.3642C56.9301 19.4005 60.1049 20.6676 60.4605 20.8857C62.1458 21.9242 60.5636 23.5081 58.9401 23.0926C58.368 22.9472 55.2087 21.3946 54.9922 21.0259C54.7087 20.5429 55.0437 19.8107 55.5076 19.5667V19.5615Z" fill="#C1C4A8"/>
<path d="M126.838 45.3232C127.951 44.9597 130.976 47.4678 131.296 48.4129C131.584 49.2594 131.074 49.976 130.203 50.0954C129.121 50.2408 128.492 48.979 127.838 48.3922C127.322 47.9352 126.147 47.3796 126.018 46.7512C125.905 46.1956 126.302 45.4998 126.833 45.3284L126.838 45.3232Z" fill="#C1C4A8"/>
<path d="M43.1897 24.5207C43.5144 24.3597 43.6381 24.396 43.968 24.4064C44.6225 24.4324 47.6376 25.2944 48.0911 25.6994C49.06 26.5666 48.5034 27.7454 47.1686 27.7558C46.7511 27.7558 43.0248 26.7068 42.7671 26.4991C42.0765 25.9331 42.4579 24.879 43.1846 24.5207H43.1897Z" fill="#C1C4A8"/>
<path d="M42.762 62.6154C43.9268 62.0909 46.0862 61.904 45.4678 63.8045C45.174 64.7029 42.3703 66.697 41.3549 66.3075C39.4428 65.5805 41.6951 63.0983 42.762 62.6154Z" fill="#C1C4A8"/>
<path d="M49.7197 62.5323C50.6938 62.0442 54.0181 61.5093 53.7501 63.3268C53.4821 65.1443 49.0755 65.1858 48.8797 63.9915C48.7817 63.3995 49.2147 62.7867 49.7197 62.5323Z" fill="#C1C4A8"/>
<path d="M47.014 68.8987C46.5913 69.7036 45.0915 71.007 44.1226 70.6331C42.3187 69.9373 44.6792 67.1799 45.7873 66.8216C47.1376 66.3854 47.5603 67.8549 47.014 68.8987Z" fill="#C1C4A8"/>
<path d="M48.4519 57.1473C51.101 55.8127 50.7299 59.8632 48.8436 60.8654C46.6583 62.0286 46.581 58.0924 48.4519 57.1473Z" fill="#C1C4A8"/>
<path d="M67.4131 77.28C68.5161 76.9632 71.7939 77.1761 70.825 79.0663C70.0571 80.567 66.238 80.136 66.2586 78.4847C66.2638 77.9031 66.9029 77.4254 67.4131 77.28Z" fill="#C1C4A8"/>
<path d="M62.8725 82.0522C65.0939 80.889 66.0576 85.7028 63.2488 85.9988C61.5428 86.1805 61.6562 82.6857 62.8725 82.0522Z" fill="#C1C4A8"/>
<path d="M71.9073 60.4603C72.5619 60.1072 75.6027 61.1977 76.3758 61.5249C80.4164 63.2333 83.4006 66.0946 87.7556 67.1539C88.7297 67.3928 89.7553 67.4187 90.683 67.6368C91.8736 67.9173 90.5387 68.3846 89.9306 68.4989C85.1271 69.4232 80.4319 66.8891 76.4995 64.4381C75.8037 64.0071 71.9022 61.4054 71.6703 61.0004C71.5723 60.8186 71.763 60.5382 71.9022 60.4655L71.9073 60.4603Z" fill="#C1C4A8"/>
<path d="M90.0594 65.0248C89.6935 65.1858 89.4255 65.1651 89.0492 65.1079C88.3689 65.0041 86.4671 64.0746 85.7404 63.7318C82.21 62.0753 79.097 59.4166 75.211 58.6325C74.4585 58.4819 73.0464 58.5234 72.4537 58.3001C71.0569 57.786 73.4896 57.1837 73.9019 57.111C79.1744 56.1659 84.8746 59.5672 88.539 63.0879C88.8379 63.3787 90.2553 64.6717 90.0594 65.0197V65.0248Z" fill="#C1C4A8"/>
</g>
<defs>
<clipPath id="clip0_223_2824">
<rect width="146" height="117" fill="white"/>
</clipPath>
</defs>
</svg>
