<svg width="280" height="153" viewBox="0 0 280 153" fill="none" xmlns="http://www.w3.org/2000/svg">
<g clip-path="url(#clip0_224_2842)">
<path d="M69.3111 137.887C68.619 136.295 67.5996 134.831 67.0152 133.185C66.5925 131.996 65.8963 129.376 65.7637 128.162C65.0509 121.577 65.8383 112.646 65.7761 105.765C65.7181 99.3835 65.5151 92.8976 65.5648 86.5365C65.6187 79.6931 64.8064 71.3238 68.5983 65.3119C70.5212 62.2644 73.7288 60.8591 73.2729 56.61C73.0823 54.8513 71.2381 54.8264 70.9729 52.6395C70.7947 51.1428 70.7947 46.8105 70.9978 45.3304C71.578 41.0481 78.7639 40.7903 82.1414 40.3995C90.5333 39.4183 103.442 39.1564 111.698 40.8776C114.23 41.4056 116.712 42.0459 117.197 44.9313C117.454 46.4405 117.458 50.8268 117.292 52.4316C117.114 54.1861 115.809 54.1903 115.502 55.6579C114.569 60.119 117.673 61.2291 119.671 64.4721C123.28 70.3384 121.619 74.5459 122.311 80.6535C122.344 80.9653 122.568 81.9049 122.916 82.0296C123.939 79.9093 126.09 77.9967 125.282 75.3691C125.079 74.7081 124.379 74.2175 124.126 73.6022C123.334 71.698 124.209 70.6918 124.375 68.9539C124.59 66.6922 123.79 62.8215 124.864 60.8674C126.069 58.6722 129.294 58.3687 131.602 58.0028C139.749 56.6973 149.041 56.8054 157.2 58.0028C158.928 58.2564 160.843 58.5599 162.451 59.2127C162.882 59.1711 163.127 56.5767 163.272 56.082C164.718 51.1968 168.808 46.9394 169.028 41.7715C169.053 41.1645 169.094 40.2956 168.966 39.7218C168.717 38.62 166.902 38.6782 166.711 36.5454C166.574 34.978 167.246 34.0799 167.474 32.7329C168.071 29.2238 166.065 25.4945 170.897 24.189C172.422 23.7774 175.223 23.4489 176.869 23.2743C183.615 22.5634 191.468 22.5342 198.228 23.1454C200.54 23.3575 207.079 24.0476 208.874 25.0163C211.899 26.642 210.32 30.2674 210.751 32.9657C210.855 33.6184 211.41 33.9469 211.53 34.4832C211.796 35.664 211.696 37.8259 210.946 38.8321C209.744 40.4411 208.803 39.5264 209.073 42.391C209.454 46.4654 211.994 49.513 213.457 53.0553C217.345 62.4847 215.977 73.1448 215.944 83.1771C215.936 85.5844 215.965 87.9958 215.952 90.4031C216.433 90.5236 216.296 90.3116 216.429 90.1411C216.893 89.5466 217.287 88.7566 217.742 88.1247C218.198 87.4927 219.425 86.3826 219.495 85.68C219.64 84.2789 218.008 83.8922 217.834 82.9734C217.572 81.5972 217.751 75.8764 218.182 74.5459C218.754 72.7914 220.1 72.2301 221.737 71.6273C226.652 69.8146 237.34 69.6649 242.765 69.8936C246.329 70.0474 258.264 71.0743 260.56 73.5938C261.007 74.0844 261.351 74.9908 261.426 75.656C261.608 77.344 261.608 81.2937 261.426 82.9817C261.26 84.5034 259.706 84.0752 259.764 85.468C259.851 87.4137 262.358 89.6297 263.336 91.3094C264.737 93.7167 265.433 96.0449 265.52 98.843C265.786 107.607 266.204 118.679 265.384 127.327C265.011 131.26 264.169 134.657 261.84 137.891C263.958 138.128 266.076 138.091 268.21 138.112C271.082 138.137 274.281 137.791 277.174 138.103C279.047 138.303 279.577 139.218 279.751 140.955C279.963 143.067 280.187 148.111 279.685 150.04C279.32 151.453 278.587 152.156 277.203 152.572C274.037 153.52 267.414 152.617 263.854 152.617C248.48 152.617 233.125 152.846 217.771 152.8C196.798 152.738 175.783 152.692 154.917 152.738C112.166 152.838 68.6687 152.663 25.8099 152.755C19.9086 152.767 13.8871 152.904 8.03558 152.667C4.45089 152.522 0.484928 153.1 0.0415029 148.456C-0.0911101 147.071 0.0207821 144.477 0.116098 143.055C0.269432 140.756 0.352315 138.852 2.90926 138.161C5.28386 137.521 9.10892 138.24 11.6037 138.116L24.0237 138.103C24.1273 137.534 23.63 137.7 23.3482 137.218C21.8108 134.607 21.6326 131.355 21.5124 128.383C21.0151 115.798 21.6533 102.976 21.7486 90.507C21.8315 79.5808 21.0524 67.1495 22.3827 56.2192C23.5886 46.3282 29.3366 38.9277 31.8479 29.519C32.8218 25.8687 33.3688 22.6839 33.402 18.9629C33.4144 17.7073 33.6175 15.7282 33.402 14.5641C33.2279 13.612 31.0522 12.9219 30.7414 11.3752C30.4306 9.8286 30.2027 4.66069 30.6254 3.19306C30.7207 2.85629 31.5578 1.54664 31.8023 1.34292C33.2362 0.162159 39.842 0.0665336 41.8892 0.0291151C44.6782 -0.0207762 49.1498 -0.103928 51.8393 0.69849C53.3519 1.15167 54.0482 2.47795 54.2305 3.94558C54.4128 5.41322 54.6615 11.2256 53.9653 12.3523C53.3851 13.2919 52.0714 13.7076 52.03 15.1794C51.8642 20.7881 52.5065 27.8726 54.2305 33.2359C57.0237 41.9212 63.0866 48.2283 63.675 57.8656C64.7069 74.7538 62.7343 92.5775 63.8905 109.528C62.8918 117.768 64.9224 127.481 62.9084 135.551C62.726 136.274 62.5893 137.056 62.0091 137.575C62.1541 137.779 62.2785 137.846 62.5271 137.887C64.7525 138.265 67.0484 137.721 69.307 137.887H69.3111ZM50.6914 11.0551C51.0064 10.7183 51.1721 9.44194 50.6127 9.25069C50.0532 9.05944 47.7035 9.60825 46.8995 9.64982C44.6575 9.76208 42.4238 9.28395 40.2067 9.21743C39.5436 9.19664 38.922 9.52093 38.1263 9.44194C35.8512 9.21327 35.0389 7.00558 37.9232 6.71871C39.8876 6.5233 42.7388 6.74365 44.8108 6.77276C46.2033 6.79354 49.0047 7.23009 50.1858 6.88085C50.8945 6.67297 50.9318 5.10555 50.6458 4.61911C50.1568 3.79175 44.9062 4.38213 43.7499 4.21167C40.9982 4.26156 37.4798 3.86659 34.7778 4.19088C34.5913 4.21167 34.438 4.20335 34.264 4.30314C33.5802 4.71058 33.6465 9.54588 34.3634 10.2776C36.0128 11.9615 40.704 11.475 42.9294 11.5083C44.9973 11.5374 47.517 11.8326 49.5891 11.5083C49.8294 11.4709 50.5505 11.2006 50.6955 11.0468L50.6914 11.0551ZM36.9784 14.8718C36.8996 16.539 37.2353 18.123 37.198 19.7985C37.0157 27.5982 34.2308 37.1067 30.6917 43.817C29.9499 45.2223 28.9843 46.7149 28.3129 48.1285C24.7407 55.6496 25.4286 64.1602 25.2753 72.28C24.9355 90.744 24.376 110.397 25.3043 128.782C25.4742 132.108 25.0598 135.7 28.6528 137.554C33.3522 139.978 44.2099 139.712 49.5932 139.351C51.0478 139.255 55.8882 138.49 56.9905 137.775C60.0655 135.779 60.0158 131.268 60.1401 127.963C60.9731 105.936 59.6469 83.252 59.9287 61.2042C60.7078 51.9618 54.4294 45.7794 51.5741 37.7844C49.013 30.6166 48.7229 22.6382 48.5654 15.0672L36.9742 14.8718H36.9784ZM172.571 27.012C172.84 27.4693 173.74 27.619 174.233 27.7479C180.963 29.4858 189.765 29.0575 196.665 28.8704C198.659 28.8164 200.353 28.937 202.45 28.6251C203.482 28.4713 204.85 28.2343 205.741 27.7396C205.903 27.0536 202.633 26.7043 202.057 26.6253C194.224 25.5943 184.299 25.5901 176.433 26.3842C175.14 26.5131 173.847 26.7958 172.571 27.012ZM208.033 35.585C206.023 35.6681 204.083 36.2294 202.086 36.4207C200.088 36.6119 198.024 36.5579 196.039 36.6327C194.925 36.6743 190.731 37.4892 190.399 36.0257C190.283 35.506 190.863 34.4209 191.493 34.3751C194.465 34.2712 197.461 34.2171 200.416 33.9095C201.667 33.7806 206.968 33.2858 207.519 32.2423C207.813 31.6851 207.481 31.0615 206.872 30.9825C202.857 31.4565 198.82 31.5313 194.78 31.602C188.174 31.7184 181.166 31.76 174.602 30.5169C173.831 30.3713 171.701 29.5107 171.203 29.5232C170.213 29.5481 170.424 31.9887 171.042 32.2048C172.919 32.3421 174.66 33.107 176.491 33.4313C179.637 33.9926 182.873 33.9053 186.011 34.3419C188.257 34.6537 187.154 36.8655 185.401 36.8572C181.949 36.4248 178.431 36.3084 174.995 35.7679C174.204 35.6432 170.648 34.5664 170.292 34.978C170.292 35.4228 170.172 36.1005 170.304 36.4997C170.474 37.011 173.715 37.6929 174.403 37.8259C181.448 39.173 200.573 40.0544 206.839 37.2148C207.577 36.878 208.169 36.5204 208.033 35.5891V35.585ZM172.712 40.6282C172.024 40.836 172.078 43.7131 171.883 44.6236C170.835 49.488 167.383 53.3297 166.409 58.3811C165.957 60.7344 165.721 66.95 165.882 69.3822C166.003 71.2032 167.598 72.3341 166.28 74.5709C165.572 75.7724 164.171 75.4814 164.693 77.4812C165.277 79.718 168.203 82.8196 169.446 84.8485C172.807 90.3282 172.14 93.9329 172.14 99.924C172.14 109.121 172.604 119.045 171.941 128.158C171.771 130.491 170.279 133.339 172.99 134.644C180.308 138.166 197.879 137.667 205.517 135.06C208.306 134.108 209.752 132.57 210.685 129.784C212.193 125.29 211.974 120.433 212.069 115.785C212.322 103.89 212.144 91.9497 212.189 80.034C212.214 72.9951 213.238 63.0792 210.954 56.3938C209.607 52.4441 206.495 49.172 205.961 44.6652C205.803 43.3306 206.387 41.8339 205.099 40.915C200.13 41.8671 195.049 42.2205 189.993 42.154C185.816 42.1 180.764 41.8962 176.628 41.4472C175.737 41.3516 173.416 40.412 172.704 40.6282H172.712ZM76.6131 45.4177C82.9744 46.9602 89.576 47.4716 96.1279 47.3136C99.9986 47.2221 104.781 46.9976 108.61 46.4405C109.149 46.3615 112.278 45.7878 112.282 45.3138C111.391 44.2203 109.754 43.9584 108.424 43.7464C101.466 42.6446 83.8695 42.0916 77.6036 44.6319C77.4088 44.7109 76.2567 45.0394 76.6131 45.4136V45.4177ZM113.923 48.5858C112.812 48.0287 111.577 48.7438 110.454 48.9184C101.437 50.3112 91.8595 50.6272 82.792 49.5753C79.9533 49.2469 77.0358 48.7854 74.3172 47.9289C74.3255 48.8228 73.9899 51.7082 74.8808 52.0699C82.8418 53.9866 91.2544 54.3607 99.4267 53.9658C103.343 53.7787 108.78 53.2881 112.448 51.9618C114.569 51.1926 113.915 50.7062 113.923 48.5858ZM112.025 57.084C112.336 56.822 112.472 55.3877 111.954 55.2629C111.366 55.3794 110.831 55.7078 110.243 55.8201C101.18 57.533 91.5072 57.1256 82.3528 56.7098L76.6131 55.6662C76.5012 56.8927 77.243 57.3126 78.2252 57.7076C85.1335 60.5015 102.311 59.7324 109.576 57.8615C109.916 57.7741 111.93 57.163 112.025 57.0798V57.084ZM76.6131 59.8529C75.863 63.8775 72.1374 66.0894 70.5253 69.7564C69.4893 72.1096 69.0417 75.5812 68.8967 78.1631C68.2585 89.5383 68.9588 102.069 69.1122 113.528C69.1702 117.756 68.8221 122.238 69.0956 126.495C69.8125 137.675 77.5911 139.022 87.1103 139.687C95.9663 140.307 116.538 141.321 118.461 129.589C118.527 122.022 118.635 114.397 118.552 106.809C118.498 101.749 117.794 96.6478 118.361 91.5755C118.523 90.1328 119.062 88.5779 119.165 87.1518C119.31 85.1312 118.817 83.0898 118.763 81.0817C118.651 76.9823 119.256 73.3236 117.748 69.3323C116.716 66.6049 114.424 64.7589 112.825 62.3475C112.514 61.8819 111.888 60.2022 111.519 60.0858C108.361 60.7884 105.187 61.4079 101.959 61.7363C97.7649 62.1646 92.8209 62.3849 88.6021 62.1646C84.5119 61.9525 80.5708 60.7967 76.6172 59.8529H76.6131ZM161.303 62.7799C161.382 62.335 161.104 62.281 160.781 62.1563C159.567 61.6906 156.334 61.2956 154.917 61.1335C148.506 60.4059 136.227 59.8571 130.222 61.8403C129.841 61.965 128.979 62.1272 128.97 62.676C130.81 63.3828 132.783 63.7278 134.735 64.0106C140.209 64.8088 146.492 64.9128 152.02 64.4554C153.297 64.3515 160.798 63.4285 161.303 62.7799ZM127.561 72.359C128.32 72.754 129.132 73.0076 129.969 73.1864C137.847 74.8993 149.878 75.444 157.839 74.2632C158.738 74.1302 162.173 73.2197 162.77 72.7207C163.127 72.4256 163.127 71.1159 162.638 70.9579C157.461 72.2343 151.32 73.0658 145.97 72.621C143.728 72.4339 144.043 70.7251 145.613 70.3675C149.774 69.4196 154.726 69.9684 159.065 69.0038C160.284 68.7336 162.812 68.1598 162.559 66.6631C162.352 65.4325 161.39 66.1684 160.727 66.2806C152.41 67.7191 143.342 67.7981 134.942 66.7296C132.526 66.422 130.011 65.8357 127.64 65.2786C127.242 65.341 127.13 67.162 127.719 67.5029C127.93 67.6235 128.241 67.4073 128.407 67.4614C132.037 68.6297 134.627 69.2242 138.46 69.6857C139.401 69.7979 140.727 69.4238 141.49 70.2012C142.203 70.9288 141.859 71.8975 140.918 72.1511C136.314 72.2135 131.979 71.3155 127.64 69.8853L127.557 72.359H127.561ZM223.051 75.5438C228.331 76.974 233.793 76.9865 239.226 77.0031C243.453 77.0156 247.883 77.107 252.147 76.5915C253.37 76.4418 255.297 76.2007 256.213 75.444C256.2 74.8203 249.681 73.7643 248.807 73.6687C243.291 73.0617 229.897 72.5877 224.928 74.4004C224.344 74.6125 223.412 75.049 223.047 75.5438H223.051ZM129.314 76.6206C128.709 76.8326 128.817 78.346 128.672 78.9031C127.255 84.2872 120.823 88.6485 122.099 95.097C122.617 105.811 121.341 117.328 122.083 127.963C122.622 135.692 125.937 138.623 133.276 139.75C141.486 141.009 152.886 141.621 160.938 139.509C167.722 137.729 168.232 131.214 168.414 125.244C168.601 119.091 168.245 112.929 168.245 106.83C168.245 102.086 169.314 94.0617 167.669 89.7794C166.255 86.0999 162.882 83.701 161.722 79.8469C161.552 79.2856 161.295 77.3232 161.22 77.211C160.835 76.6331 159.633 77.3523 159.107 77.4188C153.852 78.0674 147.515 78.3044 142.219 78.0757C141.067 78.0258 139.89 77.6891 138.684 77.8512L129.323 76.6247L129.314 76.6206ZM258.098 78.6869C257.804 78.2628 253.598 79.3812 252.752 79.4935C245.504 80.4788 233.101 80.483 225.927 79.2523C225.082 79.1068 221.94 77.9926 221.489 78.4666C221.037 78.9405 221.016 81.3561 221.435 81.7719C221.816 82.1544 225.16 82.9235 225.898 83.0482C232.156 84.1126 241.401 84.1542 247.771 83.701C249.362 83.5887 257.17 82.7614 257.908 81.7303C258.504 80.8946 257.675 79.5974 258.102 78.6828L258.098 78.6869ZM256.635 85.5844C249.47 86.5614 242.292 87.1185 235.048 86.7901C233.772 86.7319 232.363 86.6446 231.116 86.5531C228.459 86.3535 225.799 85.7964 223.134 85.5969L222.736 85.7964C222.359 86.5157 222.496 87.2848 222.26 88.0415C221.858 89.3304 219.45 91.6295 218.629 93.1845C215.985 98.1778 216.781 106.564 216.71 112.226C216.644 117.465 215.712 129.26 217.999 133.642C221.758 140.851 235.355 140.914 242.334 140.598C251.774 140.17 260.547 139.371 261.845 128.154C262.342 123.83 262.159 118.363 262.147 113.931C262.13 108.938 262.242 102.934 261.853 98.0239C261.741 96.6145 261.012 94.5108 260.361 93.2469C259.068 90.7273 256.416 88.7026 256.631 85.5844H256.635ZM216.168 137.891L213.872 132.661C213.623 132.491 212.492 135.077 212.297 135.368C211.655 136.324 210.428 136.814 210.328 137.891H216.168ZM121.461 138.099L120.102 135.8L118.332 137.787L121.461 138.099ZM60.9192 141.492C59.9743 141.621 58.6565 142.257 57.5002 142.469C49.8791 143.866 36.796 143.882 29.2122 142.436C28.429 142.286 27.5421 141.75 26.6553 141.654C19.8299 140.922 11.728 142.19 4.76584 141.671C3.64692 141.675 3.65935 143.325 3.59719 144.261C3.54332 145.088 3.47701 147.092 3.60962 147.82C3.77539 148.718 4.83629 148.913 5.5781 148.984C8.08117 149.217 11.1437 148.93 13.7297 148.967C44.9186 149.412 76.3064 148.917 107.375 148.967C161.042 149.05 214.854 149.35 268.388 149.054C270.485 149.042 272.773 149.391 274.899 149.196C277.945 148.917 276.013 144.281 276.42 142.211C276.254 141.72 275.545 141.683 275.106 141.646C270.365 141.217 264.737 141.899 259.859 141.874C256.963 141.858 257.638 142.103 255.181 142.81C246.901 145.2 233.789 144.889 225.276 143.296C223.329 142.93 221.273 141.454 219.607 141.429C210.005 141.284 200.246 141.987 190.615 141.957C182.907 141.932 174.892 141.084 167.242 141.65C165.087 141.808 161.647 143.521 159.098 143.941C149.795 145.483 135.145 145.009 126.165 142.273C124.205 141.675 116.31 141.45 114.06 141.658C112.361 141.816 110.512 142.689 108.784 143.063C103.426 144.219 99.7002 143.874 94.4496 143.787C93.2436 143.766 91.5818 144.207 90.2681 144.178C86.6254 144.099 80.6039 143.516 77.0234 142.814C75.6392 142.544 73.8199 141.795 72.5477 141.654C70.2352 141.396 67.5374 141.849 65.2664 141.845C64.0563 141.845 62.063 141.334 60.9192 141.492Z" fill="#D6C2B8"/>
<path d="M231.128 27.0619C231.853 27.856 230.821 28.7956 230.241 29.3028C229.338 30.0886 224.456 32.7162 223.457 32.5666C221.112 32.209 224.232 29.3319 225.036 28.6834C226.184 27.7562 229.893 25.7107 231.128 27.0577V27.0619Z" fill="#D6C2B8"/>
<path d="M13.5556 69.2034C12.5651 69.9892 8.72766 68.8542 7.57144 68.322C6.79234 67.9603 5.61539 67.3366 5.93449 66.2765C6.58513 64.102 13.2945 66.6423 13.9452 68.4176C13.9824 68.5964 13.6841 69.1036 13.5556 69.2034Z" fill="#D6C2B8"/>
<path d="M272.101 107.736C271.989 107.557 272.043 106.896 272.118 106.659C272.611 105.084 279.474 104.506 279.793 106.414C280.311 109.516 272.429 108.248 272.101 107.736Z" fill="#D6C2B8"/>
<path d="M223.834 20.7839C224.182 21.1872 224.05 22.0395 223.901 22.5218C223.652 23.32 221.443 26.5256 220.705 26.8498C220.067 27.1326 219.321 26.9247 219.127 26.2262C218.745 24.8667 220.954 20.9294 222.38 20.5677C222.753 20.4721 223.594 20.497 223.838 20.7839H223.834Z" fill="#D6C2B8"/>
<path d="M275.955 99.317C275.309 100.061 272.847 102.294 271.865 101.812C269.337 100.568 275.338 94.2447 277.049 97.0386C277.261 97.8161 276.432 98.7723 275.951 99.3211L275.955 99.317Z" fill="#D6C2B8"/>
<path d="M11.4255 57.4374C13.1205 57.4415 15.7644 60.2853 15.4951 62.0398C15.1428 64.3307 10.7417 60.805 10.2817 59.3125C10.0082 58.4144 10.3812 57.4374 11.4255 57.4415V57.4374Z" fill="#D6C2B8"/>
<path d="M14.5046 145.059C15.3707 144.136 17.4594 144.785 18.5079 144.805C20.9115 144.847 23.369 144.564 25.7187 145.101C26.1621 145.866 26.2326 146.473 25.3001 146.793C23.8414 147.292 16.7549 147.362 15.4453 146.838C14.7491 146.56 13.8208 145.782 14.5005 145.059H14.5046Z" fill="#D6C2B8"/>
<path d="M193.433 81.6097C193.81 81.6887 193.843 81.5099 194.009 81.248C194.962 79.7222 195.621 77.2317 195.737 75.4481C195.923 72.5877 195.041 70.1763 196.98 67.6983C197.697 66.7837 199.214 66.106 199.79 65.2828C200.577 64.1561 201 61.886 200.536 60.5722C199.79 58.4601 197.585 58.061 197.83 54.9636C198.153 50.9058 203.851 51.7414 206.052 53.787C207.055 54.7183 209.04 58.6389 209.45 60.0026C210.208 62.5429 210.217 73.9639 209.612 76.5998C209.297 77.9676 207.792 79.506 207.842 80.4414C207.917 81.9132 209.512 84.4577 209.823 85.9877C210.134 87.5177 209.636 89.8251 208.915 91.1681C208.513 91.9164 207.722 92.4652 207.423 93.4381C205.832 98.5686 210.776 103.08 210.109 108.476C210.026 109.133 209.649 109.898 209.558 110.642C208.584 118.421 211.97 125.793 203.453 130.254C201.025 131.526 198.103 132.162 195.401 132.428C193.163 132.648 190.689 132.357 188.431 132.445C187.983 132.042 192.699 128.657 190.466 127.576C188.762 126.753 187.349 130.029 186.073 130.815C183.553 132.37 182.206 130.62 180.229 129.476C178.431 128.437 176.91 127.78 175.393 126.167C174.946 125.693 174.589 124.608 174.473 123.951C174.109 121.922 174.254 120.076 174.258 118.118C174.27 112.027 174.059 105.99 174.241 99.899C174.382 95.1344 175.107 92.3613 173.454 87.526C172.749 85.4638 171.021 84.5533 170.445 83.0067C170.221 82.4121 170.756 79.8095 170.971 79.0486C171.821 76.0593 174.034 75.4606 175.501 73.3402C176.84 71.4028 174.825 68.2721 174.743 66.1933C174.589 62.3891 178.311 54.3691 182.505 53.7953C183.512 53.6581 184.792 53.9699 185.729 53.6831C186.487 53.4502 187.03 52.1198 188 51.5668C189.889 50.49 193.466 49.7416 195.517 50.5357C198.696 51.7622 195.803 53.6831 195.712 55.5498C195.555 58.7262 197.573 61.0337 196.504 64.7007C195.787 67.162 192.782 68.8542 192.409 71.6813C192.156 73.6022 192.848 74.4669 193.018 76.0551C193.213 77.8679 192.749 79.772 193.437 81.6014L193.433 81.6097ZM191.497 54.6684C191.013 54.6518 189.997 54.9802 189.782 55.4667C189.21 56.7347 191.854 59.8696 191.758 61.1875C191.696 62.0523 190.718 63.3329 191.327 64.1602C191.8 64.8047 192.173 64.6716 192.558 64.1103C194.332 61.5243 192.79 59.6201 192.227 56.98C192.073 56.2649 192.351 55.4542 191.862 54.8264C191.771 54.6684 191.655 54.6809 191.497 54.6726V54.6684ZM203.358 56.9343C202.546 57.1547 203.814 58.8468 204.017 59.379C206.101 64.8047 201.423 67.4655 202.193 71.4568C202.264 71.8102 202.45 71.9724 202.707 72.1886C203.006 72.1886 203.913 68.4051 204.166 67.7981C205.397 64.8629 206.984 63.9482 206.085 60.223C205.857 59.2792 204.564 56.5975 203.35 56.926L203.358 56.9343ZM182.762 58.8426C182.09 58.4685 181.871 58.1941 181.245 58.826C180.495 59.5785 178.812 64.5136 178.845 65.5988C178.866 66.3513 179.819 66.8959 180.192 66.3471C180.304 66.1808 180.888 63.5283 181.12 62.888C181.353 62.2477 182.923 59.1212 182.762 58.8468V58.8426ZM179.454 109.753V104.522C179.454 99.9905 183.86 96.8848 183.391 91.5755C182.965 86.7069 179.894 84.3454 180.731 78.8116C181.39 74.4711 184.059 73.5439 185.302 70.01C185.965 68.1224 185.7 66.9832 185.948 65.2163C186.135 63.8692 186.541 62.5803 186.773 61.2457L185.725 60.909C184.423 64.576 184.975 68.4883 182.753 71.8476C180.843 74.7372 179.649 75.1155 179.065 79.0278C178.273 84.3246 179.413 85.0189 181.224 89.3595C183.491 94.7893 178.34 99.4625 177.809 104.339C177.656 105.753 177.482 109.287 179.036 109.965L179.454 109.753ZM196.35 91.8624C196.077 90.3033 197.179 89.3429 197.755 88.1455C197.983 87.6715 198.058 87.1269 198.323 86.6238C200.001 83.4016 203.18 79.7928 200.208 76.1757C199.28 76.816 199.893 78.0466 199.898 78.9863C199.927 83.3143 196.292 86.0791 195.55 90.349C195.463 90.8479 195.679 91.9206 196.346 91.8624H196.35ZM193.441 108.593C196.176 108.206 196.193 104.385 195.662 102.281C194.655 98.2776 191.137 96.0907 190.532 91.9455C190.18 89.5092 190.669 85.522 188.742 83.701C188.439 83.4141 188.277 83.2021 187.797 83.2894C188.236 85.0688 188.907 86.7776 189.044 88.6236C189.206 90.7606 188.754 92.9558 189.318 95.0471C190.349 98.8929 194.262 100.248 193.818 105.125C193.71 106.298 192.956 107.462 193.437 108.597L193.441 108.593ZM201.978 96.0491C202.363 93.1429 206.28 88.8689 205.956 86.1041C205.865 85.31 205.496 85.1021 204.891 85.6842L200.818 94.9889L201.978 96.0491ZM188.841 122.824C188.862 121.174 187.701 119.91 187.283 118.425C186.864 116.941 186.831 114.808 186.984 113.328C187.345 109.906 190.155 105.316 186.131 102.743C185.256 104.385 186.002 105.686 186.127 107.246C186.433 111.137 184.444 114.218 185.758 118.076C186.056 118.953 187.502 121.843 188.107 122.417C188.335 122.633 188.468 122.907 188.841 122.828V122.824ZM203.234 104.834L202.426 104.859C202.106 106.343 201.924 107.815 201.191 109.162C199.608 112.064 196.819 114.808 195.932 117.901C195.604 119.036 195.306 120.213 195.733 121.361C196.114 121.44 196.143 121.261 196.309 120.999C197.357 119.319 197.892 116.771 198.899 115.016C199.773 113.49 201.282 112.438 202.032 110.834C202.857 109.067 203.358 106.78 203.242 104.83L203.234 104.834ZM179.869 116.966C178.037 116.505 179.38 121.83 179.678 122.284C179.873 122.575 180.022 122.679 180.387 122.616C180.743 122.383 180.723 122.059 180.71 121.685C180.66 120.313 179.74 118.463 179.865 116.966H179.869ZM199.744 125.813C199.429 126.079 199.027 127.177 198.65 127.535C198.704 128.611 202.119 126.587 202.471 126.35C205.438 124.346 206.864 120.907 206.57 117.386C204.419 119.581 203.288 123.41 200.838 125.339C200.499 125.606 200.014 125.589 199.744 125.813Z" fill="#D6C2B8"/>
<path d="M172.298 68.9955C169.384 71.0244 169.707 64.551 169.861 62.8922C170.462 56.4146 173.959 53.4087 176.007 47.9289C176.462 46.7149 176.375 44.5197 178.046 44.8274C180.743 45.3179 178.302 50.4069 177.61 51.8412C176.317 54.5312 174.353 56.9343 173.545 59.8987C172.737 62.8631 172.994 66.027 172.293 68.9997L172.298 68.9955Z" fill="#D6C2B8"/>
<path d="M50.1195 41.0231L49.4937 41.1271C51.9678 43.4387 54.1808 46.7606 55.5774 49.8788C58.5239 56.4603 57.7157 63.8318 57.8276 70.8457C58.0721 86.7568 58.2503 102.855 58.039 118.737C57.9851 122.728 58.4783 131.031 56.1368 134.191C54.7858 136.012 52.9334 136.12 50.824 136.395C45.5899 137.072 35.6978 137.488 30.932 135.272C28.172 133.991 27.5794 129.468 27.3847 126.695C26.2906 110.842 28.2964 93.858 27.6084 77.951C27.5173 71.4402 26.8666 64.1394 27.6126 57.6827C28.4083 50.8143 31.5371 45.7171 35.1632 40.0461C37.0157 38.882 38.3335 39.3435 40.1942 39.3559C43.0827 39.3726 45.018 39.1647 47.8692 40.0419C48.5364 40.2457 49.6595 40.5741 50.1195 41.0273V41.0231ZM35.6978 49.8456L34.583 49.1762C33.2279 49.5088 32.3038 52.4607 33.6506 53.0594C34.724 53.5375 35.5859 50.6355 35.702 49.8456H35.6978ZM41.7151 50.6937C40.9651 50.8642 39.8337 52.4981 39.3944 53.18C36.3443 57.9072 32.1463 68.4426 31.765 73.9805C31.3755 79.6265 31.3092 90.0995 35.4077 94.3819C37.3016 96.3609 40.0492 96.1156 41.396 93.6834C43.6049 89.6796 42.3906 84.9774 43.0827 80.5246C43.7499 76.2506 44.6989 70.7334 45.6314 66.555C46.3069 63.5158 48.8514 58.3313 48.3997 55.4126C47.9521 52.548 44.587 50.0493 41.7151 50.702V50.6937ZM52.3076 62.6344C52.146 62.6469 51.6197 63.2414 51.4912 63.4243C50.9525 64.1976 49.2326 70.1222 49.2948 71.0369C49.3197 71.4319 49.6305 71.9516 50.0076 72.1179C51.773 72.3965 52.0424 68.6504 52.4112 67.4822C52.9541 65.7609 55.0303 63.4659 52.3118 62.6302L52.3076 62.6344ZM35.8014 115.157C33.2528 118.895 29.7137 125.809 34.3758 129.31C38.4454 132.37 43.3231 128.528 45.851 125.339C51.9181 117.673 55.5525 105.212 55.3494 95.5169C55.2375 90.0912 54.9101 83.9421 51.9636 79.2482C49.5518 75.4066 47.0943 76.6913 46.7917 80.8821C46.4063 86.2745 48.9094 92.3239 48.4287 97.7994C48.151 100.968 43.9944 111.91 41.4706 113.623C39.7508 114.792 39.7923 112.912 40.3476 111.661C42.5896 106.639 45.909 102.834 45.9671 96.997C45.9753 96.2237 45.938 94.6854 45.333 94.1657C44.1353 98.211 43.178 102.065 41.1971 105.815C39.5436 108.95 37.7368 112.33 35.8056 115.157H35.8014ZM33.5885 106.036C34.4504 105.196 33.8537 103.774 33.8413 102.855C33.8288 101.936 34.351 98.6102 32.9171 98.7515C32.656 98.7598 32.5441 98.9012 32.4074 99.0966C31.8313 99.9323 31.7029 104.643 32.2043 105.541C32.4612 105.994 33.1367 106.472 33.5885 106.036ZM53.2483 122.616C52.4237 121.914 51.2053 125.901 52.1087 126.171C53.6462 125.946 53.497 123.789 53.2483 122.616Z" fill="#D6C2B8"/>
<path d="M40.0368 18.8839C42.2124 18.1313 42.0135 22.4511 41.9887 23.7815C41.9555 25.6816 40.8324 33.3565 40.0575 34.8075C39.6431 35.5808 38.5987 35.2025 38.2133 34.6661C37.6041 33.818 38.6858 30.3547 38.835 29.1864C39.2287 26.1015 39.0422 22.7754 39.4939 19.8069C39.5436 19.4701 39.6928 19.0044 40.0368 18.8839Z" fill="#D6C2B8"/>
<path d="M101.383 66.8086C104.735 66.3222 108.747 66.8918 111.727 68.4717C114.031 69.694 114.499 70.1597 115.593 72.542C117.756 77.2401 116.716 83.5222 116.687 88.5987C116.629 99.3253 116.571 110.093 116.24 120.833C116.074 126.175 117.155 130.154 112.269 133.796C107.412 137.417 95.9373 137.658 89.8454 137.471C86.0328 137.355 79.5389 136.553 76.294 134.549C69.7131 130.482 71.2423 122.101 71.1718 115.631C71.0434 104.144 70.285 91.9081 70.7657 80.4539C71.0268 74.23 72.4524 68.638 79.4518 67.6194C82.4315 67.187 86.3394 67.3949 89.1285 68.5424C90.3717 69.0537 91.4077 69.8811 92.5723 70.5255C93.8321 69.8645 94.98 68.7419 96.3186 68.2181C97.3297 67.8231 100.343 66.9625 101.383 66.8128V66.8086ZM111.606 74.4503C112.29 73.835 109.907 72.3216 109.306 71.9433C106.932 70.4465 104.636 69.9227 101.801 70.3675C101.449 70.4216 98.2373 71.6398 98.1006 71.7853C97.769 72.1428 98.2042 72.1345 98.3906 72.2218C99.4598 72.7083 100.873 72.9161 101.996 73.4192C103.728 74.1967 105.083 75.8389 107.127 75.498C107.752 75.3941 108.353 74.9201 108.946 74.7954C109.625 74.6499 111.068 74.9451 111.611 74.4545L111.606 74.4503ZM87.6697 71.7811C85.4609 71.1866 83.0407 70.2636 80.7324 70.7833C79.829 70.987 75.6226 72.9286 75.8133 73.9472C78.2086 76.7661 81.5198 74.1094 84.2674 73.4941L87.6656 71.7811H87.6697ZM103.177 79.0278C91.1342 66.8585 71.6898 82.2957 80.26 97.5167C83.7203 103.666 89.4144 105.574 96.2315 104.323C100.144 103.608 101.578 102.593 104.047 99.608C109.911 92.5234 109.567 85.4888 103.177 79.0278ZM76.8203 78.4749C75.6475 78.795 73.8282 77.1403 74.4167 79.3189C74.5286 79.7305 75.4817 81.7968 75.9998 81.0734C76.2733 80.5786 76.0951 79.93 76.2401 79.4602C76.3603 79.0653 76.9115 78.9655 76.8203 78.4749ZM113.053 78.0799C112.684 78.1132 110.467 79.323 110.201 79.6265C109.969 79.8885 109.874 80.0298 110.081 80.3624C110.711 81.3686 115.245 79.3397 113.053 78.0799ZM74.023 87.2724L73.7744 87.6964C73.907 88.6319 75.1005 89.135 75.776 88.4074C76.0039 87.6466 74.6198 87.1851 74.023 87.2724ZM112.489 91.2387C112.261 91.2221 112.062 91.2055 111.859 91.3344C111.519 91.5506 110.11 95.8994 111.345 96.2154C112.584 96.311 112.991 92.1326 112.493 91.2429L112.489 91.2387ZM74.396 101.57C75.0756 101.03 77.529 99.2962 77.4212 98.5021C76.5344 95.8537 72.5601 101.163 74.0106 101.903C74.4291 102.028 74.2675 101.674 74.396 101.57ZM106.443 126.175C107.251 127.007 111.445 121.843 111.872 121.057C113.89 117.349 114.64 108.938 112.597 105.25C111.3 102.909 109.456 101.824 106.745 102.522C106.463 102.593 104.25 103.533 104.773 103.994C113.852 103.524 112.767 115.403 109.663 120.928C109.223 121.714 105.887 125.597 106.443 126.171V126.175ZM79.9077 103.204C74.0852 103.653 73.3641 114.567 75.0549 118.637C77.5124 124.558 85.0092 127.26 90.5748 123.959C94.4868 121.635 96.1652 118.45 96.6418 113.935C96.8532 111.931 96.244 109.678 95.0919 108.052C93.2104 107.632 91.3704 108.085 89.4641 107.744C88.109 107.503 85.0713 106.489 83.9317 105.761C82.7216 104.988 81.4825 103.08 79.9118 103.204H79.9077ZM104.909 123.173C106.774 121.485 108.639 118.267 109.066 115.781C109.671 112.276 109.207 103.649 103.703 107.424C99.8867 110.044 99.1366 117.839 99.5593 122.092C99.7706 124.234 100.197 125.107 102.489 124.616C103.185 124.466 104.367 123.66 104.905 123.169L104.909 123.173ZM94.7023 129.048C95.1375 128.653 95.1748 127.597 94.2631 127.643C93.629 127.676 89.8495 129.281 89.8081 129.83C89.7957 130.017 90.0775 130.453 90.3054 130.52C91.0513 130.449 91.8056 130.358 92.5225 130.1C92.8085 129.996 94.578 129.152 94.6982 129.044L94.7023 129.048ZM76.7167 129.164C75.2331 130.699 80.318 132.457 80.9023 131.63L80.7904 130.462L76.7167 129.169V129.164ZM109.99 129.942C109.849 129.796 106.77 131.326 106.691 131.75C106.538 133.152 109.211 132.15 109.688 131.626C110.164 131.102 109.978 130.578 109.99 129.942Z" fill="#D6C2B8"/>
<path d="M143.09 82.7489C145.514 82.5036 149.335 83.1771 151.751 83.7675C154.457 84.4327 157.08 85.5137 159.728 86.2288C166.309 88.0041 166.172 94.7145 166.309 100.336C164.78 109.482 166.972 119.702 166.081 128.769C165.352 136.187 160.615 137.268 154.105 137.887C146.985 138.565 137.723 137.949 130.769 136.627C127.371 135.983 124.685 132.108 124.387 128.786C124.035 124.89 124.453 121.685 124.602 117.918C124.83 112.135 122.936 105.129 125.17 99.8741C126.016 97.8826 127.938 97.4544 129.256 96.4357C130.91 95.1635 130.508 93.2053 131.167 91.4466C132.601 87.6258 139.049 83.1522 143.094 82.7447L143.09 82.7489ZM136.973 89.2181C130.5 95.3298 132.99 104.946 140.441 108.921C148.145 113.029 156.243 110.26 158.742 101.745C162.754 88.0748 146.115 80.5911 136.973 89.2223V89.2181ZM162.944 93.0889C163.222 91.5256 161.863 89.796 160.263 89.7753C160.068 89.9707 161.883 93.2178 162.273 93.2926L162.944 93.093V93.0889ZM161.096 99.8117V102.847C160.822 104.643 158.667 107.524 158.589 109.121C158.564 109.657 159.09 109.47 159.438 109.341C161.03 108.751 162.463 105.291 162.563 103.691C162.629 102.656 162.629 99.4001 161.096 99.8117ZM130.64 100.232C126.654 101.363 126.687 107.412 127.959 110.559C130.218 116.168 139.6 117.997 144.001 113.939C144.229 113.727 144.54 113.594 144.204 113.307C142.886 112.172 140.404 113.798 138.991 114.143C132.841 115.656 128.282 109.678 129.696 103.982C130.011 102.705 131.2 101.525 130.645 100.227L130.64 100.232ZM132.833 107.973C131.892 108.173 133.45 110.281 133.761 110.597C134.304 111.154 135.692 112.093 136.484 111.636C136.815 111.445 136.567 111.27 136.442 111.046L132.833 107.973ZM146.077 133.081C146.305 133.983 147.901 134.578 148.738 134.698C154.125 135.484 159.761 130.536 162.103 126.034C164.739 120.97 163.997 113.948 157.752 112.268C154.888 111.499 153.781 112.384 151.502 113.935C152.128 114.812 153.255 114.193 154.32 114.243C159.074 114.451 162.082 118.629 161.208 123.256C160.454 127.244 154.474 132.478 150.503 133.027C148.995 133.235 147.544 132.819 146.073 133.081H146.077ZM131.465 117.191C129.207 116.342 128.867 116.313 128.241 118.642C127.284 122.192 127.222 125.219 128.726 128.62C130.222 132.004 134.598 135.002 138.373 134.241C139.65 133.983 142.758 132.686 142.323 130.985C140.01 131.493 138.543 132.424 136.015 131.975C131.204 131.123 129.546 126.333 130.077 121.943C130.28 120.271 131.179 118.824 131.469 117.191H131.465ZM146.703 116.762C146.45 116.496 145.642 117.548 145.489 117.739C143.322 120.45 142.472 124.653 139.476 126.562C134.739 129.576 134.341 122.167 135.651 119.273C132.422 118.247 132.298 122.612 132.526 124.816C133.135 130.778 139.405 130.732 142.961 127.127C145.062 124.994 147.387 119.777 146.707 116.766L146.703 116.762ZM145.684 129.705C150.988 133.414 160.449 126.196 158.916 120.305C158.498 118.696 156.309 117.199 154.714 116.987C153.694 116.85 149.397 117.544 149.654 118.924C150.404 120.334 151.917 119.194 153.272 119.253C154.958 119.323 157.781 121.282 155.775 122.616C153.715 120.754 151.838 122.092 149.409 122.092C149.024 122.625 147.304 125.348 147.619 125.768C148.058 126.354 150.334 125.98 150.968 125.751C151.921 125.406 153.359 123.269 154.055 124.982C154.606 126.341 151.73 127.955 150.673 128.171C149.157 128.487 147.706 128.071 146.206 128.083L145.68 129.705H145.684ZM141.593 118.438C140.98 119.215 139.874 119.086 139.119 119.506C137.52 120.4 136.799 125.219 138.858 123.847C138.974 123.768 140.197 122.379 140.33 122.184C140.781 121.523 141.618 119.768 141.755 119.003C141.801 118.737 142.024 118.733 141.598 118.434L141.593 118.438Z" fill="#D6C2B8"/>
<path d="M132.675 81.6471C132.858 81.618 133.028 81.564 133.214 81.6347C134.76 82.9984 132.708 84.3912 131.929 85.5179C130.044 88.2494 128.531 90.7897 128.038 94.1657C125.982 95.0928 126.268 92.4736 126.492 91.1514C126.907 88.7192 130.031 82.0712 132.675 81.6471Z" fill="#D6C2B8"/>
<path d="M226.08 90.7232C229.271 90.7731 232.384 94.199 234.423 94.1823C235.272 94.174 236.532 93.4464 237.435 93.2136C247.249 90.6941 259.142 90.3157 259.98 103.462C260.224 107.308 259.806 111.536 259.752 115.386C259.669 121.248 261.024 132.565 254.625 135.767C250.158 137.999 244.145 138.552 239.217 138.511C234.033 138.465 223.092 137.55 220.163 132.515C217.97 128.749 218.712 116.687 218.799 112.01C218.849 109.225 218.451 103.454 219.4 101.063C219.976 99.6122 220.697 99.8699 221.489 99.1839C222.156 98.6019 223.138 93.0348 224.008 91.667C224.522 90.8604 225.148 90.7024 226.076 90.719L226.08 90.7232ZM226.312 93.5545C225.148 95.1261 225.243 97.4169 225.334 99.3003C225.513 102.934 226.184 104.813 228.886 107.246C232.442 110.443 237.85 111.628 242.296 109.603C244.389 108.647 243.051 107.603 241.928 106.298C239.769 103.791 229.765 94.1491 227.021 93.6252C226.789 93.5795 226.553 93.4714 226.308 93.5545H226.312ZM241.273 101.412C243.913 103.899 251.008 110.264 254.087 111.47C255.79 112.135 255.889 111.395 256.333 109.857C257.356 106.298 257.742 101.558 255.288 98.552C251.422 93.8164 244.414 94.041 239.217 96.2487C238.579 96.5189 237.46 96.9762 237.692 97.7786C237.779 98.0863 240.771 100.93 241.281 101.408L241.273 101.412ZM224.037 108.019C222.877 108.285 222.492 111.557 222.417 112.671C222.073 117.947 224.647 122.383 230.249 122.824C233.416 123.074 232.823 121.714 234.145 119.619C234.427 119.17 234.862 118.596 235.189 118.155C235.952 117.124 237.833 115.515 238.252 114.742C238.413 114.442 238.608 114.172 238.397 113.827C238.016 113.203 234.443 113.137 233.606 112.975C232.342 112.729 229.16 111.648 228.161 110.904C226.835 109.919 226.441 107.47 224.041 108.015L224.037 108.019ZM246.37 115.141C238.442 115.798 231.965 124.574 234.99 132.295C235.749 134.233 236.586 135.517 238.811 134.761C239.267 134.607 241.501 132.869 241.94 132.457C243.449 131.035 244.721 128.932 246.101 127.427C248.281 125.044 250.925 122.799 252.988 120.317C255.5 117.299 255.388 116.475 251.463 115.565C249.98 115.22 247.841 115.02 246.37 115.141ZM255.798 121.988C253.643 122.928 252.939 125.119 251.526 126.803C250.556 127.959 247.066 130.773 246.867 131.975C246.602 133.58 249.503 133.01 250.489 132.665C253.287 131.684 254.571 129.106 255.326 126.425C255.719 125.028 256.192 123.39 255.802 121.988H255.798ZM232.002 133.468C231.136 132.199 231.489 127.393 230.767 126.699C229.876 125.847 225.044 125.235 223.727 124.325C222.653 124.113 222.616 125.111 222.458 125.897C221.945 128.437 223.432 132.47 226.089 133.272C227.075 133.572 231.484 134.399 232.002 133.463V133.468Z" fill="#D6C2B8"/>
<path d="M50.795 97.1425C51.0063 96.9305 51.7647 96.9347 51.9968 97.1924C52.5646 97.8244 52.4817 100.868 52.3905 101.774C52.2662 102.992 51.2881 107.549 50.853 108.601C48.8472 113.424 46.1287 118.683 43.12 123.02C42.4238 124.021 39.9787 127.41 38.9013 125.622C41.7939 119.702 45.9961 114.417 48.3458 108.177C48.9923 106.46 50.277 102.826 50.4883 101.117C50.5878 100.306 50.3972 97.5375 50.7991 97.1384L50.795 97.1425Z" fill="#D6C2B8"/>
<path d="M49.2161 82.2625C49.9123 82.0338 50.4593 82.8528 50.7536 83.385C51.9927 85.6052 53.4763 92.2282 53.0411 94.6896C52.9375 95.2799 52.4982 95.3589 51.9968 95.1095C51.1058 94.6729 51.0644 90.8188 50.8613 89.7586C50.4345 87.5218 49.415 85.4763 48.6981 83.3351C48.6359 82.9776 48.868 82.3706 49.2119 82.2583L49.2161 82.2625Z" fill="#D6C2B8"/>
<path d="M35.5694 122.982C34.554 121.947 36.9577 118.143 37.9108 118.097C40.0326 117.997 37.9108 121.498 37.3596 122.267C36.9618 122.824 36.2532 123.681 35.5694 122.982Z" fill="#D6C2B8"/>
<path d="M42.9957 58.0028C43.5676 58.9175 41.6198 61.7821 41.2096 62.7383C39.0587 67.7482 37.7243 73.0991 37.3845 78.5705C37.1607 82.1502 37.7533 85.9586 37.5751 89.4468C37.5254 90.3698 37.4674 92.2781 36.075 91.8416C35.5404 91.6753 35.416 90.191 35.3331 89.6422C34.5416 84.3413 34.1728 73.9805 36.0377 69.062C36.7256 67.2493 36.8623 66.3388 37.3845 64.5552C37.8031 63.1291 40.4015 57.9695 41.8892 57.7575C42.113 57.7242 42.9128 57.8698 42.9957 58.0028Z" fill="#D6C2B8"/>
<path d="M44.3881 63.204C44.6244 63.1541 44.8108 63.3453 44.873 63.5491C45.2211 64.6467 44.011 66.7754 43.7168 67.9728C43.4018 69.2575 42.7678 76.1175 42.2042 76.4959C41.5245 76.949 40.8283 76.4377 40.7247 75.6602C40.5631 74.4545 40.9402 70.6877 41.2137 69.4362C41.6654 67.3533 42.2415 66.9375 43.2029 65.3659C43.4971 64.8878 43.924 63.3038 44.3881 63.204Z" fill="#D6C2B8"/>
<path d="M39.4814 86.3203C39.6016 85.6384 40.3559 84.7196 41.1308 84.9774C41.566 85.9544 41.5577 89.8459 40.2025 89.9873C39.9539 90.0122 39.4814 89.8667 39.4814 89.6672C39.4814 88.7234 39.3323 87.156 39.4814 86.3203Z" fill="#D6C2B8"/>
<path d="M44.4586 53.4003C45.1714 54.8098 43.3314 56.0072 42.0094 55.6496C41.3049 53.9117 42.9874 53.2756 44.4586 53.4003Z" fill="#D6C2B8"/>
<path d="M80.09 115.956C81.5902 115.44 81.7104 116.941 82.2492 117.698C82.6843 118.313 84.1803 119.677 84.1347 120.201C83.9565 122.18 80.0693 120.093 79.6342 118.438C79.4726 117.831 79.3648 116.205 80.09 115.956Z" fill="#D6C2B8"/>
<path d="M81.1468 106.751C81.3872 106.701 81.6192 106.663 81.843 106.805C82.7092 107.437 81.0225 112.164 79.8372 112.368C76.9239 112.867 79.4228 107.108 81.1427 106.751H81.1468Z" fill="#D6C2B8"/>
<path d="M85.1045 114.289C87.0149 113.711 87.6283 117.286 86.4803 117.569C85.2247 117.877 83.6457 114.733 85.1045 114.289Z" fill="#D6C2B8"/>
<path d="M84.3834 112.522C82.7713 111.008 84.9304 108.451 86.1778 110.825C87.0439 112.467 85.3573 113.44 84.3834 112.522Z" fill="#D6C2B8"/>
<path d="M90.1148 110.933C91.5238 110.551 92.249 113.652 91.0679 114.006C89.3895 114.505 88.6643 111.328 90.1148 110.933Z" fill="#D6C2B8"/>
<path d="M90.7985 116.55C90.898 117.365 90.7198 118.716 89.9117 119.116C87.9722 120.072 89.4061 116.255 90.7985 116.55Z" fill="#D6C2B8"/>
<path d="M102.394 97.6331C100.89 99.5498 99.2443 100.731 96.849 101.383C86.0411 104.323 77.1767 93.4755 82.9122 83.6428C87.736 75.3733 99.9737 75.5271 104.259 84.1209C106.646 88.9105 105.614 93.5379 102.394 97.6373V97.6331ZM100.529 96.39C104.06 92.9725 103.861 85.9877 100.189 82.7572C92.4148 75.9221 79.6508 84.7529 84.6693 94.3486C87.5744 99.9032 96.2315 100.548 100.529 96.39Z" fill="#D6C2B8"/>
<path d="M105.979 115.665C105.531 116.134 104.487 115.877 104.358 115.195C104.105 113.869 104.574 112.576 105.328 111.524L106.248 111.628C106.691 111.931 106.385 115.241 105.979 115.669V115.665Z" fill="#D6C2B8"/>
<path d="M102.075 120.932C101.636 119.461 105.311 116.954 104.246 119.681C103.811 120.791 103.301 121.352 102.075 120.932Z" fill="#D6C2B8"/>
<path d="M138.013 91.9331C141.73 87.7463 147.611 87.7754 152.393 90.0247C154.846 91.1764 156.881 95.1801 157.13 97.8244C157.395 100.685 155.808 104.576 153.57 106.385C144.731 113.519 130.019 100.93 138.013 91.9331ZM152.198 103.653C154.026 101.749 154.681 99.7577 154.163 97.0386C152.335 87.5177 137.114 89.4676 138.021 98.6185C138.373 102.14 143.048 105.612 146.384 105.89C149.128 106.119 150.383 105.549 152.203 103.653H152.198Z" fill="#D6C2B8"/>
<path d="M241.77 127.792C240.705 129.11 238.418 127.202 239.524 125.855C240.85 124.242 242.74 126.591 241.77 127.792Z" fill="#D6C2B8"/>
<path d="M244.688 120.779C246.544 120.226 247.547 123.19 245.392 123.556C243.838 123.822 243.279 121.198 244.688 120.779Z" fill="#D6C2B8"/>
<path d="M248.654 100.689C250.39 100.323 250.788 102.805 249.284 103.421C246.876 104.402 246.872 101.063 248.654 100.689Z" fill="#D6C2B8"/>
<path d="M253.921 102.327C254.48 103.508 253.618 105.1 252.242 104.743C251.372 104.123 253.374 101.949 253.921 102.327Z" fill="#D6C2B8"/>
<path d="M236.142 104.784C235.591 105.142 234.845 105.15 234.319 104.726C233.262 103.117 234.796 102.439 236.196 103.258C236.59 103.653 236.395 104.356 236.142 104.784Z" fill="#D6C2B8"/>
<path d="M231.501 99.8907C232.255 99.8907 233.577 101.242 232.869 102.024C231.422 102.859 229.847 99.8949 231.501 99.8907Z" fill="#D6C2B8"/>
<path d="M229.661 114.081C231.729 113.436 232.732 116.608 230.486 116.488C229.077 116.413 228.422 114.463 229.661 114.081Z" fill="#D6C2B8"/>
<path d="M225.898 111.337C227.411 111.183 228.115 113.806 226.478 114.043C225.007 114.259 224.87 111.977 225.898 111.337Z" fill="#D6C2B8"/>
<path d="M98.8714 95.3548C95.1706 98.3607 88.0593 96.0241 87.1393 91.035C85.7344 83.4224 95.1126 80.0465 99.3521 85.6925C100.177 86.7901 101.209 89.1974 100.264 90.3781C98.8133 90.8646 98.1586 88.212 97.2551 87.3805C94.3294 84.6822 89.3315 85.0564 89.3854 89.6713C89.431 93.7291 93.6041 94.86 96.9112 94.1241C97.7525 93.937 98.287 92.7646 99.4267 93.1471C100.355 93.4631 99.2982 95.0055 98.8714 95.3548Z" fill="#D6C2B8"/>
<path d="M92.4023 88.3492C93.774 87.9293 96.0285 89.7586 96.2274 91.1265C95.3861 93.2843 91.7061 91.5298 91.6398 89.6464C91.6232 89.189 91.9423 88.4906 92.4023 88.3492Z" fill="#D6C2B8"/>
<path d="M144.358 93.7998C147.594 93.2967 151.651 95.2259 151.726 98.8721C151.747 99.8367 151.225 102.406 149.932 102.252C148.991 101.716 149.865 100.602 149.844 99.4957C149.815 98.0323 149.264 97.1675 147.93 96.5896C146.587 96.0117 144.552 95.8869 144.602 97.8161C144.66 100.007 147.578 100.078 147.234 102.128C146.6 103.001 143.894 101.4 143.355 100.755C142.915 100.227 141.718 97.3088 141.743 96.627C141.797 95.0346 142.833 94.0368 144.349 93.7998H144.358Z" fill="#D6C2B8"/>
</g>
<defs>
<clipPath id="clip0_224_2842">
<rect width="280" height="153" fill="white"/>
</clipPath>
</defs>
</svg>
