<svg width="160" height="190" viewBox="0 0 160 190" fill="none" xmlns="http://www.w3.org/2000/svg">
<g clip-path="url(#clip0_228_3053)">
<path d="M6.10306 176.374C5.39727 177.74 3.66047 178.115 3.29374 176.305C3.05156 175.077 3.85422 172.637 5.12741 172.186C6.60127 171.666 7.0372 173.503 6.80886 174.675C6.7881 174.765 6.17918 176.236 6.10306 176.381V176.374Z" fill="#D6C2B8"/>
<path d="M6.73966 152.777C6.90573 152.936 7.37625 153.699 7.40393 153.9C7.54232 154.815 7.03028 157.478 6.02003 157.7C3.2453 158.31 4.28323 153.838 5.04438 152.492C5.74325 152.25 6.19302 152.243 6.73966 152.777Z" fill="#D6C2B8"/>
<path d="M8.55257 136.377C9.34832 135.815 10.5385 136.28 10.9675 137.098C11.3965 137.917 10.8568 138.534 10.663 139.192C10.58 139.477 10.9606 139.921 10.3724 140.198C9.88804 140.427 8.67021 140.357 8.38651 139.879C8.05437 139.324 7.96441 136.793 8.55257 136.377Z" fill="#D6C2B8"/>
<path d="M159.391 20.8793C158.713 21.3647 157.357 20.5742 157.343 21.5589L156.831 21.1151C156.028 21.4063 154.637 21.122 153.939 21.3508C153.496 21.4965 153.786 22.606 152.527 21.3508V21.9819L151.371 21.1428L151.475 21.7669C150.666 21.9611 150.728 21.1497 150.5 21.122C149.759 21.018 149.552 21.7322 149.489 21.7392L138.84 20.6643L127.063 18.5979C112.442 15.2348 97.5722 12.4264 82.8682 9.10486C78.2875 8.07165 73.7483 6.72639 69.126 5.8596C58.6845 3.90413 56.5948 5.00668 48.8518 11.6914C41.0743 18.3968 32.5079 22.8903 24.08 28.6804C20.6756 31.0242 17.368 33.4997 13.9498 35.8158C13.2786 38.3052 11.8255 40.3578 11.1336 42.8125C10.4416 45.2673 10.0195 48.2213 9.27912 50.8286C7.71531 56.2789 4.54617 62.9636 4.30399 68.5457C4.131 72.6439 6.21378 76.6103 5.98543 80.6877C7.19635 81.714 8.13048 82.4143 8.87779 83.9191C10.3724 86.9424 11.1474 89.9311 10.4693 93.2596C10.3793 93.6965 9.8742 95.9987 9.77041 96.276C9.47979 97.0457 8.69096 97.4549 8.71172 98.2731C9.24453 97.9957 9.85344 98.3633 10.3862 98.1344C10.9536 97.8848 14.2058 95.3815 14.4203 94.8614C14.7525 94.0571 14.794 91.9768 15.1538 90.7633C16.8145 85.0771 24.1215 75.4454 16.9529 70.7924C15.7627 70.0158 12.6074 69.3709 13.1471 67.5403C13.8045 65.3213 19.3332 68.1019 20.5718 67.2005C20.8001 67.0341 23.1804 62.9497 23.4918 62.3534C25.1387 59.1983 27.0484 52.5206 26.5156 49.0187C26.1351 46.5224 23.0282 44.2341 22.3363 41.8764C23.1804 39.0333 26.7647 42.1815 27.9964 43.3326C29.2281 44.4837 30.7089 46.6957 30.5151 48.4709C30.9718 48.6581 31.2071 48.6581 31.6638 48.5056C35.8086 47.0702 42.1192 43.3187 45.1983 40.1983C46.6514 38.7282 46.2501 38.0903 46.7552 36.3012C47.0113 35.3997 47.378 34.5122 47.6409 33.6176C47.8693 32.8202 47.9246 30.4972 48.9003 30.2406C50.1942 29.8939 50.7686 30.9687 51.0107 32.0505C51.2737 33.2501 51.1491 35.7603 51.0661 37.0501C51.0246 37.6742 50.5056 38.8461 50.6855 39.5673C50.7201 39.706 50.9692 39.6852 51.0522 39.8238C52.3254 41.9527 55.3631 43.5961 57.7573 44.1994C58.2831 44.3311 58.7952 43.9914 59.5979 44.4421C60.0269 44.6848 60.2137 45.4545 60.9126 45.3435L60.7603 44.9691C60.9887 44.9067 61.1063 44.9067 61.1409 44.6224C61.5007 41.7862 60.7949 38.4716 61.0371 35.6494C61.1271 34.5884 61.819 30.5457 62.3034 29.8454C62.6286 29.3738 63.3275 29.0202 63.9018 29.2005C64.8428 29.4709 65.0366 31.7246 65.1058 32.6191C65.3826 36.2596 64.912 39.9625 65.2234 43.6932C65.4587 46.4738 66.2406 49.4487 67.1401 52.0282C67.3685 52.6731 67.7214 53.2764 67.8321 53.9629C68.1988 54.0461 68.2473 53.8589 68.4272 53.6162C70.0532 51.4457 70.3162 44.1994 70.8144 41.2939C71.0289 40.0596 71.368 38.007 72.9525 38.1943C74.3433 38.3884 73.8728 41.9735 73.8244 43.1038C73.7967 43.8527 73.7483 44.6987 73.6998 45.4406C73.5199 48.1034 73.2224 50.7176 72.6481 53.3319L74.9592 51.7647C76.8067 50.0589 78.7026 46.987 80.474 45.4198C81.3044 44.6917 82.3423 44.1231 83.2211 45.1424C85.0478 47.2574 81.4428 50.045 80.1903 51.5497C74.0112 58.9764 66.5243 65.03 57.6189 69.0658C45.7173 74.4676 29.4564 74.8906 21.9626 86.9078C19.3263 91.1377 17.3127 97.3786 21.1876 101.65C26.7025 107.738 35.94 100.998 41.6763 98.2731C46.6168 95.9224 51.592 93.7797 56.4218 91.2001C58.3039 90.1946 60.3728 88.5859 62.2204 87.7607C63.7011 87.1019 65.2649 86.9563 66.7596 86.4293C73.5822 84.0162 82.5015 80.2994 89.504 79.6961C91.6075 79.5158 93.6488 79.3494 95.7108 78.857C96.8041 80.4311 95.3302 81.4435 94.4445 82.6501C94.5345 82.8235 94.9843 82.8443 95.178 82.8443C106.692 83.1771 119.957 79.3979 129.651 73.3789C135.325 69.8563 139.414 63.7403 145.109 60.3008C146.915 59.2052 149.019 58.0819 151.081 59.3092L150.915 61.6877L143.718 68.0395C148.486 67.1311 153.42 67.1658 158.277 67.0063C160.782 67.8592 160.422 71.1946 158.07 72.0268C154.236 72.207 150.368 72.0822 146.549 72.4567C144.902 72.6162 143.255 72.9629 141.67 73.2403C139.954 73.5454 137.505 73.7811 136.245 74.7311C132.834 77.3246 128.26 79.9804 124.392 81.7695C120.524 83.5585 114.76 85.6319 110.685 86.3114C110.581 86.3253 110.484 86.3253 110.38 86.3253L110.276 85.9023C110.069 86.6581 109.149 86.2352 108.408 86.3461C104.249 86.9633 99.7933 87.4279 95.6001 87.3862C90.9571 87.3446 85.8228 85.4724 81.2283 86.4154C77.644 87.1505 75.0768 88.5651 71.8869 90.0837C71.5963 90.2224 71.2918 90.3264 70.9666 90.3195C71.3887 92.0253 72.4612 93.4746 72.911 95.1943C74.2465 100.312 73.2777 106.671 68.3095 109.41C66.2406 110.547 64.5246 110.54 62.5179 109.236C62.2204 109.042 62.2619 108.48 61.736 108.598C61.7498 110.609 58.6568 113.681 56.7955 114.049C51.9725 115.006 48.7826 112.953 46.1325 109C45.1222 107.489 44.5894 105.332 43.2816 104.084C42.1192 102.982 39.635 104.542 38.1058 104.569C35.1927 105.36 31.9267 107.995 29.0274 108.515C26.5226 108.966 20.8693 107.738 18.9526 105.963C18.7865 105.804 18.9249 105.519 18.745 105.353C17.1674 103.869 16.0118 102.808 15.2853 100.617C13.6799 102.253 11.5349 102.919 9.2722 102.884C8.62869 102.877 6.35217 102.212 5.88164 101.844C5.75017 101.74 4.15176 99.4658 3.95801 99.1468C1.15561 94.4176 2.42188 86.4501 1.87524 80.9997C1.55694 77.8516 0.442899 74.8351 0.110762 71.687C-0.761097 63.3658 2.89241 57.0417 5.00978 49.3308C6.81577 42.757 7.41777 35.2957 13.0295 30.622C21.2776 23.757 31.8229 18.4246 40.6107 12.0935C45.8557 8.32128 51.7788 1.84464 58.0548 0.34683C63.3206 -0.90828 73.0079 1.8169 78.4397 3.03041C90.9087 5.818 103.26 8.668 115.764 11.2198C126.51 13.4111 137.865 15.9837 148.818 16.7534C151.544 16.9476 155.156 16.5384 157.786 17.2249C158.36 17.3775 159.232 17.6618 159.509 18.2304C159.799 18.8337 159.952 20.4841 159.363 20.9001L159.391 20.8793ZM50.8101 47.0286C49.9036 46.5224 48.499 45.2395 47.4264 45.5654C45.316 46.8275 43.4131 48.3184 41.2542 49.4903C38.3965 51.0366 35.4141 52.0213 32.3972 53.2001C32.0997 53.318 31.1517 53.7341 31.0341 53.9352C30.2453 57.0487 29.5187 60.4049 28.3009 63.3866C27.5882 65.1271 26.315 67.1727 25.3532 68.837C24.9933 69.468 24.3568 69.8216 24.0661 70.6954C23.5679 72.207 24.7096 73.1917 24.3913 74.849L24.0108 75.0501C24.5782 75.4107 24.5713 76.5826 24.4121 77.1235C24.3637 77.2968 23.6648 77.283 24.2184 78.3092L30.529 74.0308C31.4147 73.2056 37.4623 71.368 37.7391 70.9589C37.8014 70.8618 38.1889 68.9549 38.2096 68.6914C38.3134 67.1311 37.8982 63.8165 37.317 62.3395C36.8119 61.0497 35.5733 60.3355 36.5005 58.7822C37.4277 57.2289 39.4621 58.2206 40.5761 57.9987C41.1366 57.8877 45.9872 55.0585 46.5476 54.5592C47.3641 53.8311 47.551 52.7563 47.7586 52.4997C48.0007 52.1946 48.7135 52.153 48.6512 51.1892L49.5922 50.9881C49.1079 49.8924 49.6822 50.2669 49.8898 49.9341C50.2219 49.3932 50.0628 48.8731 50.8516 48.5749L50.4295 48.3738L50.817 47.0355L50.8101 47.0286ZM58.1309 50.1837C58.0686 50.149 56.7747 50.156 56.664 50.1837C55.6191 50.4195 54.768 52.8534 54.1591 53.7895C51.9795 57.1249 48.7826 59.9888 45.3713 62.0067C44.0705 62.7764 42.7557 62.3881 43.7106 64.6556L43.2955 64.5516L43.1086 65.6195L43.4754 65.8136L42.6658 69.4957L47.4887 68.2337C47.7101 67.9355 45.9802 66.2921 46.8521 64.7596C47.3987 63.7957 50.8377 62.3881 52.0002 61.5143C54.166 59.8779 58.4769 55.6133 58.9959 52.9782C59.0651 52.6107 59.1896 51.633 59.0512 51.314C59.0028 51.203 58.1932 50.2461 58.1309 50.2045V50.1837ZM63.4174 55.8213C63.0438 55.4746 63.0645 55.953 62.9815 56.1195C61.4454 59.1359 59.2242 62.1731 56.6086 64.2257C56.235 64.5169 55.6537 64.6903 55.4531 65.0716C57.0999 64.6625 58.5876 63.4976 60.0615 62.6516C61.307 61.9304 61.7983 61.653 62.9469 60.8625C63.5904 60.4187 64.4484 60.2315 65.0089 59.6143L65.085 59.3231C64.2685 58.8724 63.7911 56.1749 63.4174 55.8282V55.8213ZM7.80527 92.5384C7.96441 92.268 7.57 86.6859 7.41777 86.2074C7.23095 85.618 6.65663 84.6541 5.97159 84.6125C5.88856 86.3877 5.66714 88.1976 5.75017 89.9797C5.79169 90.8465 6.06847 93.9322 6.28297 94.5979C6.34525 94.799 6.69122 95.2012 6.80194 95.1249C7.57692 94.2304 7.2517 93.5786 7.43853 92.7465C7.47313 92.5939 7.76375 92.6009 7.79835 92.5454L7.80527 92.5384ZM66.8495 93.3706C66.6904 93.2249 66.6281 92.9545 66.4759 92.795L66.1368 92.691C64.6629 93.2041 62.677 93.5093 61.2793 94.1264C61.0371 94.2304 60.8226 94.3414 60.7465 94.6187C61.1755 95.3884 61.0648 97.0527 61.3347 97.6837C61.4454 97.9403 61.8744 97.9611 62.1235 98.4187C62.7532 99.5421 62.7324 101.068 63.2168 102.267L63.8395 102.059C63.6735 104.119 65.3203 107.26 67.5069 104.999C70.2193 102.191 69.6104 95.9016 66.8495 93.3706ZM57.5497 98.4811L53.8823 98.9527C53.7578 98.9873 53.7785 99.2578 53.6194 99.3063C52.5815 99.5906 47.5371 100.818 47.1704 101.435C47.1427 101.477 47.0389 102.434 47.0804 102.468C47.1358 102.517 47.5648 102.489 47.807 102.683C48.9764 103.606 50.5264 106.192 51.2737 107.461C51.5297 107.898 51.4121 108.564 51.7027 109.077C52.4569 110.415 55.3908 110.408 56.5809 109.597C58.3939 108.363 58.8575 104.153 58.7052 102.156C58.6153 100.922 57.3559 99.8056 57.5497 98.4881V98.4811Z" fill="#D6C2B8"/>
<path d="M22.2394 101.303C20.5303 99.5005 20.0736 97.0249 20.3227 94.5702C20.5303 92.4899 21.5682 89.4111 23.1874 88.1005C25.9413 85.8607 31.6222 83.0176 34.6807 85.9994C35.8224 87.1158 37.9882 91.6231 38.5764 93.2319C39.0746 94.6118 39.3583 95.229 38.4726 96.4841C36.6181 99.1122 32.245 102.156 29.2004 103.162C26.5572 104.036 24.1353 103.3 22.2394 101.296V101.303ZM30.0377 87.8023C28.8129 88.0103 25.5538 89.9034 24.6335 90.8049C22.8483 92.5592 22.6061 94.7644 23.1874 97.0804C23.7963 99.5144 25.3601 101.095 28.0518 100.534C29.7817 100.173 32.9854 97.753 34.2863 96.4841C34.7914 95.9917 35.4833 95.4439 35.2896 94.6534C33.9195 92.7326 33.1169 87.2892 30.0446 87.8023H30.0377Z" fill="#D6C2B8"/>
<path d="M47.8347 78.5935C47.8762 78.6213 48.4782 79.2523 48.5197 79.3147C49.4054 80.7085 50.1596 82.8165 51.0661 84.2797C51.3498 84.7373 51.8964 84.349 51.4605 85.2366C51.8895 85.0424 52.4777 85.7359 52.5953 86.0757C52.6714 86.3045 52.4915 86.5611 52.5607 86.7691C52.7752 87.4348 53.7647 87.8023 53.3219 89.099C52.8167 90.5622 51.1076 88.8147 50.6232 88.2946C49.184 86.7691 47.5648 84.3421 46.9005 82.3519C46.7829 82.0052 47.3296 81.7279 46.693 81.5753C46.8936 80.7571 46.1186 80.0775 46.2501 79.28C46.4162 78.2607 46.9767 78.0319 47.8416 78.6005L47.8347 78.5935Z" fill="#D6C2B8"/>
<path d="M44.7071 83.1702C45.2191 83.1008 45.9941 83.8012 46.3193 84.2034C46.6791 84.6472 47.9938 87.5527 48.2152 88.1906C48.4989 89.0019 49.1632 90.999 47.9661 91.3111C47.4057 91.3873 46.8798 90.9089 46.5338 90.5067C46.2709 90.1946 45.226 88.5512 45.0738 88.1906C44.8247 87.6012 43.8975 84.356 43.9321 83.8636C43.9597 83.4961 44.368 83.2257 44.7071 83.1771V83.1702Z" fill="#D6C2B8"/>
<path d="M43.8629 166.833C45.3852 166.493 45.745 168.136 46.0494 169.384C46.3539 170.633 46.6376 171.811 45.2883 172.595C42.9841 172.921 41.5241 167.36 43.856 166.833H43.8629Z" fill="#D6C2B8"/>
<path d="M37.7668 130.913C39.6696 130.816 41.3926 136.107 38.9431 136.495C37.8083 136.675 37.0679 134.748 36.8465 133.846C36.5697 132.737 36.1338 131.003 37.7668 130.92V130.913Z" fill="#D6C2B8"/>
<path d="M12.725 126.184C12.303 125.511 12.123 124.755 12.4275 123.972C12.5036 123.777 13.6315 121.787 13.7215 121.697C14.2819 121.142 15.1123 121.038 15.5897 121.732C16.9252 123.653 15.0016 126.732 12.7181 126.184H12.725Z" fill="#D6C2B8"/>
<path d="M41.6694 151.293C41.5656 151.438 41.6209 151.681 41.614 151.861L41.0881 151.438L40.673 151.882L39.3029 151.438C39.552 150.28 38.8739 147.833 39.9395 147.139C41.6901 146.009 42.4859 147.638 42.4305 149.206C42.4305 149.303 42.2437 150.794 42.216 150.877C42.133 151.133 41.7663 151.133 41.6625 151.286L41.6694 151.293Z" fill="#D6C2B8"/>
<path d="M24.1422 171.236C25.7822 170.667 26.1074 172.193 26.2527 173.462C26.3842 174.627 26.571 176.021 25.1041 176.201C22.6338 176.513 22.876 171.673 24.1492 171.229L24.1422 171.236Z" fill="#D6C2B8"/>
<path d="M15.1538 189.861C14.5518 190.111 13.8045 190.028 13.2924 189.612C13.0433 188.454 12.7804 184.938 14.3373 184.758C16.6761 184.48 15.8111 188.669 15.1538 189.861Z" fill="#D6C2B8"/>
<path d="M31.9682 142.618L31.553 142.722C33.3106 145.031 29.9962 146.82 29.3388 143.894C29.2419 143.45 28.9513 141.016 29.1381 140.732C29.3596 140.399 30.5843 140.253 30.9165 140.406C31.8852 140.836 31.4769 141.98 31.9751 142.618H31.9682Z" fill="#D6C2B8"/>
<path d="M24.3637 150.648C27.2768 149.788 26.9585 155.114 25.5538 155.384C23.4503 155.786 22.8483 151.092 24.3637 150.648Z" fill="#D6C2B8"/>
<path d="M36.6873 182.289C36.8119 182.573 36.8672 182.934 36.8949 182.969C36.9849 183.114 37.3724 183.1 37.4346 183.329C37.8083 184.716 37.2686 186.477 35.5456 186.013C34.5146 185.736 34.3555 184.91 34.2793 183.912C34.1755 182.553 34.397 181.339 36.0646 181.506C36.7634 181.575 36.5559 181.984 36.6943 182.296L36.6873 182.289Z" fill="#D6C2B8"/>
<path d="M16.8145 163.067C17.3334 163.788 16.9736 166.867 16.0533 167.103C14.7525 167.436 14.1366 166.826 14.0398 165.529C14.0121 165.175 14.1505 163.386 14.2543 163.206C14.6348 162.568 16.3024 162.353 16.8145 163.06V163.067Z" fill="#D6C2B8"/>
<path d="M15.5136 145.454C16.8837 145.406 17.1881 146.626 17.1051 147.777C16.9183 150.273 13.8737 150.918 13.936 148.415C13.9636 147.326 14.1643 145.503 15.5136 145.461V145.454Z" fill="#D6C2B8"/>
<path d="M34.8606 164.426C34.3209 164.974 32.7709 164.392 32.6117 163.525C32.3626 162.2 32.4041 159.94 33.9749 159.475C35.2273 160.079 35.594 163.698 34.8675 164.426H34.8606Z" fill="#D6C2B8"/>
<path d="M29.8163 124.589C32.6048 123.75 31.7883 128.77 30.5982 128.957C28.0518 129.373 28.46 124.991 29.8163 124.589Z" fill="#D6C2B8"/>
<path d="M17.4511 110.713C19.4577 110.318 19.9975 112.613 17.9977 113.792C15.0708 115.519 13.9083 111.407 17.4511 110.713Z" fill="#D6C2B8"/>
<path d="M35.7255 113.002C35.6978 113.598 36.3829 113.418 36.6112 113.757C37.144 114.555 35.4487 117.856 33.6981 117.03C31.9475 116.205 34.141 112.96 35.7255 113.002Z" fill="#D6C2B8"/>
<path d="M22.9037 132.369C23.3534 132.757 23.8378 137.133 21.4298 136.523C20.5164 135.725 20.1358 132.494 21.4298 132.14C21.7412 132.057 22.6961 132.189 22.9037 132.369Z" fill="#D6C2B8"/>
<path d="M24.1838 116.802C24.336 117.287 24.7235 117.828 24.7442 118.334C24.7996 119.638 24.3914 120.803 22.8967 120.726C21.0077 119.555 21.3952 115.9 24.1838 116.802Z" fill="#D6C2B8"/>
</g>
<defs>
<clipPath id="clip0_228_3053">
<rect width="160" height="190" fill="white"/>
</clipPath>
</defs>
</svg>
