<svg width="856" height="97" viewBox="0 0 856 97" fill="none" xmlns="http://www.w3.org/2000/svg">
<g clip-path="url(#clip0_959_2732)">
<path d="M90.3938 31.7784C92.5123 28.986 91.5063 22.3305 87.7551 15.8035C83.7311 8.80115 77.9978 4.46696 74.5748 5.69184C73.2278 2.45404 66.9872 0 59.4848 0C51.4368 0 44.8381 2.82236 44.1817 6.41135C40.7161 5.96165 35.4814 10.1674 31.7345 16.6943C27.7063 23.7053 26.8409 30.8575 29.6074 33.2217C27.4889 36.014 28.4949 42.6695 32.246 49.1965C36.27 56.1989 42.0034 60.533 45.4264 59.3082C46.7734 62.546 53.014 65 60.5164 65C68.5644 65 75.1631 62.1776 75.8195 58.5887C79.2851 59.0383 84.5197 54.8326 88.2667 48.3057C92.2907 41.3033 93.1603 34.151 90.3938 31.7826V31.7784Z" fill="#EAEBE2"/>
<path d="M67.4241 25.4242C68.1563 24.6919 69.3435 24.6919 70.0757 25.4242C70.799 26.1474 70.8079 27.3145 70.1023 28.0487L60.1218 40.5243C60.1074 40.5423 60.092 40.5595 60.0757 40.5758C59.3435 41.3081 58.1563 41.3081 57.4241 40.5758L50.808 33.9597C50.0757 33.2275 50.0757 32.0403 50.808 31.3081C51.5402 30.5758 52.7274 30.5758 53.4596 31.3081L58.6934 36.5419L67.3743 25.4803C67.3898 25.4606 67.4064 25.4419 67.4241 25.4242Z" fill="#ACB18B"/>
</g>
<path d="M29.44 82L30.288 81.136L31.776 82.416C31.648 82.56 31.44 82.656 31.104 82.72C30.976 88.736 30.72 91.44 29.904 92.32C29.392 92.864 28.72 93.104 27.936 93.104C27.936 92.592 27.872 92.224 27.664 92C27.424 91.744 26.896 91.568 26.288 91.44L26.304 91.184C26.88 91.248 27.808 91.328 28.144 91.328C28.448 91.328 28.576 91.264 28.736 91.12C29.28 90.592 29.504 87.696 29.616 82.464H27.76C27.6 86.32 26.96 90.336 23.76 93.344L23.52 93.12C25.712 89.952 26.176 86.192 26.272 82.464H24.064L23.92 82H26.272C26.304 80.848 26.288 79.712 26.288 78.592L28.416 78.8C28.368 79.04 28.24 79.184 27.84 79.248C27.824 80.144 27.824 81.072 27.792 82H29.44ZM33.92 90.8H36.304V81.696H33.92V90.8ZM36.928 80.336L38.544 81.632C38.432 81.76 38.176 81.888 37.856 81.968V92.208C37.824 92.352 37.104 92.768 36.544 92.768H36.304V91.248H33.92V92.464C33.92 92.656 33.36 93.024 32.704 93.024H32.448V80.528L33.984 81.232H36.128L36.928 80.336ZM49.424 79.952L50.176 78.784L52.176 80.24C51.888 80.576 51.2 80.768 50.304 80.864V81.504C50.8 86.448 53.312 89.904 57.92 91.792L57.856 91.984C57.088 92.048 56.592 92.528 56.288 93.376C53.92 92.032 51.328 89.008 50.56 85.376C49.44 88.976 46.768 91.824 43.104 93.36L42.96 93.152C46.48 91.232 49.36 86.88 49.808 81.488V80.416H46.096L45.984 79.952H49.424ZM68.208 90.416H70.976V87.904H68.208V90.416ZM72.352 88.048V91.28C72.336 91.376 71.648 91.632 71.2 91.632H70.976V90.88H68.208V91.504C68.208 91.632 67.6 91.92 67.056 91.92H66.848V86.848L68.272 87.44H70.848L71.504 86.768L72.88 87.792C72.8 87.888 72.592 88.016 72.352 88.048ZM73.488 85.664H73.696C73.776 85.696 73.84 85.712 73.888 85.744V83.808H71.648V84V85.504C71.648 85.664 71.68 85.728 71.904 85.728H72.464C72.672 85.728 72.864 85.728 72.976 85.712H73.2C73.28 85.696 73.408 85.68 73.488 85.664ZM65.248 83.808V87.04C67.184 86.112 67.424 85.024 67.488 83.808H65.248ZM73.728 83.344L74.448 82.512L76.064 83.744C75.968 83.872 75.712 84.016 75.392 84.08V91.504C75.392 92.56 75.152 93.184 73.328 93.36C73.28 92.896 73.216 92.544 72.992 92.336C72.752 92.096 72.384 91.92 71.648 91.808V91.584C71.648 91.584 73.168 91.696 73.536 91.696C73.824 91.696 73.888 91.584 73.888 91.36V86.528C73.632 86.656 73.152 86.72 72.32 86.704H71.552C70.64 86.704 70.512 86.448 70.512 85.744V83.808H68.912C68.752 85.296 68.208 86.576 65.248 87.424V92.816C65.248 92.992 64.64 93.36 64 93.36H63.76V82.656L65.376 83.344H67.296C67.152 83.312 66.992 83.248 66.832 83.12C66.736 82.416 66.288 81.6 65.888 81.088L66.048 80.992C68.768 81.552 68.496 83.168 67.616 83.344H70.768C71.024 82.624 71.312 81.664 71.472 80.96L73.616 81.456C73.552 81.648 73.376 81.776 73.024 81.776C72.576 82.256 71.968 82.864 71.36 83.344H73.728ZM74 80.432L74.976 79.216C74.976 79.216 76.096 80.048 76.768 80.64C76.72 80.816 76.56 80.896 76.336 80.896H62.592L62.448 80.432H69.584C69.488 80.4 69.392 80.336 69.296 80.272C69.168 79.632 68.704 78.912 68.304 78.464L68.432 78.368C71.072 78.672 70.96 80.112 70.208 80.432H74ZM91.36 80.016H86.256V83.712H91.36V80.016ZM86.256 84.16V85.04C86.256 85.168 85.584 85.52 84.944 85.52H84.72V78.896L86.336 79.552H91.2L91.968 78.736L93.552 79.952C93.456 80.08 93.232 80.224 92.896 80.288V84.96C92.88 85.072 92.144 85.408 91.616 85.408H91.36V84.16H86.256ZM83.664 91.248H86.448V87.024H83.664V91.248ZM86.288 86.56L87.008 85.76L88.576 86.96C88.48 87.088 88.24 87.216 87.92 87.28V92.496C87.904 92.624 87.184 92.96 86.672 92.96H86.448V91.712H83.664V92.768C83.664 92.912 83.04 93.232 82.416 93.232H82.192V85.936L83.744 86.56H86.288ZM91.056 91.248H93.968V87.024H91.056V91.248ZM94.56 85.76L96.128 86.96C96.032 87.088 95.792 87.216 95.472 87.296V92.64C95.456 92.752 94.704 93.056 94.208 93.056H93.968V91.712H91.056V92.8C91.056 92.944 90.448 93.264 89.824 93.264H89.6V85.936L91.136 86.56H93.808L94.56 85.76Z" fill="#A3A3A3"/>
<path d="M229.333 36L224.333 33.1132V38.8868L229.333 36ZM136 36V36.5H224.833V36V35.5H136V36Z" fill="#ACB18B"/>
<g clip-path="url(#clip1_959_2732)">
<path d="M335.727 31.7784C337.846 28.986 336.84 22.3305 333.089 15.8035C329.065 8.80115 323.331 4.46696 319.908 5.69184C318.561 2.45404 312.321 0 304.818 0C296.77 0 290.171 2.82236 289.515 6.41135C286.049 5.96165 280.815 10.1674 277.068 16.6943C273.04 23.7053 272.174 30.8575 274.941 33.2217C272.822 36.014 273.828 42.6695 277.579 49.1965C281.603 56.1989 287.337 60.533 290.76 59.3082C292.107 62.546 298.347 65 305.85 65C313.898 65 320.496 62.1776 321.153 58.5887C324.618 59.0383 329.853 54.8326 333.6 48.3057C337.624 41.3033 338.494 34.151 335.727 31.7826V31.7784Z" fill="#979D6E"/>
<path d="M292.542 34.584C292.542 42.228 294.334 44.216 296.294 44.216C298.17 44.216 299.934 42.2 299.934 34.584C299.934 27.22 298.17 25.288 296.294 25.288C294.334 25.288 292.542 27.22 292.542 34.584ZM296.294 24.056C299.514 24.056 302.678 26.912 302.678 34.584C302.678 42.508 299.514 45.392 296.294 45.392C292.99 45.392 289.826 42.508 289.826 34.584C289.826 26.912 292.99 24.056 296.294 24.056ZM310.205 42.62H320.845V45H308.245V43.096C309.925 41.22 311.549 39.372 312.893 37.832C315.889 34.416 317.289 32.092 317.289 29.628C317.289 26.996 315.833 25.26 313.537 25.26C313.089 25.26 312.529 25.316 311.885 25.456L311.269 27.696C310.905 29.124 310.373 29.628 309.589 29.628C308.945 29.628 308.413 29.264 308.105 28.676C308.525 25.596 311.213 24.056 314.265 24.056C318.213 24.056 319.977 26.296 319.977 29.488C319.977 32.148 318.409 34.108 313.817 38.896C313.005 39.736 311.633 41.164 310.205 42.62Z" fill="white"/>
</g>
<path d="M274.725 87.616L274.773 87.792C273.829 88.464 272.357 89.392 270.309 90.576C270.245 90.784 270.117 90.928 269.941 90.992L269.029 89.184C269.461 89.088 270.149 88.896 271.013 88.672V83.536H269.205L269.077 83.072H271.013V78.816L273.061 79.008C273.029 79.232 272.901 79.392 272.469 79.456V83.072H272.869L273.589 81.952C273.589 81.952 274.405 82.736 274.869 83.28C274.837 83.456 274.677 83.536 274.453 83.536H272.469V88.272C273.189 88.064 273.957 87.84 274.725 87.616ZM272.453 93.392L272.357 93.2C273.925 92.384 275.637 90.928 276.421 89.92L278.341 90.88C278.229 91.04 277.973 91.12 277.525 91.056C276.373 91.92 274.405 92.88 272.453 93.392ZM279.445 90.384L279.557 90.144C286.181 91.392 283.653 94.256 282.485 92.976C281.973 92.192 280.981 91.184 279.445 90.384ZM276.709 87.952V89.328H280.949V87.952H276.709ZM280.949 82.608H276.709V83.984H280.949V82.608ZM276.709 86.176V87.488H280.949V86.176H276.709ZM280.949 85.712V84.448H276.709V85.712H280.949ZM282.437 88.944L282.885 88.336C282.885 88.336 283.701 89.024 284.197 89.536C284.149 89.712 284.005 89.792 283.781 89.792H273.077L272.949 89.328H275.285V81.504L276.885 82.144H277.925C277.941 81.744 277.973 81.264 278.005 80.752H274.037L273.909 80.288H278.037C278.069 79.664 278.101 79.04 278.117 78.48L280.229 78.672C280.197 78.928 280.005 79.088 279.653 79.152C279.605 79.488 279.557 79.872 279.493 80.288H281.525L282.437 79.152C282.437 79.152 283.445 79.936 284.069 80.496C284.037 80.672 283.861 80.752 283.637 80.752H279.429C279.349 81.248 279.269 81.728 279.205 82.144H280.773L281.461 81.248L283.157 82.464C283.045 82.64 282.837 82.72 282.437 82.784V88.944ZM291.477 89.248L291.749 89.264C292.181 90.944 291.573 92.064 290.901 92.496C290.469 92.768 289.845 92.736 289.653 92.272C289.493 91.856 289.749 91.488 290.149 91.28C290.741 90.976 291.429 90.176 291.477 89.248ZM292.853 89.184L293.061 89.136C295.637 91.04 294.005 93.184 293.045 91.968C293.221 91.056 293.077 89.968 292.853 89.184ZM294.821 89.008L294.997 88.928C298.261 90.144 297.045 92.512 295.893 91.552C295.797 90.72 295.285 89.68 294.821 89.008ZM296.853 88.752L296.997 88.624C300.741 88.96 300.085 91.424 298.789 90.784C298.453 90.08 297.557 89.216 296.853 88.752ZM300.549 87.68L301.317 86.928L302.741 88.096C302.629 88.224 302.437 88.304 302.101 88.352C301.909 90.928 301.493 92.368 300.773 92.88C300.325 93.216 299.749 93.376 299.013 93.376C299.029 92.96 298.965 92.592 298.757 92.4C298.549 92.192 298.053 92.016 297.509 91.904V91.664C298.069 91.712 298.981 91.776 299.301 91.776C299.557 91.776 299.701 91.76 299.829 91.648C300.181 91.36 300.501 90.16 300.677 88.144H293.077C291.781 88.992 290.149 89.808 288.357 90.256L288.229 90.064C290.277 89.12 292.149 87.568 293.045 86.304H292.245V86.448C292.229 86.56 291.781 86.928 291.013 86.928H290.789V81.712L292.309 82.112C293.045 81.664 293.781 81.152 294.197 80.768L295.781 81.92C295.637 82.08 295.349 82.096 294.949 81.984C294.277 82.24 293.253 82.528 292.245 82.736V84.048H293.621L294.277 83.216C294.277 83.216 295.061 83.792 295.541 84.256C295.509 84.432 295.349 84.512 295.125 84.512H292.245V85.84H299.109V84.464H296.501L296.357 84H299.109V82.544H296.181L296.037 82.08H298.949L299.685 81.296L300.757 82.128C300.869 81.696 300.981 81.152 301.061 80.704H290.533C290.597 81.696 290.213 82.384 289.733 82.672C289.301 82.944 288.661 82.88 288.469 82.384C288.325 81.936 288.597 81.568 288.997 81.36C289.557 81.072 290.069 80.304 289.989 79.472H290.245C290.341 79.744 290.421 80 290.469 80.24H295.557C295.413 80.192 295.285 80.128 295.157 80.016C295.221 79.456 294.949 78.816 294.597 78.464L294.725 78.368C297.189 78.512 296.965 79.952 296.149 80.24H300.965L301.765 79.408L303.221 80.8C303.093 80.928 302.917 80.96 302.613 80.976C302.229 81.408 301.605 81.968 301.045 82.352L301.221 82.48C301.125 82.592 300.885 82.72 300.581 82.784V86.336C300.565 86.448 299.829 86.736 299.349 86.736H299.109V86.304H293.125L295.189 86.848C295.125 87.008 294.901 87.104 294.421 87.104C294.213 87.296 293.973 87.488 293.733 87.68H300.549ZM309.813 78.608L309.957 78.528C313.717 79.056 312.389 81.952 310.949 80.928C310.869 80.112 310.325 79.168 309.813 78.608ZM312.517 85.584L313.317 84.576C313.317 84.576 314.213 85.264 314.757 85.792C314.709 85.968 314.549 86.048 314.341 86.048H308.421L308.293 85.584H312.517ZM312.517 83.52L313.317 82.512C313.317 82.512 314.213 83.2 314.757 83.728C314.709 83.904 314.549 83.984 314.341 83.984H308.421L308.293 83.52H312.517ZM309.989 91.248H312.805V88.192H309.989V91.248ZM312.645 87.728L313.349 86.96L314.853 88.112C314.757 88.24 314.517 88.368 314.197 88.432V92.16C314.181 92.272 313.509 92.576 313.029 92.576H312.805V91.696H309.989V92.656C309.989 92.784 309.381 93.104 308.805 93.104H308.613V87.12L310.053 87.728H312.645ZM313.269 81.472L314.085 80.4C314.085 80.4 315.029 81.136 315.605 81.68C315.573 81.856 315.397 81.936 315.173 81.936H307.589L307.477 81.472H313.269ZM319.877 80.064L320.821 78.816C320.821 78.816 321.861 79.664 322.517 80.272C322.469 80.448 322.293 80.528 322.069 80.528H319.733V91.28C319.733 92.352 319.461 93.136 317.541 93.296C317.509 92.816 317.397 92.416 317.141 92.208C316.869 91.952 316.469 91.776 315.589 91.648V91.424C315.589 91.424 317.461 91.552 317.845 91.552C318.149 91.552 318.229 91.44 318.229 91.216V80.528H314.965L314.837 80.064H319.877ZM338.677 79.872H336.309V81.76H338.677V79.872ZM336.309 82.208V82.48C336.309 82.608 335.653 82.928 335.045 82.928H334.837V78.784L336.389 79.424H338.533L339.221 78.64L340.789 79.792C340.677 79.904 340.437 80.048 340.133 80.112V82.416C340.117 82.528 339.397 82.832 338.917 82.832H338.677V82.208H336.309ZM330.469 87.904H333.317V86.16H330.469V87.904ZM333.317 84H330.469V85.696H333.317V84ZM337.733 84H334.885V85.696H337.733V84ZM334.885 87.904H337.733V86.16H334.885V87.904ZM332.037 79.872H329.653V81.76H332.037V79.872ZM338.885 89.952L339.861 88.736C339.861 88.736 340.965 89.552 341.653 90.16C341.605 90.336 341.445 90.416 341.205 90.416H334.885V92.976C334.885 93.072 334.389 93.36 333.589 93.36H333.317V90.416H326.773L326.629 89.952H333.317V88.368H330.469V88.752C330.469 88.896 329.797 89.232 329.189 89.232H328.965V82.992C328.789 83.04 328.597 83.072 328.421 83.072H328.213V78.8L329.717 79.424H331.877L332.581 78.656L334.117 79.792C334.021 79.904 333.781 80.032 333.477 80.096V82.384C333.461 82.496 332.757 82.784 332.277 82.784H332.037V82.208H329.653V82.624C329.653 82.704 329.445 82.832 329.141 82.944L330.597 83.536H337.573L338.341 82.736L339.909 83.936C339.813 84.032 339.589 84.16 339.269 84.224V88.528C339.253 88.64 338.517 88.992 337.989 88.992H337.733V88.368H334.885V89.952H338.885Z" fill="black"/>
<path d="M474.667 36L469.667 33.1132V38.8868L474.667 36ZM381.333 36V36.5H470.167V36V35.5H381.333V36Z" fill="#ACB18B"/>
<g clip-path="url(#clip2_959_2732)">
<path d="M550.151 0.5C553.852 0.5 557.227 1.10563 559.827 2.09863C562.453 3.1017 564.187 4.45838 564.78 5.88379L564.963 6.32227L565.41 6.16309C566.868 5.64128 568.968 6.27673 571.302 8.05957C573.604 9.81735 576.002 12.5971 577.988 16.0527C579.839 19.2728 581.005 22.5111 581.449 25.2705C581.898 28.0583 581.595 30.2469 580.662 31.4766L580.56 31.6104V32.0127L580.735 32.1621C581.916 33.1728 582.417 35.321 582.048 38.2432C581.706 40.9445 580.632 44.1685 578.863 47.4082L578.5 48.0566C576.651 51.2767 574.443 53.9104 572.288 55.6768C570.11 57.4615 568.074 58.2905 566.551 58.0928L566.08 58.0312L565.995 58.499C565.714 60.0311 564.114 61.5406 561.412 62.6797C558.747 63.803 555.154 64.5 551.183 64.5C547.483 64.5 544.109 63.8943 541.509 62.9014C538.882 61.8983 537.147 60.5417 536.554 59.1162L536.372 58.6777L535.925 58.8369C534.466 59.3587 532.366 58.7233 530.032 56.9404C527.731 55.1826 525.332 52.403 523.346 48.9473C521.496 45.7272 520.33 42.4889 519.885 39.7295C519.437 36.9417 519.74 34.7531 520.673 33.5234L520.958 33.1484L520.599 32.8418C519.419 31.8332 518.917 29.6865 519.286 26.7637C519.627 24.0617 520.7 20.8355 522.471 17.5918L522.835 16.9434C524.683 13.7232 526.892 11.0896 529.048 9.32324C531.226 7.53871 533.261 6.70961 534.784 6.90723L535.255 6.96875L535.341 6.50098C535.621 4.9689 537.221 3.4594 539.923 2.32031C542.587 1.19699 546.18 0.50005 550.151 0.5Z" stroke="#979D6E"/>
<path d="M537.876 34.584C537.876 42.228 539.668 44.216 541.628 44.216C543.504 44.216 545.268 42.2 545.268 34.584C545.268 27.22 543.504 25.288 541.628 25.288C539.668 25.288 537.876 27.22 537.876 34.584ZM541.628 24.056C544.848 24.056 548.012 26.912 548.012 34.584C548.012 42.508 544.848 45.392 541.628 45.392C538.324 45.392 535.16 42.508 535.16 34.584C535.16 26.912 538.324 24.056 541.628 24.056ZM557.639 25.428L557.135 27.22C556.799 28.48 556.379 29.068 555.399 29.068C554.755 29.068 554.251 28.788 553.971 28.004C554.531 25.344 556.883 24.056 559.711 24.056C563.267 24.056 565.507 26.072 565.507 29.068C565.507 31.42 563.967 33.296 561.167 34.164C564.583 34.78 566.151 36.824 566.151 39.568C566.151 42.928 563.379 45.392 559.291 45.392C556.239 45.392 553.971 44.104 553.411 41.136C553.747 40.464 554.251 40.156 554.895 40.156C555.847 40.156 556.211 40.772 556.575 42.172L557.079 43.992C557.695 44.16 558.283 44.216 558.843 44.216C561.783 44.216 563.463 42.284 563.463 39.512C563.463 36.656 561.867 34.864 558.703 34.864H557.247V33.492H558.451C561.195 33.492 562.931 31.952 562.931 29.208C562.931 26.66 561.531 25.26 559.123 25.26C558.703 25.26 558.199 25.288 557.639 25.428Z" fill="#979D6E"/>
</g>
<path d="M516.891 90.448H518.491V85.312H516.891V90.448ZM519.003 84.112L520.443 85.216C520.331 85.344 520.107 85.472 519.803 85.536V91.552C519.787 91.648 519.147 91.936 518.699 91.936H518.491V90.912H516.891V92.256C516.891 92.352 516.475 92.672 515.819 92.672H515.595V86.992C515.259 87.536 514.891 88.064 514.523 88.56L514.283 88.4C515.371 86.208 516.075 83.232 516.443 80.528H514.571L514.443 80.064H518.379L519.211 79.008C519.211 79.008 520.171 79.744 520.747 80.272C520.715 80.448 520.555 80.528 520.331 80.528H517.963C517.707 82 517.291 83.408 516.747 84.704L517.083 84.848H518.331L519.003 84.112ZM524.619 84.592H522.667V86.656H524.619V84.592ZM524.619 89.184V87.12H522.667V89.184H524.619ZM524.619 91.872V89.648H522.667V91.872H524.619ZM527.227 82.96L527.003 82.848C527.131 82.432 527.323 81.728 527.467 81.168H524.347C523.931 82.128 523.435 83.152 522.811 84.112L522.859 84.128H526.907L527.627 83.232C527.627 83.232 528.475 83.856 529.003 84.336C528.955 84.512 528.811 84.592 528.587 84.592H525.931V86.656H526.747L527.435 85.728C527.435 85.728 528.235 86.4 528.715 86.864C528.683 87.04 528.523 87.12 528.299 87.12H525.931V89.184H526.843L527.531 88.24C527.531 88.24 528.331 88.912 528.827 89.392C528.795 89.568 528.635 89.648 528.411 89.648H525.931V91.872H527.195L527.963 90.848C527.963 90.848 528.859 91.568 529.371 92.08C529.323 92.256 529.179 92.336 528.955 92.336H522.667V92.88C522.667 92.992 522.235 93.312 521.579 93.312H521.339V86.096C520.939 86.544 520.491 86.976 520.043 87.36L519.867 87.216C521.211 85.536 522.219 83.28 522.907 81.168H521.723C521.755 82.032 521.547 82.656 521.211 82.992C520.907 83.312 520.251 83.344 520.027 82.912C519.851 82.528 520.059 82.128 520.427 81.888C520.811 81.568 521.275 80.736 521.259 80.032H521.531C521.595 80.272 521.643 80.496 521.675 80.704H523.035C523.275 79.904 523.451 79.152 523.611 78.448L525.643 79.088C525.579 79.28 525.435 79.392 525.019 79.376C524.875 79.808 524.715 80.24 524.539 80.704H527.387L528.107 79.968L529.403 81.232C529.291 81.36 529.131 81.392 528.811 81.408C528.411 81.84 527.691 82.56 527.227 82.96ZM524.219 81.856L524.395 81.76C527.179 82.8 525.867 84.8 524.907 83.856C524.923 83.184 524.587 82.368 524.219 81.856ZM542.827 80.096H540.091L539.947 79.632H546.091L546.827 78.88L548.219 80.032C548.107 80.16 547.915 80.256 547.595 80.304C547.499 83.744 547.243 85.28 546.619 85.824C546.203 86.192 545.643 86.336 544.939 86.336C544.939 85.952 544.891 85.648 544.683 85.456C544.475 85.248 544.011 85.104 543.515 85.008V84.752C544.011 84.8 544.859 84.864 545.147 84.864C545.403 84.864 545.531 84.832 545.643 84.72C545.979 84.4 546.155 82.928 546.235 80.096H544.363C544.011 83.312 543.163 85.616 539.659 86.912L539.547 86.672C540.939 85.808 541.755 84.768 542.203 83.488C541.995 83.648 541.675 83.648 541.355 83.408C541.179 82.704 540.539 81.76 540.043 81.2L540.203 81.104C541.691 81.52 542.315 82.176 542.443 82.72C542.651 81.92 542.763 81.04 542.827 80.096ZM543.099 86.288L543.275 86.192C546.907 87.728 545.627 90.464 544.395 89.36C544.363 88.336 543.739 87.088 543.099 86.288ZM535.131 78.8L535.259 78.704C538.939 79.2 537.707 81.904 536.299 80.96C536.171 80.224 535.595 79.328 535.131 78.8ZM537.739 81.552L538.523 80.576C538.523 80.576 539.403 81.264 539.915 81.76C539.883 81.936 539.723 82.016 539.499 82.016H533.723L533.595 81.552H537.739ZM534.251 83.584H537.275L537.995 82.688C537.995 82.688 538.827 83.312 539.323 83.792C539.291 83.968 539.131 84.048 538.907 84.048H534.379L534.251 83.584ZM537.275 85.648L537.995 84.736C537.995 84.736 538.827 85.376 539.307 85.856C539.275 86.032 539.115 86.112 538.891 86.112H534.379L534.251 85.648H537.275ZM535.723 91.328H537.595V88.16H535.723V91.328ZM538.107 86.976L539.531 88.08C539.435 88.192 539.211 88.32 538.907 88.384V92.16C538.907 92.288 538.251 92.592 537.819 92.592H537.595V91.792H535.723V92.752C535.723 92.88 535.147 93.184 534.619 93.184H534.427V87.12L535.787 87.712H537.451L538.107 86.976ZM540.235 88.016L540.491 88.032C541.019 89.696 540.891 90.992 540.491 91.632C540.219 92.08 539.515 92.208 539.211 91.792C538.987 91.424 539.131 90.992 539.483 90.688C539.867 90.224 540.315 89.024 540.235 88.016ZM546.475 89.776L546.523 91.6C546.891 91.744 546.987 91.92 546.987 92.16C546.987 92.704 546.443 92.976 544.315 92.976H542.939C541.691 92.976 541.467 92.704 541.467 91.792V87.424L543.259 87.6C543.243 87.808 543.083 87.952 542.779 88V91.472C542.779 91.68 542.843 91.728 543.275 91.728H544.411H545.451C545.611 91.712 545.691 91.68 545.755 91.536C545.883 91.312 546.075 90.576 546.283 89.776H546.475ZM546.155 87.808L546.347 87.728C549.867 89.744 548.507 92.592 547.291 91.392C547.307 90.208 546.731 88.768 546.155 87.808ZM555.147 78.608L555.291 78.528C559.051 79.056 557.723 81.952 556.283 80.928C556.203 80.112 555.659 79.168 555.147 78.608ZM557.851 85.584L558.651 84.576C558.651 84.576 559.547 85.264 560.091 85.792C560.043 85.968 559.883 86.048 559.675 86.048H553.755L553.627 85.584H557.851ZM557.851 83.52L558.651 82.512C558.651 82.512 559.547 83.2 560.091 83.728C560.043 83.904 559.883 83.984 559.675 83.984H553.755L553.627 83.52H557.851ZM555.323 91.248H558.139V88.192H555.323V91.248ZM557.979 87.728L558.683 86.96L560.187 88.112C560.091 88.24 559.851 88.368 559.531 88.432V92.16C559.515 92.272 558.843 92.576 558.363 92.576H558.139V91.696H555.323V92.656C555.323 92.784 554.715 93.104 554.139 93.104H553.947V87.12L555.387 87.728H557.979ZM558.603 81.472L559.419 80.4C559.419 80.4 560.363 81.136 560.939 81.68C560.907 81.856 560.731 81.936 560.507 81.936H552.923L552.811 81.472H558.603ZM565.211 80.064L566.155 78.816C566.155 78.816 567.195 79.664 567.851 80.272C567.803 80.448 567.627 80.528 567.403 80.528H565.067V91.28C565.067 92.352 564.795 93.136 562.875 93.296C562.843 92.816 562.731 92.416 562.475 92.208C562.203 91.952 561.803 91.776 560.923 91.648V91.424C560.923 91.424 562.795 91.552 563.179 91.552C563.483 91.552 563.563 91.44 563.563 91.216V80.528H560.299L560.171 80.064H565.211ZM584.011 79.872H581.643V81.76H584.011V79.872ZM581.643 82.208V82.48C581.643 82.608 580.987 82.928 580.379 82.928H580.171V78.784L581.723 79.424H583.867L584.555 78.64L586.123 79.792C586.011 79.904 585.771 80.048 585.467 80.112V82.416C585.451 82.528 584.731 82.832 584.251 82.832H584.011V82.208H581.643ZM575.803 87.904H578.651V86.16H575.803V87.904ZM578.651 84H575.803V85.696H578.651V84ZM583.067 84H580.219V85.696H583.067V84ZM580.219 87.904H583.067V86.16H580.219V87.904ZM577.371 79.872H574.987V81.76H577.371V79.872ZM584.219 89.952L585.195 88.736C585.195 88.736 586.299 89.552 586.987 90.16C586.939 90.336 586.779 90.416 586.539 90.416H580.219V92.976C580.219 93.072 579.723 93.36 578.923 93.36H578.651V90.416H572.107L571.963 89.952H578.651V88.368H575.803V88.752C575.803 88.896 575.131 89.232 574.523 89.232H574.299V82.992C574.123 83.04 573.931 83.072 573.755 83.072H573.547V78.8L575.051 79.424H577.211L577.915 78.656L579.451 79.792C579.355 79.904 579.115 80.032 578.811 80.096V82.384C578.795 82.496 578.091 82.784 577.611 82.784H577.371V82.208H574.987V82.624C574.987 82.704 574.779 82.832 574.475 82.944L575.931 83.536H582.907L583.675 82.736L585.243 83.936C585.147 84.032 584.923 84.16 584.603 84.224V88.528C584.587 88.64 583.851 88.992 583.323 88.992H583.067V88.368H580.219V89.952H584.219Z" fill="#525252"/>
<path d="M720 36L715 33.1132V38.8868L720 36ZM626.667 36V36.5H715.5V36V35.5H626.667V36Z" fill="#ACB18B"/>
<g clip-path="url(#clip3_959_2732)">
<path d="M795.484 0.5C799.185 0.5 802.56 1.10563 805.16 2.09863C807.787 3.1017 809.52 4.45838 810.113 5.88379L810.296 6.32227L810.743 6.16309C812.201 5.64128 814.301 6.27673 816.636 8.05957C818.937 9.81735 821.335 12.5971 823.321 16.0527C825.172 19.2728 826.338 22.5111 826.782 25.2705C827.231 28.0583 826.928 30.2469 825.995 31.4766L825.894 31.6104V32.0127L826.068 32.1621C827.249 33.1728 827.751 35.321 827.381 38.2432C827.039 40.9445 825.965 44.1685 824.196 47.4082L823.833 48.0566C821.984 51.2767 819.777 53.9104 817.621 55.6768C815.443 57.4615 813.407 58.2905 811.884 58.0928L811.413 58.0312L811.328 58.499C811.048 60.0311 809.447 61.5406 806.745 62.6797C804.08 63.803 800.487 64.5 796.517 64.5C792.816 64.5 789.442 63.8943 786.842 62.9014C784.215 61.8983 782.481 60.5417 781.888 59.1162L781.705 58.6777L781.258 58.8369C779.8 59.3587 777.7 58.7233 775.365 56.9404C773.064 55.1826 770.666 52.403 768.68 48.9473C766.829 45.7272 765.663 42.4889 765.219 39.7295C764.77 36.9417 765.073 34.7531 766.006 33.5234L766.291 33.1484L765.933 32.8418C764.752 31.8332 764.25 29.6865 764.619 26.7637C764.961 24.0617 766.034 20.8355 767.805 17.5918L768.168 16.9434C770.017 13.7232 772.225 11.0896 774.381 9.32324C776.559 7.53871 778.594 6.70961 780.117 6.90723L780.588 6.96875L780.674 6.50098C780.954 4.9689 782.554 3.4594 785.256 2.32031C787.92 1.19699 791.514 0.50005 795.484 0.5Z" stroke="#979D6E"/>
<path d="M783.209 34.584C783.209 42.228 785.001 44.216 786.961 44.216C788.837 44.216 790.601 42.2 790.601 34.584C790.601 27.22 788.837 25.288 786.961 25.288C785.001 25.288 783.209 27.22 783.209 34.584ZM786.961 24.056C790.181 24.056 793.345 26.912 793.345 34.584C793.345 42.508 790.181 45.392 786.961 45.392C783.657 45.392 780.493 42.508 780.493 34.584C780.493 26.912 783.657 24.056 786.961 24.056ZM799.78 36.824H806.556V27.052L799.78 36.824ZM812.268 36.824V38.616H809.02V45H806.556V38.616H798.24V37.132L807.312 24.168H809.02V36.824H812.268Z" fill="#979D6E"/>
</g>
<path d="M765.808 78.592L765.952 78.48C769.968 78.832 768.512 81.936 766.96 80.784C766.896 80 766.4 79.104 765.808 78.592ZM772.304 81.584H762.224C762.304 82.704 761.888 83.472 761.344 83.824C760.864 84.16 760.096 84.048 759.872 83.472C759.696 82.944 760.016 82.512 760.496 82.272C761.072 81.952 761.728 81.136 761.68 80.224H761.92C762.032 80.528 762.112 80.832 762.16 81.12H772.24L773.104 80.224L774.656 81.712C774.528 81.84 774.352 81.872 774.032 81.888C773.488 82.448 772.576 83.2 771.84 83.632L771.68 83.52C771.888 82.992 772.144 82.208 772.304 81.584ZM769.248 83.76L770.112 82.704C770.112 82.704 771.088 83.424 771.696 83.968C771.664 84.144 771.488 84.224 771.264 84.224H762.816L762.688 83.76H769.248ZM774.144 89.168L774.192 91.36C774.64 91.52 774.752 91.696 774.752 92C774.752 92.624 774.144 92.928 771.504 92.928H769.808C768.32 92.928 768 92.624 768 91.552V86.864H766.048C765.76 89.776 765.04 92.064 759.872 93.376L759.728 93.152C763.664 91.472 764.208 89.312 764.384 86.864H760.56L760.432 86.4H771.68L772.576 85.312C772.576 85.312 773.6 86.064 774.24 86.608C774.192 86.784 774.032 86.864 773.808 86.864H769.52V87.04V91.2C769.52 91.44 769.584 91.52 770.128 91.52H771.632C772.224 91.52 772.736 91.504 772.96 91.504C773.152 91.488 773.232 91.44 773.312 91.264C773.472 90.992 773.696 90.16 773.952 89.168H774.144ZM789.136 79.04L789.264 78.896C793.024 78.88 792.336 81.536 790.944 80.88C790.656 80.208 789.824 79.44 789.136 79.04ZM793.664 88.992L793.328 91.552C793.872 92.352 793.936 92.72 793.728 92.944C793.168 93.536 791.968 92.992 791.216 92.384C790.368 91.728 789.664 90.944 789.088 90.064C787.84 91.36 786.224 92.48 784.176 93.248L784.048 93.056C785.936 92.016 787.392 90.592 788.496 89.008C787.536 87.072 787.056 84.752 786.848 82.208H782.032V84.8H784.288L785.056 84.032L786.48 85.216C786.384 85.344 786.192 85.424 785.872 85.472C785.792 88.8 785.552 90.144 784.912 90.688C784.512 91.008 783.984 91.168 783.328 91.168C783.328 90.784 783.28 90.416 783.088 90.208C782.912 90 782.528 89.856 782.064 89.76L782.08 89.504C782.48 89.552 783.2 89.6 783.472 89.6C783.696 89.6 783.824 89.568 783.92 89.456C784.208 89.184 784.368 87.904 784.432 85.264H782.032C782.032 87.792 781.808 91.2 778.976 93.44L778.8 93.28C780.352 90.896 780.512 87.904 780.512 85.2V81.088L782.272 81.76H786.816C786.736 80.72 786.704 79.632 786.704 78.528L788.8 78.736C788.768 78.944 788.64 79.136 788.24 79.2C788.224 80.064 788.24 80.912 788.288 81.76H791.184L792.112 80.592C792.112 80.592 793.168 81.408 793.792 81.952C793.744 82.128 793.584 82.208 793.344 82.208H788.32C788.464 84.112 788.784 85.936 789.408 87.488C790.08 86.224 790.56 84.912 790.864 83.616L793.008 84.304C792.944 84.496 792.8 84.608 792.368 84.592C791.856 86.048 791.136 87.52 790.112 88.864C790.624 89.68 791.264 90.384 792.064 90.928C792.336 91.152 792.448 91.152 792.608 90.848C792.848 90.464 793.216 89.632 793.472 88.944L793.664 88.992ZM800.48 78.608L800.624 78.528C804.384 79.056 803.056 81.952 801.616 80.928C801.536 80.112 800.992 79.168 800.48 78.608ZM803.184 85.584L803.984 84.576C803.984 84.576 804.88 85.264 805.424 85.792C805.376 85.968 805.216 86.048 805.008 86.048H799.088L798.96 85.584H803.184ZM803.184 83.52L803.984 82.512C803.984 82.512 804.88 83.2 805.424 83.728C805.376 83.904 805.216 83.984 805.008 83.984H799.088L798.96 83.52H803.184ZM800.656 91.248H803.472V88.192H800.656V91.248ZM803.312 87.728L804.016 86.96L805.52 88.112C805.424 88.24 805.184 88.368 804.864 88.432V92.16C804.848 92.272 804.176 92.576 803.696 92.576H803.472V91.696H800.656V92.656C800.656 92.784 800.048 93.104 799.472 93.104H799.28V87.12L800.72 87.728H803.312ZM803.936 81.472L804.752 80.4C804.752 80.4 805.696 81.136 806.272 81.68C806.24 81.856 806.064 81.936 805.84 81.936H798.256L798.144 81.472H803.936ZM810.544 80.064L811.488 78.816C811.488 78.816 812.528 79.664 813.184 80.272C813.136 80.448 812.96 80.528 812.736 80.528H810.4V91.28C810.4 92.352 810.128 93.136 808.208 93.296C808.176 92.816 808.064 92.416 807.808 92.208C807.536 91.952 807.136 91.776 806.256 91.648V91.424C806.256 91.424 808.128 91.552 808.512 91.552C808.816 91.552 808.896 91.44 808.896 91.216V80.528H805.632L805.504 80.064H810.544ZM821.088 80.032H819.44V82.416H821.088V80.032ZM819.44 85.296H821.088V82.88H819.44V85.296ZM819.44 88.256H821.088V85.76H819.44V88.256ZM819.44 88.704V89.312C819.44 89.344 819.376 89.424 819.264 89.488L820.768 90.176C820.672 90.336 820.544 90.432 820.176 90.384C819.616 91.36 818.64 92.592 817.44 93.344L817.264 93.152C818.048 92.192 818.672 90.704 818.96 89.6C818.8 89.664 818.576 89.696 818.336 89.696H818.112V78.976L819.616 79.568H821.024L821.712 78.752L823.12 79.856C822.992 79.984 822.8 80.096 822.464 80.16V89.072C822.464 89.152 821.984 89.472 821.312 89.472H821.088V88.704H819.44ZM820.448 89.552L820.624 89.456C824.032 90.832 822.704 93.36 821.504 92.304C821.472 91.392 820.944 90.272 820.448 89.552ZM827.856 89.648H829.456V87.984H827.856V89.648ZM824.96 87.984V89.648H826.544V87.984H824.96ZM826.544 85.904H824.96V87.52H826.544V85.904ZM829.456 85.904H827.856V87.52H829.456V85.904ZM826.224 82.496V83.856H828.112V82.496H826.224ZM826.224 80.784V82.032H828.112V80.784H826.224ZM830.816 89.552L831.392 88.688C831.392 88.688 832.112 89.376 832.512 89.856C832.48 90.032 832.336 90.112 832.112 90.112H830.816V91.616C830.816 92.608 830.624 93.184 828.96 93.344C828.928 92.928 828.848 92.576 828.656 92.368C828.432 92.16 828.096 92 827.424 91.904V91.648C827.424 91.648 828.832 91.76 829.136 91.76C829.392 91.76 829.456 91.664 829.456 91.44V90.112H824.96V92.928C824.96 93.072 824.432 93.376 823.856 93.376H823.648V90.112H822.624L822.512 89.648H823.648V84.832L825.04 85.44H826.544V84.304H822.8L822.672 83.856H824.864V82.496H823.264L823.136 82.032H824.864V80.784H823.04L822.912 80.32H824.864V78.624L826.72 78.8C826.688 78.992 826.56 79.136 826.224 79.2V80.32H828.112V78.624L829.952 78.8C829.92 79.008 829.808 79.136 829.456 79.2V80.32H829.936L830.672 79.344C830.672 79.344 831.52 80.016 832.016 80.528C831.984 80.704 831.824 80.784 831.6 80.784H829.456V82.032H829.904L830.544 81.2C830.544 81.2 831.28 81.792 831.712 82.24C831.664 82.416 831.536 82.496 831.312 82.496H829.456V83.856H830.176L830.896 82.88C830.896 82.88 831.728 83.568 832.24 84.048C832.208 84.224 832.048 84.304 831.824 84.304H827.856V85.44H829.312L829.936 84.688L831.456 85.824C831.376 85.936 831.136 86.08 830.816 86.128V89.552Z" fill="#525252"/>
<defs>
<clipPath id="clip0_959_2732">
<rect width="64" height="65" fill="white" transform="translate(28)"/>
</clipPath>
<clipPath id="clip1_959_2732">
<rect width="64" height="65" fill="white" transform="translate(273.333)"/>
</clipPath>
<clipPath id="clip2_959_2732">
<rect width="64" height="65" fill="white" transform="translate(518.667)"/>
</clipPath>
<clipPath id="clip3_959_2732">
<rect width="64" height="65" fill="white" transform="translate(764)"/>
</clipPath>
</defs>
</svg>
