<svg width="131" height="180" viewBox="0 0 131 180" fill="none" xmlns="http://www.w3.org/2000/svg">
<g clip-path="url(#clip0_133_1034)">
<path d="M0.0531516 108.932H8.55609C8.39699 109.814 8.32628 109.814 7.90201 109.849C5.22385 110.008 5.70999 110.793 7.47775 113.766L11.305 120.162C11.305 120.162 11.4022 120.162 11.4375 120.126L14.4781 114.772C16.732 110.793 16.3784 109.973 13.8859 109.84C13.2318 109.805 13.2937 109.646 13.3909 108.923H20.8774C20.6476 109.84 20.515 109.77 20.1614 109.84C19.0124 110.07 18.9152 110.264 16.9883 113.589L12.18 121.882V124.202C12.18 130.404 12.4717 130.536 14.9642 130.73C14.7698 131.515 14.6018 131.771 14.1776 131.771H6.33754C6.47013 131.154 6.56735 130.827 6.99162 130.73C9.05106 130.307 9.05106 130.174 9.05106 125.508V122.508L3.74777 113.528C2.05072 110.652 2.05072 109.999 0.574641 109.84C-0.0175589 109.778 -0.0794305 109.743 0.0531516 108.923V108.932Z" fill="#979D6E"/>
<path d="M22.2916 123.911C22.2562 127.404 24.1919 130.174 27.1971 130.174C29.124 130.174 30.1758 129.46 31.2188 128.604C31.5458 128.34 31.7756 128.569 31.6077 128.931C30.989 130.201 29.2566 132.098 26.2072 132.098C22.1502 132.098 19.1715 129.451 19.1715 124.396C19.1715 120.541 22.2474 116.527 25.7741 116.527C28.5495 116.527 29.5659 117.374 30.3879 118.159C31.3337 119.077 31.8905 120.612 32.0585 122.535C32.1204 123.32 32.0585 123.646 31.3072 123.673C27.48 123.84 24.5367 123.805 22.2828 123.902L22.2916 123.911ZM28.9384 122.279C28.9384 119.729 27.86 117.709 25.8978 117.709C23.6705 117.709 22.2651 119.959 22.2651 122.799L28.9384 122.279Z" fill="#979D6E"/>
<path d="M35.0195 130.898C36.1332 130.704 36.2304 130.439 36.2304 127.016V119.412C36.2304 119.05 35.9652 118.565 35.2493 118.565H34.7632C34.3389 118.565 34.171 118.274 34.7013 118.071C36.142 117.515 37.5827 116.862 38.8202 116.342C39.05 116.245 39.2444 116.377 39.2091 116.633C39.1472 117.154 39.1737 118.786 39.1737 119.668C40.7735 117.612 41.9226 116.562 43.6196 116.562C46.8546 116.562 48.6931 118.715 48.6931 122.244V126.099C48.6931 130.669 48.6931 130.801 50.3283 130.898C50.0985 131.551 50.0631 131.78 49.6389 131.78H43.9467C44.0793 131.092 44.1058 130.968 44.5035 130.898C45.6172 130.739 45.7498 130.51 45.7498 127.475V124.67C45.7498 122.058 45.5907 118.662 43.0716 118.662C41.3392 118.662 40.5526 119.315 39.1826 120.462V126.108C39.1826 130.677 39.1472 130.81 40.8531 130.907C40.6233 131.56 40.5879 131.789 40.1637 131.789H34.4715C34.6041 131.101 34.6306 130.977 35.0283 130.907L35.0195 130.898Z" fill="#979D6E"/>
<path d="M52.4496 130.73C54.2174 130.501 54.5798 129.619 54.9068 126.716L56.5773 111.375C56.7099 110.105 56.4801 109.937 54.7742 109.84C54.2527 109.805 54.2174 109.514 54.4825 108.799H59.1583L66.6801 126.099C66.7155 126.196 66.848 126.196 66.8746 126.099L73.6451 108.799H78.9749C78.7804 109.584 78.7451 109.84 78.2855 109.84C77.4988 109.84 76.6503 109.999 76.7829 111.437C77.4988 119.271 78.1529 127.069 78.6832 129.098C79.0456 130.466 79.5317 130.571 81.0697 130.73C80.8045 131.515 80.778 131.771 80.2212 131.771H72.8938C73.0264 130.986 73.159 130.757 73.5832 130.73C75.2184 130.598 75.4128 130.307 75.3156 129.195L73.8749 113.36L66.6801 131.93C66.5829 132.221 65.7609 132.256 65.6371 131.93L58.0799 114.63C57.3905 120.867 56.7364 126.249 56.6392 127.396C56.4094 130.042 56.5773 130.298 59.3527 130.721C59.0876 131.507 59.061 131.762 58.6368 131.762H51.769C51.9016 131.11 51.9635 130.783 52.4585 130.721L52.4496 130.73Z" fill="#979D6E"/>
<path d="M94.2395 132.071C92.9314 132.071 91.5613 131.78 91.6232 129.751C91.031 130.792 89.6964 132.036 87.3364 132.036C84.9764 132.036 83.2794 130.792 83.2794 128.348C83.2794 126.584 85.5068 123.029 91.6497 123.029V120.453C91.6497 118.786 90.8012 117.78 89.0688 117.78C88.1849 117.78 87.5309 118.045 86.974 118.856C86.479 119.571 86.6116 120.162 86.6116 121.335C86.3464 121.6 85.8603 121.794 85.2416 121.794C84.6229 121.794 83.7036 121.335 83.8716 120.029C84.066 118.397 86.4525 116.598 89.1395 116.598C92.7988 116.598 94.7345 118.23 94.7345 120.673C94.7345 122.076 94.6019 123.646 94.6019 126.39C94.6019 130.307 94.2395 131.321 96.2017 130.96C96.5641 130.898 96.5906 131.251 96.3343 131.445C95.7156 131.904 95.1234 132.062 94.2395 132.062V132.071ZM91.6586 124.079C87.6988 124.079 86.426 126.302 86.426 128.057C86.426 129.098 87.1419 130.077 88.3529 130.183C89.7582 130.28 90.7393 129.892 91.6232 128.975C91.6232 127.44 91.6586 125.746 91.6586 124.079Z" fill="#979D6E"/>
<path d="M105.721 116.536C106.967 116.536 108.01 116.898 108.956 117.356V111.613C108.956 110.961 108.726 110.343 107.94 110.343H107.418C106.994 110.343 106.897 110.052 107.418 109.858C108.859 109.302 110.423 108.746 111.732 108.358C112.059 108.261 112.12 108.42 112.094 108.685C111.899 110.22 111.899 114.825 111.899 117.956V126.505C111.899 130.58 111.838 131.11 113.667 130.783C114.03 130.721 114.127 131.048 113.862 131.242C113.146 131.762 112.288 132.089 111.511 132.089C110.494 132.089 108.991 132.054 109.027 129.575C108.311 130.783 106.897 132.089 104.484 132.089C100.948 132.089 98.3672 129.213 98.3672 124.714C98.3672 120.215 101.443 116.554 105.73 116.554L105.721 116.536ZM106.048 130.148C107.029 130.148 108.276 129.53 108.956 128.781V119.35C108.24 118.503 107.188 117.718 105.748 117.718C102.186 117.718 101.558 120.982 101.558 124.184C101.558 127.643 102.963 130.157 106.039 130.157L106.048 130.148Z" fill="#979D6E"/>
<path d="M119.032 123.911C118.997 127.404 120.933 130.174 123.938 130.174C125.865 130.174 126.917 129.46 127.96 128.604C128.287 128.34 128.516 128.569 128.348 128.931C127.73 130.201 125.997 132.098 122.948 132.098C118.891 132.098 115.912 129.451 115.912 124.396C115.912 120.541 118.988 116.527 122.515 116.527C125.29 116.527 126.307 117.374 127.129 118.159C128.074 119.077 128.631 120.612 128.799 122.535C128.861 123.32 128.799 123.646 128.048 123.673C124.221 123.84 121.277 123.805 119.024 123.902L119.032 123.911ZM125.67 122.279C125.67 119.729 124.592 117.709 122.63 117.709C120.402 117.709 118.997 119.959 118.997 122.799L125.67 122.279Z" fill="#979D6E"/>
<path d="M16.7231 156.569V177.653C16.7231 179.056 15.3178 179.427 14.2483 179.206V176.771H6.87671V178.103C6.87671 179.285 5.77186 180.026 4.40185 179.762V153.808L6.32871 154.214C6.66458 154.284 6.88555 154.505 6.88555 154.69H7.99924V150.447H4.66701C4.03945 150.447 3.81848 150.156 3.29699 148.603H15.1764C15.8393 148.603 16.1751 148.347 16.8381 147.571C17.6866 148.347 18.2081 148.718 18.2081 149.194C18.2081 150.076 17.5452 150.447 16.1398 150.447H13.1788V154.69C13.6207 154.62 13.9212 154.399 14.2483 153.879L16.2458 154.54C17.5363 154.981 16.7231 155.758 16.7231 156.569ZM6.87671 168.788H14.2394V165.056H14.0185C11.4641 165.056 11.137 164.685 11.137 161.845V156.525H10.1029C9.91726 161.695 8.69751 164.685 6.88555 166.564V168.779L6.87671 168.788ZM6.87671 156.534V164.403C7.21259 163.591 7.46891 162.665 7.65453 161.668C7.91085 160.416 8.06111 157.937 8.09647 156.534H6.87671ZM14.2394 174.769V170.746H6.87671V174.769H14.2394ZM10.1029 154.681H11.1017V150.438H10.1029V154.681ZM13.0639 156.534V162.33C13.0639 162.921 13.3202 163.106 14.2483 163.142V156.534H13.0639ZM19.3836 159.525L20.6034 159.78C21.1249 159.895 21.2663 160.116 21.2663 160.257H24.4483V155.343L26.4812 155.678C27.038 155.749 27.1441 156.014 27.1441 156.419V160.257H28.85C29.5483 160.257 29.8841 160.036 30.3703 159.445L32.3678 160.151C33.8881 160.671 33.0307 161.554 33.0307 162.259V171.708C33.0307 173.225 32.032 173.772 30.3703 173.587V172.113H27.1529V173.816C27.1529 176.215 27.2237 176.507 29.4068 176.621C31.6607 176.736 32.6595 176.621 33.4727 176.365C34.1002 176.18 34.2505 174.927 34.4715 172.819C34.5068 172.563 34.993 172.484 35.0283 172.819C35.2846 174.698 35.5852 175.88 36.2127 176.471C36.911 177.098 36.8756 178.024 36.142 178.35C35.1079 178.827 33.181 179.127 30.1139 179.056C24.6427 178.906 24.4571 178.5 24.4571 172.59V172.113H21.2751C21.2044 173.587 20.1261 174.257 18.6147 173.992V160.107C18.2788 160.327 17.9517 160.548 17.5805 160.768C17.1032 161.06 16.6966 160.619 17.059 160.213C19.3483 157.743 20.2763 156.481 21.7966 153.932C21.9822 153.596 22.2032 153.27 22.3888 152.899H17.8722C17.2446 152.899 17.0944 152.529 16.4668 151.056H23.3081C23.971 149.538 24.5632 147.95 24.9698 146.257L26.6668 147.068C27.48 147.439 27.5949 147.624 27.3297 148.25C26.9231 149.283 26.5165 150.209 26.0746 151.056H32.7744C33.4727 151.056 33.7732 150.765 34.4008 150.024C35.2139 150.8 35.7708 151.241 35.7708 151.726C35.7708 152.538 35.0283 152.908 33.8439 152.908H29.2566C29.7339 153.614 30.3261 154.311 31.2541 155.202C32.7302 156.605 34.2505 157.822 36.5044 158.854C36.911 159.039 36.9463 159.189 36.5398 159.41C34.4715 160.557 34.5068 160.777 32.9158 159.595C30.5117 157.822 28.7351 155.308 27.5507 152.908H25.0758C24.6692 153.614 24.2273 154.276 23.7412 154.937C22.3711 156.781 21.0011 158.263 19.3748 159.516L19.3836 159.525ZM21.2751 162.145V165.206H24.4571V162.145H21.2751ZM24.4571 170.19V167.085H21.2751V170.19H24.4571ZM27.1529 162.145V165.206H30.3703V162.145H27.1529ZM30.3703 170.19V167.085H27.1529V170.19H30.3703Z" fill="#979D6E"/>
<path d="M84.1986 176.136C83.5357 176.877 83.0938 177.283 82.2364 178.165C81.7945 178.641 81.6442 178.827 80.6808 178.906C78.6478 179.056 76.2791 179.197 74.0605 179.197C67.069 179.197 61.4122 179.127 57.4524 173.472C56.4182 175.025 55.1189 176.868 54.0494 178.2C53.1656 179.312 52.8297 179.312 50.4962 177.353C52.5292 175.915 54.5621 174.433 55.9321 172.846V165.162H52.1579C51.5657 165.162 51.4155 164.721 50.7879 163.318H54.7831C55.3753 163.318 55.6669 163.062 56.1177 162.577L58.1507 163.283C59.8565 163.874 58.8931 164.65 58.8931 165.426V172.81C63.2595 176.912 68.66 176.612 74.1754 176.507C78.3208 176.436 82.0154 176.03 83.8274 175.73C84.2693 175.66 84.3489 175.986 84.1986 176.136ZM51.8663 155.387C51.6806 155.167 51.7955 154.576 52.3436 154.796C53.8196 155.387 55.8172 155.978 57.1872 157.531C58.8489 159.41 56.9309 161.739 55.2604 159.745C54.1113 158.378 52.8916 156.64 51.8574 155.387H51.8663ZM53.6782 149C53.307 148.559 53.6075 148.189 54.0494 148.339C56.0824 149 57.3817 149.441 58.6014 150.447C60.7846 152.22 58.8931 155.211 56.8955 152.882C55.9675 151.814 54.6063 150.112 53.6782 149.009V149ZM61.1912 157.716C61.7834 156.428 62.4817 154.69 63.0739 152.882C63.5954 151.294 63.9577 149.856 64.2936 148.418L66.2912 149.38C67.0337 149.75 67.1044 149.935 66.7685 150.632C66.3973 151.409 66.1409 151.92 65.8051 152.555H69.6941V146.68L72.0276 147.156C72.4695 147.227 72.6198 147.448 72.6198 147.633V152.547H77.5076C78.1352 152.547 78.5771 152.141 79.1693 151.514C79.9118 152.176 80.5394 152.697 80.5394 153.252C80.5394 153.949 79.7615 154.434 78.6125 154.434H72.6198V159.048H80.2742C80.9371 159.048 81.3083 158.713 82.0154 158.016C82.7579 158.713 83.4208 159.233 83.4208 159.789C83.4208 160.53 82.8286 160.971 81.4586 160.971H60.9967C60.3338 160.971 60.1836 160.601 59.4411 159.048H69.6853V154.434H64.656C63.6926 155.952 62.6938 157.31 61.7304 158.201C61.3238 158.572 60.9879 158.131 61.1735 157.725L61.1912 157.716ZM76.1376 174.733V172.74H66.4415V172.925C66.4415 174.548 65.0007 175.104 63.5158 174.804V162.727L65.8846 163.168C66.2912 163.239 66.4415 163.503 66.4415 163.644H74.6173C75.2449 163.644 75.6161 163.424 76.1376 162.868L78.6125 163.644C79.9472 164.05 79.0544 164.976 79.0544 165.568V173.101C79.0544 174.504 77.5783 175.025 76.1288 174.725L76.1376 174.733ZM76.1376 170.861V165.506H66.4415V170.861H76.1376Z" fill="#979D6E"/>
<path d="M104.033 165.135C103.777 170.049 102.963 176.727 98.5175 179.682C98.0755 179.974 97.5894 179.718 97.9606 179.127C100.436 175.069 101.028 170.631 101.178 163.212C101.249 159.63 101.249 154.276 101.143 149.106L103.582 149.627C103.838 149.697 104.024 149.777 104.104 149.882C107.356 148.85 109.504 147.889 111.944 146.451L113.535 148.003C114.091 148.559 114.127 149 113.384 149.221C110.724 149.962 107.834 150.588 104.174 151.144V155.167H108.063C108.841 155.167 109.248 154.876 109.76 154.284L112.28 154.981C113.685 155.387 112.686 156.499 112.686 157.275V164.624C112.686 166.282 111.396 166.838 109.76 166.653V165.135H104.024H104.033ZM104.174 157.125V160.045C104.174 160.671 104.139 162.109 104.104 163.15H109.76V157.134H104.174V157.125ZM131 158.634C131 159.56 130.187 159.93 128.852 159.93H125.891V178.13C125.891 179.462 124.521 180.344 122.966 179.868V159.93H118.157C118.157 160.407 118.122 160.707 118.087 161.554C117.901 166.688 116.867 176.542 107.507 179.753C107.065 179.903 106.578 179.418 107.135 179.012C113.72 174.098 114.975 168.893 115.126 161.324C115.196 157.743 115.196 154.276 115.09 149.106L117.38 149.662C117.671 149.732 117.936 149.812 118.087 149.953C122.011 148.771 124.786 147.924 127.739 146.407L129.109 147.995C129.701 148.656 129.701 149.027 128.958 149.212C126.077 149.918 122.409 150.615 118.157 151.135V157.928H127.482C128.145 157.928 128.737 157.487 129.444 156.675C130.328 157.557 131 158.007 131 158.634Z" fill="#979D6E"/>
<path d="M96.5022 41.0567C97.5187 39.504 97.227 34.405 94.0185 28.8738C90.7393 23.2102 86.6204 20.6518 84.7466 20.643C84.4991 20.6077 84.1986 20.7401 83.9865 20.9253L76.721 27.2858L78.6037 17.82C78.6567 17.573 78.6213 17.3084 78.4976 17.079C77.6579 15.4205 73.0882 13.1268 66.6889 13.1268C60.2896 13.1268 55.7111 15.4205 54.8714 17.079C54.7565 17.3084 54.7212 17.5642 54.7742 17.82L56.648 27.2858L49.3914 20.9341C49.1793 20.7489 48.9406 20.6342 48.6312 20.6518C46.7574 20.6518 42.6385 23.219 39.3593 28.8826C36.1508 34.4227 35.8592 39.5217 36.8845 41.0743C37.0259 41.286 37.2292 41.4448 37.4767 41.533L46.6337 44.6471L37.4767 47.7436C37.2292 47.823 37.0259 47.9906 36.8845 48.2023C35.868 49.755 36.1597 54.854 39.3682 60.3852C42.6474 66.0488 46.7574 68.6071 48.6401 68.616C48.9229 68.5895 49.1881 68.5189 49.4002 68.3337L56.6569 61.982L54.7831 71.4478C54.73 71.6948 54.7654 71.9594 54.8803 72.1888C55.7111 73.8473 60.2808 76.141 66.6978 76.141C73.1148 76.141 77.6756 73.8473 78.5153 72.1888C78.6302 71.9594 78.6655 71.7036 78.6125 71.4566L76.7563 62.0173L83.9865 68.3513C84.1986 68.5366 84.5345 68.6248 84.7466 68.6336C86.6204 68.6336 90.7393 66.0665 94.0185 60.4029C97.2182 54.8628 97.5187 49.7638 96.5022 48.22C96.3608 48.0082 96.1487 47.8406 95.91 47.7612L86.753 44.6648L95.9189 41.5507C96.1575 41.4713 96.3697 41.3037 96.5111 41.0919L96.5022 41.0567ZM94.6726 39.504L82.8109 43.5444C82.3425 43.7032 82.0331 44.1443 82.0331 44.6295C82.0331 45.1147 82.3513 45.5558 82.8198 45.7146L94.6814 49.7197C94.9113 50.8753 94.7787 54.4923 92.0475 59.2119C89.3428 63.8963 86.2581 65.8283 85.109 66.2164L75.7576 58.0298C75.3863 57.7034 74.8472 57.6505 74.4229 57.8975C73.9986 58.1445 73.7688 58.6297 73.8661 59.1149L76.2614 71.3331C75.3775 72.1182 72.169 73.8032 66.7066 73.8032C61.2442 73.8032 58.0181 72.1006 57.1519 71.3331L59.5825 59.0708C59.6798 58.5856 59.4588 58.1004 59.0257 57.8534C58.5926 57.6064 58.0623 57.6593 57.691 57.9857L48.2954 66.2076C47.1463 65.8195 44.0704 63.8875 41.3657 59.2031C38.6257 54.4746 38.502 50.8489 38.7318 49.7108L50.5935 45.7057C51.0619 45.547 51.3801 45.1147 51.3801 44.6207C51.3801 44.1266 51.0708 43.6944 50.6023 43.5356L38.7406 39.504C38.5108 38.3484 38.6434 34.7314 41.3746 30.0118C44.0793 25.3274 47.164 23.3954 48.3042 23.0073L57.6999 31.2292C58.0711 31.5556 58.6103 31.6085 59.0345 31.3615C59.4588 31.1145 59.6798 30.6293 59.5914 30.1441L57.1607 17.8906C58.0534 17.1055 61.2619 15.4205 66.7155 15.4205C72.169 15.4205 75.3952 17.1231 76.2702 17.8906L73.8307 30.1529C73.7335 30.6381 73.9544 31.1233 74.3875 31.3703C74.8118 31.6173 75.351 31.5644 75.7222 31.238L85.1267 23.0073C86.2757 23.3954 89.3516 25.3274 92.0652 30.0118C94.8052 34.7402 94.9289 38.3748 94.6991 39.504H94.6726Z" fill="#979D6E"/>
<path d="M109.981 36.4517C109.743 32.0143 108.116 26.9859 105.412 22.3015C100.656 14.0708 93.665 8.71594 87.5308 8.55715C84.3224 3.4405 76.4205 0 66.6978 0C56.9751 0 49.082 3.4405 45.8647 8.55715C39.7306 8.71594 32.7479 14.0796 27.9838 22.3015C23.1224 30.7087 22.159 39.2658 25.0051 44.5942C23.8119 46.8085 23.2462 49.5962 23.4141 52.7632C23.6528 57.2006 25.2703 62.229 27.9838 66.9134C32.7391 75.1441 39.7306 80.4989 45.8647 80.6577C49.0732 85.7744 56.9751 89.2149 66.6978 89.2149C76.4205 89.2149 84.3135 85.7744 87.5308 80.6577C93.665 80.4989 100.648 75.1353 105.412 66.9134C108.116 62.229 109.743 57.2094 109.981 52.7632C110.149 49.605 109.593 46.8173 108.399 44.603C109.593 42.3887 110.149 39.6011 109.981 36.4429V36.4517ZM106.375 45.7057C107.374 47.5583 107.834 49.9667 107.683 52.6573C107.462 56.7418 105.951 61.3997 103.423 65.7753C99.0743 73.2915 92.8165 78.2317 87.4778 78.3729C86.7088 78.3905 85.9929 78.7963 85.5863 79.4491C82.7314 83.9924 75.3245 86.93 66.7066 86.93C58.0888 86.93 50.6819 83.9924 47.8269 79.4491C47.4203 78.7963 46.7044 78.3905 45.9354 78.3729C40.5968 78.2317 34.3389 73.2915 29.9902 65.7753C27.4623 61.3997 25.942 56.7418 25.7299 52.6573C25.5885 49.9579 26.0393 47.5583 27.0469 45.7057C27.4093 45.0265 27.4181 44.2149 27.0469 43.5356C24.519 38.7983 25.6769 30.9204 29.9902 23.466C34.3389 15.9498 40.5968 11.0096 45.9354 10.8685C46.7044 10.8508 47.4203 10.445 47.8269 9.7922C50.6819 5.24897 58.0888 2.31131 66.7066 2.31131C75.3245 2.31131 82.7314 5.24897 85.5863 9.7922C85.9929 10.445 86.7088 10.8508 87.4778 10.8685C92.8165 11.0096 99.0743 15.9498 103.423 23.466C105.951 27.8416 107.471 32.4995 107.683 36.584C107.825 39.2747 107.374 41.6742 106.375 43.5356C106.013 44.2149 106.013 45.0353 106.375 45.7146V45.7057Z" fill="#979D6E"/>
<path d="M72.8761 38.4454C72.4253 37.9955 71.7005 37.9955 71.2498 38.4454L66.6978 42.9886L62.1458 38.4454C61.695 37.9955 60.9702 37.9955 60.5194 38.4454C60.0687 38.8953 60.0687 39.6187 60.5194 40.0686L65.0714 44.6118L60.5194 49.1551C60.0687 49.605 60.0687 50.3284 60.5194 50.7783C60.7404 50.9988 61.0409 51.1135 61.3326 51.1135C61.6243 51.1135 61.9248 50.9988 62.1458 50.7783L66.6978 46.2351L71.2498 50.7783C71.4707 50.9988 71.7712 51.1135 72.0629 51.1135C72.3546 51.1135 72.6551 50.9988 72.8761 50.7783C73.3269 50.3284 73.3269 49.605 72.8761 49.1551L68.3241 44.6118L72.8761 40.0686C73.3269 39.6187 73.3269 38.8953 72.8761 38.4454Z" fill="#979D6E"/>
</g>
<defs>
<clipPath id="clip0_133_1034">
<rect width="131" height="180" fill="white"/>
</clipPath>
</defs>
</svg>
