<svg width="80" height="84" viewBox="0 0 80 84" fill="none" xmlns="http://www.w3.org/2000/svg">
<g clip-path="url(#clip0_133_974)">
<path d="M67.5313 38.6497C68.4737 37.1864 68.1959 32.3931 65.2399 27.1759C62.2145 21.8376 58.4055 19.4358 56.6795 19.4258C56.4513 19.3955 56.1736 19.5166 55.9752 19.6982L49.2697 25.6824L51.0056 16.7717C51.0552 16.5396 51.0155 16.2874 50.9163 16.0754C50.1426 14.5214 45.9169 12.3618 40.005 12.3618C34.093 12.3618 29.8673 14.5214 29.0936 16.0855C28.9845 16.2975 28.9548 16.5497 29.0043 16.7818L30.7402 25.6925L24.0347 19.7083C23.8363 19.5368 23.6181 19.4258 23.3305 19.4359C21.5946 19.4359 17.7954 21.8477 14.77 27.186C11.8041 32.4032 11.5363 37.2066 12.4786 38.6598C12.6076 38.8616 12.796 39.013 13.0242 39.0836L21.4854 42.0202L13.0242 44.9366C12.796 45.0173 12.6076 45.1687 12.4786 45.3705C11.5363 46.8337 11.814 51.6271 14.77 56.8443C17.7954 62.1826 21.5946 64.5843 23.3305 64.5944C23.5884 64.5642 23.8363 64.5036 24.0347 64.322L30.7402 58.3378L29.0043 67.2484C28.9548 67.4805 28.9944 67.7328 29.0936 67.9447C29.8673 69.4988 34.0831 71.6583 40.005 71.6583C45.9269 71.6583 50.1426 69.4988 50.9163 67.9347C51.0254 67.7227 51.0552 67.4805 51.0056 67.2383L49.2995 58.3479L55.9752 64.3119C56.1736 64.4834 56.4811 64.5742 56.6795 64.5843C58.4154 64.5843 62.2145 62.1624 65.2399 56.8342C68.1959 51.617 68.4737 46.8236 67.5313 45.3604C67.4024 45.1586 67.204 45.0072 66.9858 44.9265L58.5245 42.0101L66.9858 39.0735C67.2139 38.9928 67.4024 38.8414 67.5313 38.6396V38.6497ZM65.8351 37.1864L54.8742 40.9909C54.4476 41.1422 54.15 41.556 54.15 42.0202C54.15 42.4844 54.4377 42.8981 54.8742 43.0394L65.8252 46.8136C66.0434 47.9034 65.9145 51.3042 63.3949 55.7444C60.8952 60.1543 58.0484 61.9707 56.987 62.3441L48.3472 54.6343C48.0099 54.3316 47.514 54.2811 47.1172 54.5132C46.7204 54.7453 46.5121 55.1994 46.6014 55.6535L48.8134 67.1576C47.9901 67.8943 45.0341 69.4887 39.9951 69.4887C34.956 69.4887 31.9703 67.8842 31.1668 67.1677L33.4185 55.6233C33.5078 55.1692 33.2995 54.705 32.9126 54.4729C32.5158 54.2408 32.0198 54.2912 31.6826 54.5939L23.0031 62.334C21.9417 61.9707 19.1048 60.1442 16.5952 55.7343C14.0657 51.284 13.9467 47.8731 14.155 46.8035L25.106 43.0293C25.5425 42.8779 25.8301 42.4743 25.8301 42.0101C25.8301 41.5459 25.5425 41.1322 25.106 40.9808L14.155 37.1864C13.9368 36.0966 14.0657 32.6958 16.5853 28.2456C19.0849 23.8357 21.9318 22.0192 22.9932 21.6458L31.6727 29.3859C32.0099 29.6886 32.5158 29.7391 32.9027 29.507C33.2994 29.2749 33.4978 28.8107 33.4086 28.3566L31.1668 16.8222C31.9901 16.0855 34.9461 14.4911 39.9851 14.4911C45.0242 14.4911 48 16.0956 48.8035 16.8121L46.5518 28.3566C46.4625 28.8107 46.6708 29.2749 47.0577 29.507C47.4544 29.7391 47.9504 29.6886 48.2877 29.3859L56.9672 21.6358C58.0285 21.999 60.8655 23.8256 63.3751 28.2355C65.9045 32.6857 66.0236 36.1067 65.8053 37.1663L65.8351 37.1864Z" fill="#979D6E"/>
<path d="M79.9703 34.3204C79.7521 30.1426 78.2543 25.4098 75.7546 20.9999C71.3603 13.2498 64.9028 8.20414 59.2388 8.06286C56.2729 3.24931 48.9821 0.00999832 40.0051 0.00999832C31.028 0.00999832 23.7372 3.24931 20.7614 8.06286C15.0974 8.21423 8.63989 13.2599 4.24559 20.9999C-0.247896 28.9115 -1.13072 36.9644 1.49792 41.9898C0.386946 44.0686 -0.128863 46.7025 0.0298473 49.6794C0.248074 53.8572 1.7459 58.59 4.24559 62.9999C8.63989 70.75 15.0974 75.7957 20.7614 75.937C23.7273 80.7505 31.0181 83.9898 40.0051 83.9898C48.992 83.9898 56.2729 80.7505 59.2388 75.937C64.9028 75.7856 71.3603 70.7399 75.7546 62.9999C78.2543 58.59 79.7521 53.8673 79.9703 49.6794C80.129 46.7025 79.6132 44.0787 78.5122 41.9999C79.6132 39.9211 80.129 37.2974 79.9703 34.3204ZM76.6374 43.0191C77.5599 44.7649 77.9765 47.0254 77.8476 49.5583C77.6492 53.4031 76.2505 57.7928 73.9096 61.9101C69.8922 68.9841 64.1092 73.6361 59.1793 73.7673C58.4651 73.7875 57.8104 74.171 57.4334 74.7765C54.7949 79.0552 47.9505 81.8202 39.9951 81.8202C32.0398 81.8202 25.1954 79.0552 22.5568 74.7765C22.1799 74.1609 21.5252 73.7774 20.811 73.7673C15.8811 73.6361 10.098 68.9841 6.08068 61.9101C3.7397 57.7928 2.34107 53.4031 2.14268 49.5583C2.00381 47.0254 2.43034 44.7548 3.35285 43.009C3.69011 42.3733 3.69011 41.6064 3.35285 40.9605C1.02179 36.5002 2.09308 29.083 6.07076 22.0696C10.0881 14.9956 15.8711 10.3435 20.8011 10.2123C21.5153 10.1921 22.17 9.80865 22.5469 9.20318C25.1855 4.92446 32.0298 2.15945 39.9852 2.15945C47.9406 2.15945 54.785 4.92446 57.4235 9.20318C57.8005 9.81874 58.4551 10.2022 59.1693 10.2123C64.0993 10.3435 69.8823 14.9956 73.8997 22.0696C76.2406 26.1868 77.6393 30.5766 77.8377 34.4213C77.9666 36.9543 77.55 39.2147 76.6275 40.9605C76.2902 41.5963 76.2902 42.3733 76.6275 43.009L76.6374 43.0191Z" fill="#979D6E"/>
<path d="M45.7086 36.1874C45.292 35.7636 44.6175 35.7636 44.2009 36.1874L39.995 40.4661L35.7892 36.1874C35.3726 35.7636 34.6981 35.7636 34.2815 36.1874C33.8648 36.6112 33.8648 37.2975 34.2815 37.7213L38.4873 42L34.2815 46.2787C33.8648 46.7026 33.8648 47.3888 34.2815 47.8126C34.4898 48.0245 34.7576 48.1254 35.0353 48.1254C35.3131 48.1254 35.5809 48.0245 35.7892 47.8126L39.995 43.5339L44.2009 47.8126C44.4092 48.0245 44.677 48.1254 44.9547 48.1254C45.2325 48.1254 45.5003 48.0245 45.7086 47.8126C46.1252 47.3888 46.1252 46.7026 45.7086 46.2787L41.5028 42L45.7086 37.7213C46.1252 37.2975 46.1252 36.6112 45.7086 36.1874Z" fill="#979D6E"/>
</g>
<defs>
<clipPath id="clip0_133_974">
<rect width="80" height="84" fill="white"/>
</clipPath>
</defs>
</svg>
