<svg width="241" height="84" viewBox="0 0 241 84" fill="none" xmlns="http://www.w3.org/2000/svg">
<g clip-path="url(#clip0_133_994)">
<path d="M104.388 5.13647H113.264C113.092 6.05478 113.021 6.05478 112.578 6.09515C109.784 6.2667 110.288 7.0841 112.134 10.1922L116.128 16.8827C116.128 16.8827 116.229 16.8828 116.259 16.8525L119.436 11.2518C121.786 7.0841 121.413 6.23643 118.821 6.09515C118.135 6.06487 118.206 5.89332 118.306 5.13647H126.123C125.881 6.09515 125.75 6.02451 125.377 6.09515C124.186 6.33734 124.075 6.53917 122.068 10.0207L117.056 18.6891V21.111C117.056 27.5997 117.358 27.7309 119.96 27.9428C119.759 28.7602 119.587 29.0327 119.144 29.0327H110.954C111.095 28.3868 111.196 28.0437 111.64 27.9428C113.788 27.4988 113.788 27.3575 113.788 22.4834V19.345L108.261 9.96012C106.486 6.95291 106.486 6.27679 104.953 6.10524C104.338 6.0346 104.267 6.00433 104.408 5.14657L104.388 5.13647Z" fill="#979D6E"/>
<path d="M127.585 20.8083C127.555 24.4613 129.562 27.3676 132.699 27.3676C134.716 27.3676 135.805 26.6209 136.895 25.7328C137.238 25.4604 137.48 25.7026 137.308 26.0759C136.663 27.408 134.847 29.3859 131.68 29.3859C127.454 29.3859 124.348 26.6209 124.348 21.333C124.348 17.3066 127.555 13.1086 131.236 13.1086C134.141 13.1086 135.19 13.9966 136.047 14.814C137.036 15.7727 137.621 17.3772 137.792 19.3854C137.863 20.2028 137.792 20.5459 137.006 20.5762C133.012 20.7477 129.946 20.7175 127.585 20.8184V20.8083ZM134.514 19.1028C134.514 16.4387 133.385 14.3196 131.337 14.3196C129.018 14.3196 127.555 16.6708 127.555 19.6478L134.514 19.1028Z" fill="#979D6E"/>
<path d="M140.858 28.1144C142.018 27.9125 142.119 27.6401 142.119 24.0476V16.0956C142.119 15.7223 141.847 15.2076 141.1 15.2076H140.586C140.142 15.2076 139.971 14.9049 140.515 14.6929C142.018 14.1076 143.521 13.4315 144.812 12.8866C145.054 12.7857 145.256 12.9169 145.225 13.1893C145.155 13.7343 145.195 15.4397 145.195 16.3681C146.869 14.2186 148.06 13.1288 149.835 13.1288C153.213 13.1288 155.12 15.3791 155.12 19.0726V23.099C155.12 27.8823 155.12 28.0135 156.824 28.1144C156.582 28.8006 156.552 29.0327 156.108 29.0327H150.167C150.309 28.3162 150.339 28.1749 150.752 28.1144C151.912 27.9428 152.054 27.7006 152.054 24.532V21.5954C152.054 18.8606 151.882 15.3186 149.26 15.3186C147.454 15.3186 146.627 16.0048 145.195 17.1956V23.099C145.195 27.8823 145.165 28.0135 146.94 28.1144C146.698 28.8006 146.668 29.0327 146.224 29.0327H140.283C140.425 28.3162 140.455 28.1749 140.868 28.1144H140.858Z" fill="#979D6E"/>
<path d="M159.043 27.9428C160.889 27.7006 161.262 26.7823 161.605 23.7448L163.35 7.69967C163.481 6.36762 163.249 6.19607 161.474 6.09516C160.929 6.06488 160.889 5.75205 161.171 5.00529H166.053L173.899 23.099C173.93 23.1999 174.071 23.1999 174.101 23.099L181.161 5.00529H186.718C186.517 5.82269 186.476 6.09516 186.002 6.09516C185.185 6.09516 184.298 6.26671 184.429 7.77031C185.175 15.9644 185.861 24.1182 186.406 26.2374C186.779 27.6704 187.293 27.7713 188.897 27.9428C188.625 28.7602 188.594 29.0327 188.009 29.0327H180.364C180.505 28.2153 180.637 27.9731 181.08 27.9428C182.785 27.8015 182.987 27.4988 182.886 26.3383L181.383 9.77848L173.879 29.2042C173.778 29.507 172.921 29.5473 172.79 29.2042L164.913 11.1105C164.197 17.6295 163.511 23.2605 163.41 24.4613C163.168 27.2263 163.339 27.4988 166.244 27.9428C165.972 28.7602 165.942 29.0327 165.498 29.0327H158.337C158.468 28.3465 158.539 28.0135 159.053 27.9428H159.043Z" fill="#979D6E"/>
<path d="M202.654 29.3455C201.292 29.3455 199.86 29.0428 199.921 26.9236C199.305 28.0135 197.903 29.3152 195.453 29.3152C193.002 29.3152 191.217 28.0135 191.217 25.4604C191.217 23.6137 193.536 19.9001 199.951 19.9001V17.2057C199.951 15.4599 199.063 14.4104 197.258 14.4104C196.34 14.4104 195.654 14.6828 195.069 15.5406C194.555 16.2874 194.696 16.9029 194.696 18.1341C194.424 18.4065 193.909 18.6084 193.264 18.6084C192.618 18.6084 191.66 18.1341 191.832 16.7617C192.034 15.0562 194.525 13.1792 197.329 13.1792C201.151 13.1792 203.168 14.8847 203.168 17.4479C203.168 18.9111 203.027 20.556 203.027 23.4219C203.027 27.519 202.654 28.5786 204.701 28.2052C205.074 28.1346 205.115 28.5079 204.842 28.7199C204.197 29.1941 203.582 29.3657 202.654 29.3657V29.3455ZM199.951 20.9798C195.826 20.9798 194.494 23.3008 194.494 25.1475C194.494 26.2374 195.241 27.2667 196.512 27.3676C197.974 27.4685 199.003 27.0649 199.921 26.1062C199.921 24.5017 199.951 22.7256 199.951 20.9899V20.9798Z" fill="#979D6E"/>
<path d="M214.626 13.0985C215.927 13.0985 217.016 13.4719 218.005 13.9563V7.95195C218.005 7.26574 217.762 6.6199 216.946 6.6199H216.401C215.957 6.6199 215.856 6.31716 216.401 6.10524C217.904 5.51995 219.538 4.94474 220.899 4.531C221.242 4.43009 221.313 4.60164 221.272 4.8741C221.071 6.47862 221.071 11.2922 221.071 14.5718V23.5127C221.071 27.7814 221 28.3263 222.916 27.9832C223.29 27.9125 223.39 28.2557 223.118 28.4575C222.372 29.0024 221.484 29.3455 220.657 29.3455C219.598 29.3455 218.035 29.3152 218.065 26.7218C217.319 27.9832 215.846 29.3455 213.325 29.3455C209.643 29.3455 206.94 26.3383 206.94 21.6257C206.94 16.913 210.148 13.0884 214.616 13.0884L214.626 13.0985ZM214.969 27.3273C215.987 27.3273 217.288 26.6814 218.005 25.8943V16.025C217.258 15.137 216.159 14.3196 214.656 14.3196C210.934 14.3196 210.289 17.7304 210.289 21.0807C210.289 24.7035 211.761 27.3273 214.959 27.3273H214.969Z" fill="#979D6E"/>
<path d="M228.514 20.8083C228.484 24.4613 230.491 27.3676 233.627 27.3676C235.645 27.3676 236.734 26.6209 237.823 25.7328C238.166 25.4604 238.408 25.7026 238.237 26.0759C237.591 27.408 235.776 29.3859 232.609 29.3859C228.383 29.3859 225.276 26.6209 225.276 21.333C225.276 17.3066 228.484 13.1086 232.165 13.1086C235.07 13.1086 236.119 13.9966 236.976 14.814C237.964 15.7727 238.549 17.3772 238.721 19.3854C238.791 20.2028 238.721 20.5459 237.934 20.5762C233.94 20.7477 230.874 20.7175 228.514 20.8184V20.8083ZM235.443 19.1028C235.443 16.4387 234.313 14.3196 232.266 14.3196C229.946 14.3196 228.484 16.6708 228.484 19.6478L235.443 19.1028Z" fill="#979D6E"/>
<path d="M121.776 54.9673V77.0168C121.776 78.4801 120.314 78.8736 119.194 78.6415V76.0884H111.509V77.481C111.509 78.7122 110.349 79.4892 108.927 79.2167V52.0711L110.934 52.495C111.277 52.5757 111.509 52.8078 111.509 52.9995H112.669V48.5593H109.199C108.543 48.5593 108.311 48.2465 107.767 46.6319H120.152C120.848 46.6319 121.191 46.3594 121.887 45.5521C122.775 46.3594 123.319 46.753 123.319 47.2475C123.319 48.1759 122.623 48.5593 121.161 48.5593H118.075V52.9995C118.538 52.9188 118.851 52.6867 119.194 52.1519L121.282 52.8482C122.633 53.3124 121.786 54.1197 121.786 54.9673H121.776ZM111.509 67.7429H119.194V63.8376H118.962C116.299 63.8376 115.957 63.4541 115.957 60.4772V54.9169H114.877C114.686 60.3258 113.405 63.4541 111.519 65.4219V67.7429H111.509ZM111.509 54.927V63.1514C111.852 62.3037 112.124 61.3349 112.316 60.2955C112.588 58.9837 112.739 56.4003 112.779 54.927H111.509ZM119.184 73.9995V69.7915H111.499V73.9995H119.184ZM114.867 52.9995H115.906V48.5593H114.867V52.9995ZM117.953 54.927V60.9918C117.953 61.6074 118.226 61.7991 119.184 61.8395V54.927H117.953ZM124.55 58.0553L125.82 58.3277C126.365 58.4387 126.516 58.6708 126.516 58.8323H129.835V53.6958L131.963 54.0389C132.538 54.1197 132.659 54.382 132.659 54.816V58.8323H134.434C135.17 58.8323 135.513 58.6002 136.017 57.9846L138.105 58.7213C139.688 59.2662 138.801 60.1845 138.801 60.9212V70.8107C138.801 72.395 137.762 72.9702 136.017 72.7785V71.2345H132.659V73.0106C132.659 75.5233 132.739 75.826 135.009 75.9471C137.359 76.0682 138.407 75.9471 139.255 75.6747C139.91 75.4829 140.062 74.1711 140.294 71.9712C140.334 71.6987 140.838 71.6281 140.868 71.9712C141.141 73.939 141.443 75.1802 142.099 75.7958C142.835 76.4517 142.795 77.4205 142.018 77.7636C140.939 78.2681 138.932 78.5709 135.725 78.5002C130.016 78.3489 129.814 77.925 129.814 71.7391V71.2345H126.496C126.415 72.7785 125.296 73.4748 123.723 73.2023V58.6809C123.38 58.913 123.027 59.1451 122.643 59.3772C122.139 59.6901 121.715 59.2259 122.099 58.802C124.489 56.2186 125.457 54.8967 127.041 52.2326C127.232 51.8895 127.464 51.5363 127.656 51.1528H122.946C122.29 51.1528 122.139 50.7693 121.484 49.2254H128.624C129.32 47.641 129.935 45.9861 130.359 44.1999L132.134 45.0476C132.981 45.431 133.102 45.6228 132.83 46.2787C132.406 47.3585 131.983 48.3272 131.519 49.2153H138.508C139.245 49.2153 139.547 48.9025 140.203 48.1355C141.05 48.9428 141.635 49.407 141.635 49.9116C141.635 50.7593 140.858 51.1427 139.628 51.1427H134.837C135.341 51.8794 135.957 52.606 136.925 53.5344C138.468 54.9976 140.051 56.2792 142.401 57.359C142.825 57.5507 142.865 57.7021 142.442 57.9342C140.283 59.135 140.314 59.3671 138.66 58.1259C136.148 56.2691 134.303 53.6454 133.062 51.1326H130.48C130.056 51.8693 129.592 52.5656 129.088 53.2518C127.656 55.1792 126.234 56.7232 124.529 58.0452L124.55 58.0553ZM126.516 60.8001V64.0091H129.835V60.8001H126.516ZM129.835 69.2162V65.9769H126.516V69.2162H129.835ZM132.659 60.8001V64.0091H136.017V60.8001H132.659ZM136.017 69.2162V65.9769H132.659V69.2162H136.017Z" fill="#979D6E"/>
<path d="M192.175 75.4325C191.479 76.2095 191.015 76.6334 190.128 77.5517C189.664 78.0562 189.512 78.248 188.504 78.3287C186.386 78.4801 183.915 78.6415 181.595 78.6415C174.303 78.6415 168.393 78.5608 164.268 72.6574C163.188 74.2821 161.837 76.2095 160.717 77.6021C159.789 78.7626 159.447 78.7626 157.016 76.7141C159.144 75.2105 161.262 73.6665 162.694 72.0014V63.9688H158.761C158.145 63.9688 157.984 63.5046 157.329 62.0413H161.494C162.109 62.0413 162.422 61.7689 162.886 61.2643L165.004 62.001C166.779 62.6165 165.78 63.4339 165.78 64.2412V71.9611C170.339 76.2499 175.967 75.9371 181.716 75.8261C186.043 75.7453 189.896 75.3215 191.792 75.0187C192.256 74.938 192.336 75.2912 192.175 75.4426V75.4325ZM158.438 53.7261C158.246 53.494 158.357 52.8784 158.942 53.1105C160.485 53.7261 162.573 54.3417 163.995 55.9664C165.73 57.9342 163.723 60.3662 161.988 58.2874C160.788 56.8544 159.517 55.0481 158.438 53.7261ZM160.334 47.0457C159.951 46.5815 160.253 46.198 160.717 46.3494C162.845 47.0457 164.187 47.5099 165.468 48.5493C167.747 50.4061 165.78 53.5344 163.693 51.1024C162.724 49.9822 161.302 48.2062 160.334 47.0457ZM168.171 56.1581C168.786 54.8059 169.522 52.9894 170.137 51.1024C170.682 49.4373 171.065 47.9337 171.408 46.4301L173.496 47.4392C174.273 47.8227 174.343 48.0144 174 48.7511C173.617 49.5584 173.345 50.1033 172.992 50.7593H177.046V44.6237L179.477 45.1283C179.941 45.209 180.092 45.4411 180.092 45.6329V50.7694H185.185C185.841 50.7694 186.305 50.3455 186.92 49.6896C187.687 50.3859 188.352 50.9207 188.352 51.506C188.352 52.2427 187.546 52.7372 186.345 52.7372H180.092V57.5608H188.08C188.776 57.5608 189.159 57.2177 189.896 56.481C190.672 57.2177 191.358 57.7525 191.358 58.3378C191.358 59.1149 190.743 59.569 189.311 59.569H167.969C167.273 59.569 167.122 59.1855 166.345 57.5608H177.036V52.7372H171.781C170.773 54.3215 169.734 55.7444 168.736 56.6728C168.312 57.0562 167.969 56.592 168.161 56.1682L168.171 56.1581ZM183.763 73.9693V71.8804H173.647V72.0721C173.647 73.7674 172.145 74.3527 170.601 74.0399V61.4157L173.072 61.8799C173.496 61.9606 173.647 62.223 173.647 62.3844H182.18C182.836 62.3844 183.219 62.1523 183.763 61.5771L186.345 62.3844C187.737 62.8083 186.809 63.777 186.809 64.3926V72.2739C186.809 73.7372 185.266 74.2821 183.763 73.9693ZM183.763 69.9125V64.3119H173.647V69.9125H183.763Z" fill="#979D6E"/>
<path d="M212.861 63.9284C212.589 69.0649 211.741 76.0582 207.112 79.1461C206.648 79.4589 206.144 79.1865 206.537 78.5709C209.119 74.3224 209.744 69.6905 209.896 61.9303C209.976 58.1865 209.976 52.5858 209.855 47.1768L212.407 47.7218C212.679 47.8025 212.871 47.8731 212.952 47.9942C216.351 46.9145 218.59 45.9053 221.131 44.4017L222.795 46.0264C223.37 46.6016 223.411 47.0658 222.644 47.2979C219.871 48.075 216.855 48.7309 213.032 49.3061V53.5142H217.087C217.894 53.5142 218.317 53.2014 218.862 52.5858L221.484 53.3224C222.957 53.7463 221.908 54.9068 221.908 55.7141V63.4037C221.908 65.1394 220.556 65.7247 218.862 65.5228V63.9385H212.881L212.861 63.9284ZM213.022 55.5425V58.5901C213.022 59.246 212.982 60.7496 212.942 61.8294H218.852V55.5324H213.022V55.5425ZM241 57.1269C241 58.0956 240.153 58.4791 238.761 58.4791H235.675V77.5214C235.675 78.914 234.243 79.8424 232.629 79.3378V58.4791H227.606C227.606 58.9837 227.566 59.2864 227.526 60.1744C227.334 65.543 226.255 75.8563 216.482 79.2167C216.018 79.3681 215.513 78.8736 216.098 78.4397C222.967 73.3032 224.278 67.8539 224.439 59.9423C224.52 56.1985 224.52 52.5656 224.399 47.1567L226.789 47.7319C227.102 47.8126 227.364 47.8832 227.526 48.0447C231.62 46.8136 234.515 45.9255 237.601 44.3412L239.034 46.0063C239.649 46.7026 239.649 47.086 238.882 47.2778C235.867 48.0144 232.054 48.741 227.616 49.2859V56.3902H237.339C238.035 56.3902 238.65 55.926 239.387 55.0783C240.314 56.0067 241.01 56.4709 241.01 57.1269H241Z" fill="#979D6E"/>
<path d="M68.6641 38.6497C69.6222 37.1864 69.3398 32.3931 66.3342 27.1759C63.2581 21.8376 59.3851 19.4358 57.6302 19.4258C57.3982 19.3955 57.1158 19.5166 56.9141 19.6982L50.0961 25.6824L51.8611 16.7717C51.9116 16.5396 51.8712 16.2874 51.7704 16.0754C50.9837 14.5214 46.6871 12.3618 40.676 12.3618C34.6649 12.3618 30.3683 14.5214 29.5816 16.0855C29.4707 16.2975 29.4404 16.5497 29.4908 16.7818L31.2559 25.6925L24.4379 19.7083C24.2361 19.5368 24.0143 19.4258 23.7218 19.4359C21.9568 19.4359 18.0939 21.8477 15.0177 27.186C12.0021 32.4032 11.7298 37.2066 12.6879 38.6598C12.819 38.8616 13.0107 39.013 13.2426 39.0836L21.8458 42.0202L13.2426 44.9366C13.0107 45.0173 12.819 45.1687 12.6879 45.3705C11.7298 46.8337 12.0122 51.6271 15.0177 56.8443C18.0939 62.1826 21.9568 64.5843 23.7218 64.5944C23.984 64.5642 24.2361 64.5036 24.4379 64.322L31.2559 58.3378L29.4908 67.2484C29.4404 67.4805 29.4808 67.7328 29.5816 67.9447C30.3683 69.4988 34.6548 71.6583 40.676 71.6583C46.6972 71.6583 50.9837 69.4988 51.7704 67.9347C51.8813 67.7227 51.9116 67.4805 51.8611 67.2383L50.1264 58.3479L56.9141 64.3119C57.1158 64.4834 57.4285 64.5742 57.6302 64.5843C59.3952 64.5843 63.2581 62.1624 66.3342 56.8342C69.3398 51.617 69.6222 46.8236 68.6641 45.3604C68.533 45.1586 68.3312 45.0072 68.1093 44.9265L59.5062 42.0101L68.1093 39.0735C68.3413 38.9928 68.533 38.8414 68.6641 38.6396V38.6497ZM66.9394 37.1864L55.7946 40.9909C55.3609 41.1422 55.0583 41.556 55.0583 42.0202C55.0583 42.4844 55.3508 42.8981 55.7946 43.0394L66.9293 46.8136C67.1512 47.9034 67.0201 51.3042 64.4583 55.7444C61.9167 60.1543 59.022 61.9707 57.9429 62.3441L49.1581 54.6343C48.8152 54.3316 48.3109 54.2811 47.9075 54.5132C47.5041 54.7453 47.2923 55.1994 47.383 55.6535L49.6322 67.1576C48.7951 67.8943 45.7895 69.4887 40.6659 69.4887C35.5423 69.4887 32.5065 67.8842 31.6895 67.1677L33.979 55.6233C34.0698 55.1692 33.858 54.705 33.4646 54.4729C33.0612 54.2408 32.5569 54.2912 32.214 54.5939L23.3889 62.334C22.3098 61.9707 19.4252 60.1442 16.8735 55.7343C14.3016 51.284 14.1806 47.8731 14.3924 46.8035L25.5271 43.0293C25.9709 42.8779 26.2634 42.4743 26.2634 42.0101C26.2634 41.5459 25.9709 41.1322 25.5271 40.9808L14.3924 37.1864C14.1705 36.0966 14.3016 32.6958 16.8634 28.2456C19.4051 23.8357 22.2997 22.0192 23.3789 21.6458L32.2039 29.3859C32.5468 29.6886 33.0612 29.7391 33.4546 29.507C33.858 29.2749 34.0597 28.8107 33.9689 28.3566L31.6895 16.8222C32.5267 16.0855 35.5322 14.4911 40.6558 14.4911C45.7794 14.4911 48.8051 16.0956 49.6221 16.8121L47.3326 28.3566C47.2418 28.8107 47.4536 29.2749 47.847 29.507C48.2504 29.7391 48.7547 29.6886 49.0976 29.3859L57.9227 21.6358C59.0019 21.999 61.8864 23.8256 64.4381 28.2355C67.01 32.6857 67.131 36.1067 66.9091 37.1663L66.9394 37.1864Z" fill="#979D6E"/>
<path d="M81.3117 34.3204C81.0898 30.1426 79.5669 25.4098 77.0253 20.9999C72.5573 13.2498 65.9914 8.20414 60.2324 8.06286C57.2168 3.24931 49.8037 0.0100021 40.6761 0.0100021C31.5484 0.0100021 24.1354 3.24931 21.1096 8.06286C15.3506 8.21423 8.78479 13.2599 4.31678 20.9999C-0.252083 28.9115 -1.14972 36.9644 1.52302 41.9898C0.393408 44.0686 -0.131053 46.7025 0.0303193 49.6794C0.252207 53.8572 1.77516 58.59 4.31678 62.9999C8.78479 70.75 15.3506 75.7957 21.1096 75.937C24.1253 80.7505 31.5383 83.9898 40.6761 83.9898C49.8138 83.9898 57.2168 80.7505 60.2324 75.937C65.9914 75.7856 72.5573 70.7399 77.0253 62.9999C79.5669 58.59 81.0898 53.8673 81.3117 49.6794C81.4731 46.7025 80.9486 44.0787 79.8291 41.9999C80.9486 39.9211 81.4731 37.2974 81.3117 34.3204ZM77.9229 43.0191C78.8609 44.7649 79.2845 47.0254 79.1534 49.5583C78.9517 53.4031 77.5295 57.7928 75.1493 61.91C71.0646 68.9841 65.1845 73.6361 60.1719 73.7673C59.4457 73.7875 58.7801 74.171 58.3968 74.7765C55.714 79.0552 48.7548 81.8202 40.666 81.8202C32.5772 81.8202 25.618 79.0552 22.9352 74.7765C22.5519 74.1609 21.8862 73.7774 21.1601 73.7673C16.1474 73.6361 10.2674 68.9841 6.18265 61.91C3.80241 57.7928 2.38031 53.4031 2.17859 49.5583C2.03739 47.0254 2.47108 44.7548 3.40906 43.009C3.75198 42.3733 3.75198 41.6064 3.40906 40.9605C1.0389 36.5002 2.12816 29.083 6.17257 22.0696C10.2573 14.9956 16.1373 10.3435 21.15 10.2123C21.8761 10.1921 22.5418 9.80866 22.9251 9.20318C25.6079 4.92447 32.5671 2.15945 40.6559 2.15945C48.7447 2.15945 55.7039 4.92447 58.3867 9.20318C58.77 9.81875 59.4356 10.2022 60.1618 10.2123C65.1745 10.3435 71.0545 14.9956 75.1392 22.0696C77.5195 26.1868 78.9416 30.5766 79.1433 34.4213C79.2744 36.9543 78.8508 39.2147 77.9128 40.9605C77.5699 41.5963 77.5699 42.3733 77.9128 43.009L77.9229 43.0191Z" fill="#979D6E"/>
<path d="M46.4754 36.1874C46.0518 35.7636 45.3659 35.7636 44.9423 36.1874L40.6659 40.4661L36.3896 36.1874C35.966 35.7636 35.2801 35.7636 34.8565 36.1874C34.4329 36.6112 34.4329 37.2975 34.8565 37.7213L39.1329 42L34.8565 46.2787C34.4329 46.7025 34.4329 47.3888 34.8565 47.8126C35.0683 48.0245 35.3406 48.1254 35.623 48.1254C35.9054 48.1254 36.1778 48.0245 36.3896 47.8126L40.6659 43.5339L44.9423 47.8126C45.1541 48.0245 45.4264 48.1254 45.7088 48.1254C45.9912 48.1254 46.2636 48.0245 46.4754 47.8126C46.899 47.3888 46.899 46.7025 46.4754 46.2787L42.199 42L46.4754 37.7213C46.899 37.2975 46.899 36.6112 46.4754 36.1874Z" fill="#979D6E"/>
</g>
<defs>
<clipPath id="clip0_133_994">
<rect width="241" height="84" fill="white"/>
</clipPath>
</defs>
</svg>
