<svg width="140" height="187" viewBox="0 0 140 187" fill="none" xmlns="http://www.w3.org/2000/svg">
<g clip-path="url(#clip0_224_2939)">
<path d="M26.2458 9.28906C31.6702 14.6067 36.7608 19.8784 41.9766 25.3628C48.6111 32.339 55.8673 38.7026 62.2848 45.9581C65.4393 49.5254 69.0277 53.0052 72.4326 56.4225C78.8626 62.8819 85.351 69.2622 91.7769 75.7259C92.2651 76.2177 93.4167 77.9305 94.0885 77.9013C94.5892 77.8804 95.7784 77.3178 96.4419 77.1762C98.3613 76.7594 101.003 76.6469 102.955 76.8386C114.797 77.9888 121.82 90.2577 117.952 101.235C117.793 101.689 117.247 102.11 117.455 102.689L126.414 113.387C131.409 120.15 136.099 127.281 139.332 135.086C139.758 136.116 140.672 137.92 139.182 138.375C137.893 138.766 136.775 138.333 135.514 138.254C130.37 137.929 126.326 137.195 121.382 135.791C112.411 133.244 103.669 128.994 95.8702 123.922C94.8396 123.776 92.4904 125.997 91.6475 126.656C82.038 132.824 74.1475 141.158 61.9551 135.116C49.0909 128.735 45.5567 113.037 56.4806 102.922C57.7157 101.781 59.5809 100.81 60.6074 99.6343C60.7492 99.4718 60.8786 99.3718 60.7743 99.1342C58.6629 97.0464 56.6183 94.8376 54.4945 92.7623C49.1368 87.5197 43.679 82.3896 38.4382 77.0136C37.4201 75.9676 35.9346 74.5507 35.0584 73.4713C33.5646 71.6293 33.9651 71.1459 35.3797 69.4581C37.4159 67.0285 43.5997 61.4609 44.355 58.7896C44.8891 56.91 43.2576 54.5805 42.0767 53.1802C39.0307 49.5587 34.4867 47.2125 30.6521 44.5578C22.8576 39.1652 15.7141 32.589 9.03785 25.9129C6.45917 23.3332 2.03619 19.5159 0.705117 16.2111C-1.46048 10.8393 1.60223 3.9131 6.81802 1.50434C12.0338 -0.90442 15.9102 -0.604367 20.0661 3.1463C22.1566 5.03414 24.2137 7.29704 26.2416 9.28906H26.2458ZM15.4971 12.6688C17.5667 9.65579 13.2898 6.72611 11.1993 9.25989C10.0017 10.7143 10.7361 12.523 12.1757 13.4398C12.6806 13.7607 14.2328 13.7482 14.7418 13.4398C14.7877 13.4106 15.4679 12.7147 15.4971 12.6688ZM11.1367 20.837C9.85986 19.6492 8.59138 18.4657 7.34377 17.303C7.18521 17.153 5.84579 15.9277 5.73731 16.6612C5.69975 16.9154 6.52593 17.7906 6.73039 18.074C8.15743 20.0868 10.3648 22.1414 12.1632 23.9167C17.3664 29.0593 22.6072 33.3308 28.1986 37.9942C29.2834 38.8985 30.2557 39.9112 31.424 40.728C31.641 40.878 31.666 41.0239 31.908 40.728C32.2085 40.2196 29.5004 37.8233 29.0039 37.3524C26.6004 35.0812 23.9675 33.0683 21.514 30.8346C17.9589 27.6007 14.6417 24.1125 11.1367 20.8411V20.837ZM32.1 24.5209C31.1444 23.4541 28.5616 23.5416 27.8189 24.896C26.9176 26.538 27.243 28.0216 28.9788 28.8467C30.118 29.3885 31.0526 29.3676 32.0249 28.5008C32.9971 27.634 32.9428 25.4669 32.1 24.5251V24.5209ZM47.4177 39.632C46.0908 39.8528 45.1686 41.4406 45.3731 42.7284C45.853 45.7581 50.5472 45.3538 50.5013 42.2699C50.4804 40.7572 48.9407 39.3778 47.4177 39.632ZM63.6283 51.9342C62.4099 50.7256 61.3167 49.3545 60.0315 48.2043C59.2513 48.1918 58.98 48.967 58.5628 49.317C55.596 51.8258 51.6529 55.1931 49.5666 58.3561C47.2299 61.8943 43.6999 65.1657 40.8458 68.4371C40.2324 69.1372 38.3339 70.6958 38.2838 71.5543C38.2379 72.3045 38.8262 72.3503 39.1726 72.742C41.0252 74.8382 43.0364 76.7219 44.9725 78.6973C47.0129 80.7851 48.9699 82.9605 51.0854 84.9859L63.8495 97.1881L64.3335 97.0922C69.8539 93.9583 75.174 89.1116 81.8627 88.9908C87.7837 88.8866 92.8952 92.3289 96.6881 96.563C102.158 102.672 103.331 112.774 98.766 119.725C98.5282 120.088 97.556 120.988 97.7563 121.33C97.7897 121.388 98.6784 122.051 98.8036 122.13C107.424 127.535 120.071 132.578 130.082 134.341C131.847 134.653 133.637 134.77 135.435 134.707C135.752 134.382 133.891 130.952 133.587 130.361C127.307 118.229 117 106.906 107.729 96.9714C93.4209 81.6353 78.5371 66.7035 63.6283 51.9383V51.9342ZM77.2144 105.794C71.5772 101.23 62.2263 101.28 57.2234 106.723C50.1007 114.47 52.8129 125.997 61.4252 131.302C67.9095 135.299 74.8569 135.27 80.0935 129.398C86.3149 122.422 84.1744 111.424 77.2186 105.794H77.2144Z" fill="#C1C4A8"/>
<path d="M93.9258 173.873C87.0034 183.212 75.2741 187.088 65.9149 178.474C54.5487 168.013 65.168 149.873 77.4356 145.572C83.1187 143.58 89.0939 145.351 93.0579 149.756C96.5295 153.619 99.1082 157.249 98.5198 162.767C98.0817 166.851 96.3125 170.656 93.9299 173.869L93.9258 173.873ZM85.1048 170.86C89.9826 166.259 93.0537 159.308 90.0244 152.782C86.995 146.255 79.5678 147.276 74.256 150.606C68.8525 153.994 62.8522 163.15 64.3877 169.697C64.83 171.593 65.4476 173.31 67.0666 174.423C72.9333 178.461 80.4565 175.244 85.109 170.856L85.1048 170.86Z" fill="#C1C4A8"/>
<path d="M49.9671 130.594C58.1914 136.845 62.3974 146.939 55.7462 156.099C52.333 160.8 48.7613 161.979 43.0239 162.383C40.4744 162.562 33.4477 160.145 31.2654 158.687C24.1177 153.911 18.2385 145.03 21.7602 136.32C26.6088 124.322 40.4661 123.376 49.9713 130.598L49.9671 130.594ZM50.6264 135.408C45.6151 130.107 37.4701 127.21 30.5686 130.632C23.8507 133.961 25.8577 141.584 29.5088 146.443C33.4602 151.702 39.3144 155.019 45.9239 155.311C47.4928 155.382 49.0033 154.903 50.447 154.344C53.9478 152.998 55.4208 151.727 55.9173 147.831C56.5265 143.055 53.7809 138.742 50.6264 135.403V135.408Z" fill="#C1C4A8"/>
<path d="M37.3742 99.0761C38.8763 100.722 41.8013 105.577 41.8263 107.765C41.8347 108.465 41.4884 108.761 40.779 108.64C40.0196 108.511 38.5133 105.84 37.8957 105.156C37.4493 104.66 36.306 103.614 35.7719 103.173C34.4491 102.085 31.8454 101.026 31.1528 99.4178C30.7355 98.4552 30.9274 97.0716 31.9289 96.5882C33.986 95.5922 36.1057 97.6842 37.3783 99.0761H37.3742Z" fill="#C1C4A8"/>
<path d="M124.603 59.419C124.724 59.4065 126.013 59.4482 126.084 59.4732C126.56 59.6274 127.336 60.5317 127.336 61.0527C127.323 63.3906 122.358 65.0534 120.564 66.1827C119.779 66.6787 118.878 67.3663 118.119 67.9247C117.359 68.4831 117.08 69.2666 115.84 69.3666C114.601 69.4667 115.031 68.5957 115.39 67.9372C116.884 65.2117 121.369 59.7691 124.603 59.4232V59.419Z" fill="#C1C4A8"/>
<path d="M115.89 50.109C116.854 50.88 116.629 52.5386 116.345 53.6097C115.936 55.1766 112.427 60.3817 111.259 61.7236C109.903 63.2864 109.319 61.8611 109.531 60.3192C109.79 58.4522 111.589 53.3721 112.586 51.7843C112.982 51.1509 113.629 50.059 114.413 49.909C114.806 49.834 115.573 49.859 115.89 50.109Z" fill="#C1C4A8"/>
<path d="M106.686 142.821C108.079 143.967 109.444 145.209 110.366 146.789C111.013 147.893 111.893 149.731 110.846 150.781C110.262 151.369 109.853 151.398 109.106 151.102C107.395 150.423 105.092 146.001 103.957 144.338C103.502 143.676 101.328 141.35 101.67 140.659C101.833 140.333 102.405 140.138 102.768 140.2C103.635 140.35 105.922 142.188 106.69 142.817L106.686 142.821Z" fill="#C1C4A8"/>
<path d="M36.6022 111.432C37.2531 111.912 38.6635 113.108 38.409 113.991L38.1127 114.35C37.3157 114.741 35.9012 113.795 35.0542 113.541C33.0805 112.945 28.8453 112.858 27.6645 111.107C26.5587 109.465 27.3432 108.061 29.3252 108.157C31.57 108.269 34.7913 110.103 36.6022 111.437V111.432Z" fill="#C1C4A8"/>
<path d="M23.2331 172.147C24.3806 170.922 26.5587 168.922 28.0692 168.205C28.6033 167.951 29.3377 167.655 29.6548 168.347C29.997 169.093 28.4823 170.255 28.0609 170.935C27.0427 172.564 25.9954 175.781 24.8229 177.036C23.5419 178.403 21.5349 178.282 21.3763 176.127C21.2386 174.277 22.0982 173.36 23.2331 172.152V172.147Z" fill="#C1C4A8"/>
<path d="M14.6542 167.605C14.6 167.63 14.5707 167.801 14.3621 167.88C12.2633 168.697 10.4691 168.122 11.2493 165.567C11.6124 164.375 12.8349 163.821 13.9407 163.429C15.3719 162.925 17.9589 162.583 19.4778 162.733C20.2121 162.804 22.069 162.975 22.0898 163.85C21.9396 164.517 19.4402 165.163 18.7434 165.492C17.3831 166.134 16.0479 166.98 14.6542 167.609V167.605Z" fill="#C1C4A8"/>
<path d="M47.9977 177.407C51.148 174.348 49.2536 179.536 48.9532 180.853C48.5944 182.42 48.5443 184.066 47.6889 185.546C46.2911 187.963 44.2214 187.183 44.2632 184.525C44.3007 182.27 46.3995 178.957 47.9977 177.407Z" fill="#C1C4A8"/>
<path d="M46.5456 72.8548C51.0562 76.4262 55.7963 81.7563 60.0232 85.8654C61.6213 87.4199 64.1207 89.3369 65.4267 91.0872C65.8356 91.6373 66.2404 92.3624 65.6646 92.9458C65.1221 93.2751 64.1583 92.6333 63.6784 92.3457C61.5879 91.0913 60.0691 89.0285 58.3333 87.3823C54.3526 83.6067 50.3302 79.9394 46.5665 75.9636C46.0699 75.4427 44.7973 74.1842 44.4801 73.7007C43.0781 71.5837 44.2715 71.0003 46.1617 72.3463C46.3662 72.4922 46.4162 72.7506 46.5414 72.8464L46.5456 72.8548Z" fill="#C1C4A8"/>
<path d="M75.295 116.967C75.2032 117.058 73.9598 117.471 73.797 117.471C72.5911 117.459 72.1196 114.675 71.8275 113.791C71.5355 112.908 70.6342 111.978 71.2434 111.037C72.4618 110.466 73.4006 111.466 74.1225 112.337C74.8819 113.258 76.3298 115.937 75.2908 116.967H75.295Z" fill="#C1C4A8"/>
<path d="M66.7745 120.405C66.9331 122.326 63.0024 126.427 61.8842 123.28C60.8786 120.455 64.7007 119.242 66.7745 120.405Z" fill="#C1C4A8"/>
<path d="M61.4335 114.791C63.0483 114.529 65.3099 116.821 64.1416 117.979C63.7368 118.38 61.9718 118.971 61.396 118.946C58.9884 118.838 58.7714 115.221 61.4335 114.791Z" fill="#C1C4A8"/>
<path d="M65.9441 109.961C68.5228 109.432 68.1848 112.358 67.5172 113.945C66.9539 115.283 65.8774 115.316 64.8551 114.358C63.5824 113.17 64.1749 110.328 65.9483 109.961H65.9441Z" fill="#C1C4A8"/>
<path d="M68.7815 126.927C67.8051 125.973 67.5715 123.722 68.2725 122.584C69.8914 119.951 71.4645 124.485 71.2934 125.923C71.1224 127.36 69.7621 127.885 68.7815 126.931V126.927Z" fill="#C1C4A8"/>
<path d="M75.4494 123.397C75.1239 123.664 74.4271 123.68 74.0474 123.522C73.2337 123.172 71.6982 121.038 70.8595 120.517C70.196 119.359 73.2045 119.501 73.7929 119.592C75.4244 119.846 76.8222 122.268 75.4494 123.397Z" fill="#C1C4A8"/>
<path d="M69.6369 113.658C70.5841 113.475 71.1265 114.916 71.1015 115.7C71.0639 117.017 69.0861 119.442 68.5103 116.692C68.3559 115.958 68.8608 113.808 69.6369 113.658Z" fill="#C1C4A8"/>
<path d="M76.576 164.046C77.4147 164.767 77.665 167.622 77.277 168.597C76.793 169.818 74.1058 171.076 73.4882 169.464C73.1503 168.584 73.4799 167.451 73.8513 166.626C74.0974 166.08 75.562 163.888 76.0544 163.846C76.2171 163.833 76.4466 163.938 76.576 164.05V164.046Z" fill="#C1C4A8"/>
<path d="M79.6262 158.307C79.5219 158.42 78.6164 159.22 78.5538 159.249C77.544 159.72 77.2394 158.037 77.2561 157.316C77.302 155.582 79.0963 152.286 80.8947 154.178C81.3745 154.686 81.6875 155.415 81.3703 156.107C81.3119 156.236 79.8181 158.103 79.6262 158.303V158.307Z" fill="#C1C4A8"/>
<path d="M80.056 165.717C79.9224 165.571 78.775 163.683 78.7458 163.554C78.4203 162.137 82.0922 162.442 82.6597 163.033C82.8892 163.271 83.0686 164.054 83.077 164.4C83.1228 166.159 81.266 167.03 80.0518 165.717H80.056Z" fill="#C1C4A8"/>
<path d="M75.2783 160.558C74.2226 161.612 71.2225 160.404 71.6982 158.841C71.9736 157.937 73.3172 157.061 74.2518 157.266C75.27 157.486 76.0836 159.758 75.2783 160.558Z" fill="#C1C4A8"/>
<path d="M84.1535 156.949C84.3872 156.886 84.6208 156.857 84.842 156.991C86.5152 158.916 83.6862 161.196 81.8419 160.645C79.8515 160.049 81.6916 158.349 82.668 157.72C82.8266 157.616 84.0533 156.974 84.1535 156.949Z" fill="#C1C4A8"/>
<path d="M71.7483 162.417C74.2185 162.046 72.9625 165.25 71.8734 166.255C69.4283 168.509 68.9651 162.833 71.7483 162.417Z" fill="#C1C4A8"/>
<path d="M41.9432 139.658C41.142 140.488 38.5967 138.012 38.4465 137.033C38.338 136.329 38.3297 134.803 39.0849 134.466C40.9501 134.112 42.5691 136.304 42.4773 138.016C42.4606 138.316 42.1059 139.496 41.9432 139.663V139.658Z" fill="#C1C4A8"/>
<path d="M38.7136 142.955C42.9738 142.242 39.4146 147.618 37.4993 147.155C34.8372 146.51 36.6106 143.309 38.7136 142.955Z" fill="#C1C4A8"/>
<path d="M45.1102 145.743C45.8947 146.58 46.7793 147.485 46.725 148.714C45.4941 150.669 42.3187 147.647 42.1852 146.351C42.1184 145.722 42.7151 144.676 43.3869 144.543C44.1338 144.397 44.6846 145.293 45.106 145.739L45.1102 145.743Z" fill="#C1C4A8"/>
<path d="M36.114 137.837C36.6147 138.137 38.5884 140.1 38.5508 140.584C37.2865 142.659 31.4657 139.283 33.865 137.625C34.7329 137.025 35.3337 137.366 36.114 137.837Z" fill="#C1C4A8"/>
<path d="M47.7306 140.775C47.3718 141.259 45.0852 141.734 44.6053 141.517C43.5204 141.025 44.3258 138.333 45.1144 138.237C46.5122 138.071 48.7571 139.383 47.7306 140.775Z" fill="#C1C4A8"/>
<path d="M46.7334 142.838C47.6388 142.826 48.9991 143.567 49.5541 144.28C50.5597 145.568 49.7043 146.885 48.1729 146.301C47.0797 145.884 44.4551 142.867 46.7334 142.838Z" fill="#C1C4A8"/>
</g>
<defs>
<clipPath id="clip0_224_2939">
<rect width="140" height="187" fill="white"/>
</clipPath>
</defs>
</svg>
